  0
SECTION
  2
HEADER
  9
$ACADVER
  1
AC1021
  9
$ACADMAINTVER
 70
    50
  9
$DWGCODEPAGE
  3
ANSI_1252
  9
$INSBASE
 10
0.0
 20
0.0
 30
0.0
  9
$EXTMIN
 10
4.661209640745836
 20
5.402910413824463
 30
-0.00000001
  9
$EXTMAX
 10
93.13187812642109
 20
63.86175534333787
 30
0.00000001
  9
$LIMMIN
 10
0.0
 20
0.0
  9
$LIMMAX
 10
3.89763779527559
 20
2.755905511811023
  9
$ORTHOMODE
 70
     0
  9
$REGENMODE
 70
     1
  9
$FILLMODE
 70
     1
  9
$QTEXTMODE
 70
     0
  9
$MIRRTEXT
 70
     0
  9
$LTSCALE
 40
1.0
  9
$ATTMODE
 70
     1
  9
$TEXTSIZE
 40
0.6666666666666666
  9
$TRACEWID
 40
0.05
  9
$TEXTSTYLE
  7
Standard
  9
$CLAYER
  8
0
  9
$CELTYPE
  6
ByLayer
  9
$CECOLOR
 62
     5
  9
$CELTSCALE
 40
1.0
  9
$DISPSILH
 70
     0
  9
$DIMSCALE
 40
1.0
  9
$DIMASZ
 40
0.18
  9
$DIMEXO
 40
0.0625
  9
$DIMDLI
 40
0.38
  9
$DIMRND
 40
0.0
  9
$DIMDLE
 40
0.0
  9
$DIMEXE
 40
0.18
  9
$DIMTP
 40
0.0
  9
$DIMTM
 40
0.0
  9
$DIMTXT
 40
0.05249343832021
  9
$DIMCEN
 40
0.09
  9
$DIMTSZ
 40
0.0
  9
$DIMTOL
 70
     0
  9
$DIMLIM
 70
     0
  9
$DIMTIH
 70
     1
  9
$DIMTOH
 70
     1
  9
$DIMSE1
 70
     0
  9
$DIMSE2
 70
     0
  9
$DIMTAD
 70
     0
  9
$DIMZIN
 70
     0
  9
$DIMBLK
  1

  9
$DIMASO
 70
     1
  9
$DIMSHO
 70
     1
  9
$DIMPOST
  1

  9
$DIMAPOST
  1

  9
$DIMALT
 70
     0
  9
$DIMALTD
 70
     2
  9
$DIMALTF
 40
25.4
  9
$DIMLFAC
 40
1.0
  9
$DIMTOFL
 70
     0
  9
$DIMTVP
 40
0.0
  9
$DIMTIX
 70
     0
  9
$DIMSOXD
 70
     0
  9
$DIMSAH
 70
     0
  9
$DIMBLK1
  1

  9
$DIMBLK2
  1

  9
$DIMSTYLE
  2
Standard
  9
$DIMCLRD
 70
     0
  9
$DIMCLRE
 70
     0
  9
$DIMCLRT
 70
     0
  9
$DIMTFAC
 40
1.0
  9
$DIMGAP
 40
0.09
  9
$DIMJUST
 70
     0
  9
$DIMSD1
 70
     0
  9
$DIMSD2
 70
     0
  9
$DIMTOLJ
 70
     1
  9
$DIMTZIN
 70
     0
  9
$DIMALTZ
 70
     0
  9
$DIMALTTZ
 70
     0
  9
$DIMUPT
 70
     0
  9
$DIMDEC
 70
     2
  9
$DIMTDEC
 70
     4
  9
$DIMALTU
 70
     2
  9
$DIMALTTD
 70
     2
  9
$DIMTXSTY
  7
Standard
  9
$DIMAUNIT
 70
     1
  9
$DIMADEC
 70
     0
  9
$DIMALTRND
 40
0.0
  9
$DIMAZIN
 70
     0
  9
$DIMDSEP
 70
    46
  9
$DIMATFIT
 70
     3
  9
$DIMFRAC
 70
     0
  9
$DIMLDRBLK
  1

  9
$DIMLUNIT
 70
     2
  9
$DIMLWD
 70
    -2
  9
$DIMLWE
 70
    -2
  9
$DIMTMOVE
 70
     0
  9
$DIMFXL
 40
1.0
  9
$DIMFXLON
 70
     0
  9
$DIMJOGANG
 40
0.7853981633974483
  9
$DIMTFILL
 70
     0
  9
$DIMTFILLCLR
 70
     0
  9
$DIMARCSYM
 70
     0
  9
$DIMLTYPE
  6

  9
$DIMLTEX1
  6

  9
$DIMLTEX2
  6

  9
$LUNITS
 70
     2
  9
$LUPREC
 70
     2
  9
$SKETCHINC
 40
0.1
  9
$FILLETRAD
 40
4.999999999999999
  9
$AUNITS
 70
     0
  9
$AUPREC
 70
     2
  9
$MENU
  1
.
  9
$ELEVATION
 40
0.0
  9
$PELEVATION
 40
0.0
  9
$THICKNESS
 40
0.0
  9
$LIMCHECK
 70
     0
  9
$CHAMFERA
 40
4.999999999999999
  9
$CHAMFERB
 40
4.999999999999999
  9
$CHAMFERC
 40
0.0
  9
$CHAMFERD
 40
0.0
  9
$SKPOLY
 70
     0
  9
$TDCREATE
 40
2457791.207197061
  9
$TDUCREATE
 40
2457791.165530394
  9
$TDUPDATE
 40
2457791.207197061
  9
$TDUUPDATE
 40
2457791.165530394
  9
$TDINDWG
 40
0.0000000926
  9
$TDUSRTIMER
 40
0.0000000926
  9
$USRTIMER
 70
     1
  9
$ANGBASE
 50
0.0
  9
$ANGDIR
 70
     0
  9
$PDMODE
 70
     0
  9
$PDSIZE
 40
0.0
  9
$PLINEWID
 40
0.0
  9
$SPLFRAME
 70
     0
  9
$SPLINETYPE
 70
     6
  9
$SPLINESEGS
 70
     8
  9
$HANDSEED
  5
16B
  9
$SURFTAB1
 70
     6
  9
$SURFTAB2
 70
     6
  9
$SURFTYPE
 70
     6
  9
$SURFU
 70
     6
  9
$SURFV
 70
     6
  9
$UCSBASE
  2

  9
$UCSNAME
  2

  9
$UCSORG
 10
0.0
 20
0.0
 30
0.0
  9
$UCSXDIR
 10
1.0
 20
0.0
 30
0.0
  9
$UCSYDIR
 10
0.0
 20
1.0
 30
0.0
  9
$UCSORTHOREF
  2

  9
$UCSORTHOVIEW
 70
     0
  9
$UCSORGTOP
 10
0.0
 20
0.0
 30
0.0
  9
$UCSORGBOTTOM
 10
0.0
 20
0.0
 30
0.0
  9
$UCSORGLEFT
 10
0.0
 20
0.0
 30
0.0
  9
$UCSORGRIGHT
 10
0.0
 20
0.0
 30
0.0
  9
$UCSORGFRONT
 10
0.0
 20
0.0
 30
0.0
  9
$UCSORGBACK
 10
0.0
 20
0.0
 30
0.0
  9
$PUCSBASE
  2

  9
$PUCSNAME
  2

  9
$PUCSORG
 10
0.0
 20
0.0
 30
0.0
  9
$PUCSXDIR
 10
1.0
 20
0.0
 30
0.0
  9
$PUCSYDIR
 10
0.0
 20
1.0
 30
0.0
  9
$PUCSORTHOREF
  2

  9
$PUCSORTHOVIEW
 70
     0
  9
$PUCSORGTOP
 10
0.0
 20
0.0
 30
0.0
  9
$PUCSORGBOTTOM
 10
0.0
 20
0.0
 30
0.0
  9
$PUCSORGLEFT
 10
0.0
 20
0.0
 30
0.0
  9
$PUCSORGRIGHT
 10
0.0
 20
0.0
 30
0.0
  9
$PUCSORGFRONT
 10
0.0
 20
0.0
 30
0.0
  9
$PUCSORGBACK
 10
0.0
 20
0.0
 30
0.0
  9
$USERI1
 70
     0
  9
$USERI2
 70
     0
  9
$USERI3
 70
     0
  9
$USERI4
 70
     0
  9
$USERI5
 70
     0
  9
$USERR1
 40
0.0
  9
$USERR2
 40
0.0
  9
$USERR3
 40
0.0
  9
$USERR4
 40
0.0
  9
$USERR5
 40
0.0
  9
$WORLDVIEW
 70
     1
  9
$SHADEDGE
 70
     3
  9
$SHADEDIF
 70
    70
  9
$TILEMODE
 70
     1
  9
$MAXACTVP
 70
    64
  9
$PINSBASE
 10
0.0
 20
0.0
 30
0.0
  9
$PLIMCHECK
 70
     0
  9
$PEXTMIN
 10
1.000000000000000E+20
 20
1.000000000000000E+20
 30
1.000000000000000E+20
  9
$PEXTMAX
 10
-1.000000000000000E+20
 20
-1.000000000000000E+20
 30
-1.000000000000000E+20
  9
$PLIMMIN
 10
0.0
 20
0.0
  9
$PLIMMAX
 10
12.0
 20
9.0
  9
$UNITMODE
 70
     0
  9
$VISRETAIN
 70
     1
  9
$PLINEGEN
 70
     0
  9
$PSLTSCALE
 70
     1
  9
$TREEDEPTH
 70
  3020
  9
$CMLSTYLE
  2
Standard
  9
$CMLJUST
 70
     0
  9
$CMLSCALE
 40
1.0
  9
$PROXYGRAPHICS
 70
     1
  9
$MEASUREMENT
 70
     1
  9
$CELWEIGHT
370
    -1
  9
$ENDCAPS
280
     0
  9
$JOINSTYLE
280
     0
  9
$LWDISPLAY
290
     0
  9
$INSUNITS
 70
     0
  9
$HYPERLINKBASE
  1

  9
$STYLESHEET
  1

  9
$XEDIT
290
     1
  9
$CEPSNTYPE
380
     0
  9
$PSTYLEMODE
290
     1
  9
$FINGERPRINTGUID
  2
{93CEC570-BF12-44E5-B22E-ACBEBDB9C48B}
  9
$VERSIONGUID
  2
{C3EDB852-F353-47E6-BD21-3CBD91DEA8D7}
  9
$EXTNAMES
290
     1
  9
$PSVPSCALE
 40
0.0
  9
$OLESTARTUP
290
     0
  9
$SORTENTS
280
   127
  9
$INDEXCTL
280
     0
  9
$HIDETEXT
280
     1
  9
$XCLIPFRAME
290
     0
  9
$HALOGAP
280
     0
  9
$OBSCOLOR
 70
   257
  9
$OBSLTYPE
280
     0
  9
$INTERSECTIONDISPLAY
280
     0
  9
$INTERSECTIONCOLOR
 70
   257
  9
$DIMASSOC
280
     2
  9
$PROJECTNAME
  1

  9
$CAMERADISPLAY
290
     0
  9
$LENSLENGTH
 40
50.0
  9
$CAMERAHEIGHT
 40
0.0
  9
$STEPSPERSEC
 40
2.0
  9
$STEPSIZE
 40
6.0
  9
$3DDWFPREC
 40
2.0
  9
$PSOLWIDTH
 40
0.25
  9
$PSOLHEIGHT
 40
4.0
  9
$LOFTANG1
 40
1.570796326794896
  9
$LOFTANG2
 40
1.570796326794896
  9
$LOFTMAG1
 40
0.0
  9
$LOFTMAG2
 40
0.0
  9
$LOFTPARAM
 70
     7
  9
$LOFTNORMALS
280
     1
  9
$LATITUDE
 40
37.795
  9
$LONGITUDE
 40
-122.394
  9
$NORTHDIRECTION
 40
0.0
  9
$TIMEZONE
 70
 -8000
  9
$LIGHTGLYPHDISPLAY
280
     1
  9
$TILEMODELIGHTSYNCH
280
     1
  9
$CMATERIAL
347
11
  9
$SOLIDHIST
280
     1
  9
$SHOWHIST
280
     1
  9
$DWFFRAME
280
     2
  9
$DGNFRAME
280
     0
  9
$REALWORLDSCALE
290
     1
  9
$INTERFERECOLOR
 62
     1
  9
$INTERFEREOBJVS
345
33
  9
$INTERFEREVPVS
346
30
  9
$CSHADOW
280
     0
  9
$SHADOWPLANELOCATION
 40
0.0
  0
ENDSEC
  0
SECTION
  2
CLASSES
  0
CLASS
  1
ACDBDICTIONARYWDFLT
  2
AcDbDictionaryWithDefault
  3
ObjectDBX Classes
 90
        0
 91
        1
280
     0
281
     0
  0
CLASS
  1
MATERIAL
  2
AcDbMaterial
  3
ObjectDBX Classes
 90
     1153
 91
        3
280
     0
281
     0
  0
CLASS
  1
VISUALSTYLE
  2
AcDbVisualStyle
  3
ObjectDBX Classes
 90
     4095
 91
       16
280
     0
281
     0
  0
CLASS
  1
SCALE
  2
AcDbScale
  3
ObjectDBX Classes
 90
     1153
 91
       33
280
     0
281
     0
  0
CLASS
  1
TABLESTYLE
  2
AcDbTableStyle
  3
ObjectDBX Classes
 90
     4095
 91
        1
280
     0
281
     0
  0
CLASS
  1
MLEADERSTYLE
  2
AcDbMLeaderStyle
  3
ACDB_MLEADERSTYLE_CLASS
 90
     4095
 91
        1
280
     0
281
     0
  0
CLASS
  1
DICTIONARYVAR
  2
AcDbDictionaryVar
  3
ObjectDBX Classes
 90
        0
 91
        3
280
     0
281
     0
  0
CLASS
  1
CELLSTYLEMAP
  2
AcDbCellStyleMap
  3
ObjectDBX Classes
 90
     1152
 91
        1
280
     0
281
     0
  0
ENDSEC
  0
SECTION
  2
TABLES
  0
TABLE
  2
VPORT
  5
8
330
0
100
AcDbSymbolTable
 70
     1
  0
VPORT
  5
5F
330
8
100
AcDbSymbolTableRecord
100
AcDbViewportTableRecord
  2
*Active
 70
     0
 10
0.0
 20
0.0
 11
1.0
 21
1.0
 12
46.56593906321054
 22
31.93087767166894
 13
0.0
 23
0.0
 14
1.0
 24
1.0
 15
0.0
 25
0.0
 16
0.0
 26
0.0
 36
1.0
 17
0.0
 27
0.0
 37
0.0
 40
63.86175534333787
 41
1.458335706961376
 42
50.0
 43
0.0
 44
0.0
 50
0.0
 51
0.0
 71
     0
 72
   100
 73
     1
 74
     1
 75
     0
 76
     0
 77
     0
 78
     0
281
     0
 65
     1
110
0.0
120
0.0
130
0.0
111
1.0
121
0.0
131
0.0
112
0.0
122
1.0
132
0.0
 79
     0
146
0.0
 60
     3
 61
     5
292
     1
282
     1
141
0.0
142
0.0
 63
   250
421
  3355443
  0
ENDTAB
  0
TABLE
  2
LTYPE
  5
5
330
0
100
AcDbSymbolTable
 70
    40
  0
LTYPE
  5
63
330
5
100
AcDbSymbolTableRecord
100
AcDbLinetypeTableRecord
  2
ByBlock
 70
     0
  3

 72
    65
 73
     0
 40
0.0
  0
LTYPE
  5
64
330
5
100
AcDbSymbolTableRecord
100
AcDbLinetypeTableRecord
  2
ByLayer
 70
     0
  3

 72
    65
 73
     0
 40
0.0
  0
LTYPE
  5
65
330
5
100
AcDbSymbolTableRecord
100
AcDbLinetypeTableRecord
  2
Continuous
 70
     0
  3
Solid line
 72
    65
 73
     0
 40
0.0
  0
LTYPE
  5
7D
330
5
100
AcDbSymbolTableRecord
100
AcDbLinetypeTableRecord
  2
HIDDEN
 70
     0
  3
_ _ _ _ _ _ _ _ _ _ _ _ _ _ 
 72
    65
 73
     2
 40
9.524999999999998
 49
6.349999999999999
 74
     0
 49
-3.174999999999999
 74
     0
  0
LTYPE
  5
7E
330
5
100
AcDbSymbolTableRecord
100
AcDbLinetypeTableRecord
  2
DASHED
 70
     0
  3
__ __ __ __ __ __ __ __ __ 
 72
    65
 73
     2
 40
19.05
 49
12.7
 74
     0
 49
-6.349999999999999
 74
     0
  0
LTYPE
  5
7F
330
5
100
AcDbSymbolTableRecord
100
AcDbLinetypeTableRecord
  2
CENTER
 70
     0
  3
____ _ ____ _ ____ _ ____ _ 
 72
    65
 73
     4
 40
50.8
 49
31.75
 74
     0
 49
-6.349999999999999
 74
     0
 49
6.349999999999999
 74
     0
 49
-6.349999999999999
 74
     0
  0
LTYPE
  5
80
330
5
100
AcDbSymbolTableRecord
100
AcDbLinetypeTableRecord
  2
PHANTOM
 70
     0
  3
_____ _ _ _____ _ _ _____ _ _ 
 72
    65
 73
     6
 40
63.50000000000001
 49
31.75
 74
     0
 49
-6.349999999999999
 74
     0
 49
6.349999999999999
 74
     0
 49
-6.349999999999999
 74
     0
 49
6.349999999999999
 74
     0
 49
-6.349999999999999
 74
     0
  0
LTYPE
  5
81
330
5
100
AcDbSymbolTableRecord
100
AcDbLinetypeTableRecord
  2
DOT
 70
     0
  3
...........................
 72
    65
 73
     2
 40
6.349999999999999
 49
0.0
 74
     0
 49
-6.349999999999999
 74
     0
  0
LTYPE
  5
82
330
5
100
AcDbSymbolTableRecord
100
AcDbLinetypeTableRecord
  2
DASHDOT
 70
     0
  3
__ . __ . __ . __ . __ . __ . 
 72
    65
 73
     4
 40
25.4
 49
12.7
 74
     0
 49
-6.349999999999999
 74
     0
 49
0.0
 74
     0
 49
-6.349999999999999
 74
     0
  0
LTYPE
  5
83
330
5
100
AcDbSymbolTableRecord
100
AcDbLinetypeTableRecord
  2
DIVIDE
 70
     0
  3
__ . . __ . . __ . . __ . . 
 72
    65
 73
     6
 40
31.75
 49
12.7
 74
     0
 49
-6.349999999999999
 74
     0
 49
0.0
 74
     0
 49
-6.349999999999999
 74
     0
 49
0.0
 74
     0
 49
-6.349999999999999
 74
     0
  0
LTYPE
  5
84
330
5
100
AcDbSymbolTableRecord
100
AcDbLinetypeTableRecord
  2
BORDER
 70
     0
  3
__ __ . __ __ . __ __ . __ __ .
 72
    65
 73
     6
 40
44.44999999999999
 49
12.7
 74
     0
 49
-6.349999999999999
 74
     0
 49
12.7
 74
     0
 49
-6.349999999999999
 74
     0
 49
0.0
 74
     0
 49
-6.349999999999999
 74
     0
  0
LTYPE
  5
85
330
5
100
AcDbSymbolTableRecord
100
AcDbLinetypeTableRecord
  2
BORDER2
 70
     0
  3
Border (.5x) __.__.__.__.__.__.
 72
    65
 73
     6
 40
0.875
 49
0.25
 74
     0
 49
-0.125
 74
     0
 49
0.25
 74
     0
 49
-0.125
 74
     0
 49
0.0
 74
     0
 49
-0.125
 74
     0
  0
LTYPE
  5
86
330
5
100
AcDbSymbolTableRecord
100
AcDbLinetypeTableRecord
  2
BORDERX2
 70
     0
  3
Border (2x) ____  ____  .  ____
 72
    65
 73
     6
 40
3.5
 49
1.0
 74
     0
 49
-0.5
 74
     0
 49
1.0
 74
     0
 49
-0.5
 74
     0
 49
0.0
 74
     0
 49
-0.5
 74
     0
  0
LTYPE
  5
87
330
5
100
AcDbSymbolTableRecord
100
AcDbLinetypeTableRecord
  2
CENTER2
 70
     0
  3
Center (.5x) ___ _ ___ _ ___ _ 
 72
    65
 73
     4
 40
1.125
 49
0.7500000000000001
 74
     0
 49
-0.125
 74
     0
 49
0.125
 74
     0
 49
-0.125
 74
     0
  0
LTYPE
  5
88
330
5
100
AcDbSymbolTableRecord
100
AcDbLinetypeTableRecord
  2
CENTERX2
 70
     0
  3
Center (2x) ________  __  _____
 72
    65
 73
     4
 40
4.0
 49
2.5
 74
     0
 49
-0.5
 74
     0
 49
0.5
 74
     0
 49
-0.5
 74
     0
  0
LTYPE
  5
89
330
5
100
AcDbSymbolTableRecord
100
AcDbLinetypeTableRecord
  2
DASHDOT2
 70
     0
  3
Dash dot (.5x) _._._._._._._._.
 72
    65
 73
     4
 40
0.5
 49
0.25
 74
     0
 49
-0.125
 74
     0
 49
0.0
 74
     0
 49
-0.125
 74
     0
  0
LTYPE
  5
8A
330
5
100
AcDbSymbolTableRecord
100
AcDbLinetypeTableRecord
  2
DASHDOTX2
 70
     0
  3
Dash dot (2x) ____  .  ____  . 
 72
    65
 73
     4
 40
2.0
 49
1.0
 74
     0
 49
-0.5
 74
     0
 49
0.0
 74
     0
 49
-0.5
 74
     0
  0
LTYPE
  5
8B
330
5
100
AcDbSymbolTableRecord
100
AcDbLinetypeTableRecord
  2
DASHED2
 70
     0
  3
Dashed (.5x) _ _ _ _ _ _ _ _ _ 
 72
    65
 73
     2
 40
0.375
 49
0.25
 74
     0
 49
-0.125
 74
     0
  0
LTYPE
  5
8C
330
5
100
AcDbSymbolTableRecord
100
AcDbLinetypeTableRecord
  2
DASHEDX2
 70
     0
  3
Dashed (2x) ____  ____  ____  _
 72
    65
 73
     2
 40
1.5
 49
1.0
 74
     0
 49
-0.5
 74
     0
  0
LTYPE
  5
8D
330
5
100
AcDbSymbolTableRecord
100
AcDbLinetypeTableRecord
  2
DIVIDE2
 70
     0
  3
Divide (.5x) __..__..__..__..__
 72
    65
 73
     6
 40
0.625
 49
0.25
 74
     0
 49
-0.125
 74
     0
 49
0.0
 74
     0
 49
-0.125
 74
     0
 49
0.0
 74
     0
 49
-0.125
 74
     0
  0
LTYPE
  5
8E
330
5
100
AcDbSymbolTableRecord
100
AcDbLinetypeTableRecord
  2
DIVIDEX2
 70
     0
  3
Divide (2x) ________  .  .  ___
 72
    65
 73
     6
 40
2.5
 49
1.0
 74
     0
 49
-0.5
 74
     0
 49
0.0
 74
     0
 49
-0.5
 74
     0
 49
0.0
 74
     0
 49
-0.5
 74
     0
  0
LTYPE
  5
8F
330
5
100
AcDbSymbolTableRecord
100
AcDbLinetypeTableRecord
  2
DOT2
 70
     0
  3
Dot (.5x) .....................
 72
    65
 73
     2
 40
0.125
 49
0.0
 74
     0
 49
-0.125
 74
     0
  0
LTYPE
  5
90
330
5
100
AcDbSymbolTableRecord
100
AcDbLinetypeTableRecord
  2
DOTX2
 70
     0
  3
Dot (2x) .  .  .  .  .  .  .  .
 72
    65
 73
     2
 40
0.5
 49
0.0
 74
     0
 49
-0.5
 74
     0
  0
LTYPE
  5
91
330
5
100
AcDbSymbolTableRecord
100
AcDbLinetypeTableRecord
  2
HIDDEN2
 70
     0
  3
Hidden (.5x) _ _ _ _ _ _ _ _ _ 
 72
    65
 73
     2
 40
0.1875
 49
0.125
 74
     0
 49
-0.0625
 74
     0
  0
LTYPE
  5
92
330
5
100
AcDbSymbolTableRecord
100
AcDbLinetypeTableRecord
  2
HIDDENX2
 70
     0
  3
Hidden (2x) ____ ____ ____ ____
 72
    65
 73
     2
 40
0.75
 49
0.5
 74
     0
 49
-0.25
 74
     0
  0
LTYPE
  5
93
330
5
100
AcDbSymbolTableRecord
100
AcDbLinetypeTableRecord
  2
PHANTOM2
 70
     0
  3
Phantom (.5x) ___ _ _ ___ _ _ _
 72
    65
 73
     6
 40
1.25
 49
0.6250000000000001
 74
     0
 49
-0.125
 74
     0
 49
0.125
 74
     0
 49
-0.125
 74
     0
 49
0.125
 74
     0
 49
-0.125
 74
     0
  0
LTYPE
  5
94
330
5
100
AcDbSymbolTableRecord
100
AcDbLinetypeTableRecord
  2
PHANTOMX2
 70
     0
  3
Phantom (2x) ____________    __
 72
    65
 73
     6
 40
5.0
 49
2.5
 74
     0
 49
-0.5
 74
     0
 49
0.5
 74
     0
 49
-0.5
 74
     0
 49
0.5
 74
     0
 49
-0.5
 74
     0
  0
LTYPE
  5
95
330
5
100
AcDbSymbolTableRecord
100
AcDbLinetypeTableRecord
  2
DOTS
 70
     0
  3
Dots - - - - - - - - - - - - - 
 72
    65
 73
     2
 40
0.1
 49
0.05
 74
     0
 49
-0.05
 74
     0
  0
LTYPE
  5
96
330
5
100
AcDbSymbolTableRecord
100
AcDbLinetypeTableRecord
  2
ACAD_ISO02W100
 70
     0
  3
__ __ __ __ __ __ __ __ __ __ _
 72
    65
 73
     2
 40
15.0
 49
12.0
 74
     0
 49
-3.0
 74
     0
  0
LTYPE
  5
97
330
5
100
AcDbSymbolTableRecord
100
AcDbLinetypeTableRecord
  2
ACAD_ISO03W100
 70
     0
  3
__    __    __    __    __    _
 72
    65
 73
     2
 40
30.0
 49
12.0
 74
     0
 49
-18.0
 74
     0
  0
LTYPE
  5
98
330
5
100
AcDbSymbolTableRecord
100
AcDbLinetypeTableRecord
  2
ACAD_ISO04W100
 70
     0
  3
____ . ____ . ____ . ____ . ___
 72
    65
 73
     4
 40
30.5
 49
24.0
 74
     0
 49
-3.0
 74
     0
 49
0.5
 74
     0
 49
-3.0
 74
     0
  0
LTYPE
  5
99
330
5
100
AcDbSymbolTableRecord
100
AcDbLinetypeTableRecord
  2
ACAD_ISO05W100
 70
     0
  3
____ .. ____ .. ____ .. ____ ..
 72
    65
 73
     6
 40
34.0
 49
24.0
 74
     0
 49
-3.0
 74
     0
 49
0.5
 74
     0
 49
-3.0
 74
     0
 49
0.5
 74
     0
 49
-3.0
 74
     0
  0
LTYPE
  5
9A
330
5
100
AcDbSymbolTableRecord
100
AcDbLinetypeTableRecord
  2
ACAD_ISO06W100
 70
     0
  3
____ ... ____ ... ____ ... ____
 72
    65
 73
     6
 40
34.0
 49
24.0
 74
     0
 49
-3.0
 74
     0
 49
0.5
 74
     0
 49
-3.0
 74
     0
 49
0.5
 74
     0
 49
-3.0
 74
     0
  0
LTYPE
  5
9B
330
5
100
AcDbSymbolTableRecord
100
AcDbLinetypeTableRecord
  2
ACAD_ISO07W100
 70
     0
  3
. . . . . . . . . . . . . . . .
 72
    65
 73
     2
 40
3.5
 49
0.5
 74
     0
 49
-3.0
 74
     0
  0
LTYPE
  5
9C
330
5
100
AcDbSymbolTableRecord
100
AcDbLinetypeTableRecord
  2
ACAD_ISO08W100
 70
     0
  3
____ __ ____ __ ____ __ ____ __
 72
    65
 73
     4
 40
36.0
 49
24.0
 74
     0
 49
-3.0
 74
     0
 49
6.0
 74
     0
 49
-3.0
 74
     0
  0
LTYPE
  5
9D
330
5
100
AcDbSymbolTableRecord
100
AcDbLinetypeTableRecord
  2
ACAD_ISO09W100
 70
     0
  3
____ __ __ ____ __ __ ____ __ _
 72
    65
 73
     6
 40
45.0
 49
24.0
 74
     0
 49
-3.0
 74
     0
 49
6.0
 74
     0
 49
-3.0
 74
     0
 49
6.0
 74
     0
 49
-3.0
 74
     0
  0
LTYPE
  5
9E
330
5
100
AcDbSymbolTableRecord
100
AcDbLinetypeTableRecord
  2
ACAD_ISO10W100
 70
     0
  3
__ . __ . __ . __ . __ . __ . _
 72
    65
 73
     4
 40
18.5
 49
12.0
 74
     0
 49
-3.0
 74
     0
 49
0.5
 74
     0
 49
-3.0
 74
     0
  0
LTYPE
  5
9F
330
5
100
AcDbSymbolTableRecord
100
AcDbLinetypeTableRecord
  2
ACAD_ISO11W100
 70
     0
  3
__ __ . __ __ . __ __ . __ __ .
 72
    65
 73
     6
 40
33.5
 49
12.0
 74
     0
 49
-3.0
 74
     0
 49
12.0
 74
     0
 49
-3.0
 74
     0
 49
0.5
 74
     0
 49
-3.0
 74
     0
  0
LTYPE
  5
A0
330
5
100
AcDbSymbolTableRecord
100
AcDbLinetypeTableRecord
  2
ACAD_ISO12W100
 70
     0
  3
__ . . __ . . __ . . __ . . __ 
 72
    65
 73
     6
 40
22.0
 49
12.0
 74
     0
 49
-3.0
 74
     0
 49
0.5
 74
     0
 49
-3.0
 74
     0
 49
0.5
 74
     0
 49
-3.0
 74
     0
  0
LTYPE
  5
A1
330
5
100
AcDbSymbolTableRecord
100
AcDbLinetypeTableRecord
  2
ACAD_ISO13W100
 70
     0
  3
__ __ . . __ __ . . __ __ . . _
 72
    65
 73
     6
 40
33.5
 49
12.0
 74
     0
 49
-3.0
 74
     0
 49
12.0
 74
     0
 49
-3.0
 74
     0
 49
0.5
 74
     0
 49
-3.0
 74
     0
  0
LTYPE
  5
A2
330
5
100
AcDbSymbolTableRecord
100
AcDbLinetypeTableRecord
  2
ACAD_ISO14W100
 70
     0
  3
__ . . . __ . . . __ . . . __ .
 72
    65
 73
     6
 40
22.0
 49
12.0
 74
     0
 49
-3.0
 74
     0
 49
0.5
 74
     0
 49
-3.0
 74
     0
 49
0.5
 74
     0
 49
-3.0
 74
     0
  0
LTYPE
  5
A3
330
5
100
AcDbSymbolTableRecord
100
AcDbLinetypeTableRecord
  2
ACAD_ISO15W100
 70
     0
  3
__ __ . . . __ __ . . . __ __ .
 72
    65
 73
     6
 40
33.5
 49
12.0
 74
     0
 49
-3.0
 74
     0
 49
12.0
 74
     0
 49
-3.0
 74
     0
 49
0.5
 74
     0
 49
-3.0
 74
     0
  0
ENDTAB
  0
TABLE
  2
LAYER
  5
2
330
0
100
AcDbSymbolTable
 70
     5
  0
LAYER
  5
5C
330
2
100
AcDbSymbolTableRecord
100
AcDbLayerTableRecord
  2
0
 70
     0
 62
     7
  6
Continuous
370
    -3
390
F
347
21
  0
LAYER
  5
A4
330
2
100
AcDbSymbolTableRecord
100
AcDbLayerTableRecord
  2
1
 70
     0
 62
     7
  6
Continuous
370
    -3
390
F
347
21
  0
LAYER
  5
A5
330
2
100
AcDbSymbolTableRecord
100
AcDbLayerTableRecord
  2
BESCHRIFTUNG
 70
     0
 62
     7
  6
Continuous
370
    -3
390
F
347
21
  0
LAYER
  5
A6
330
2
100
AcDbSymbolTableRecord
100
AcDbLayerTableRecord
  2
LÖTPADS-LEITERBAHNEN
 70
     1
 62
     7
  6
Continuous
370
    -3
390
F
347
21
  0
LAYER
  5
A7
330
2
100
AcDbSymbolTableRecord
100
AcDbLayerTableRecord
  2
PCB
 70
     0
 62
     7
  6
Continuous
370
    -3
390
F
347
21
  0
ENDTAB
  0
TABLE
  2
STYLE
  5
3
330
0
100
AcDbSymbolTable
 70
     6
  0
STYLE
  5
5D
330
3
100
AcDbSymbolTableRecord
100
AcDbTextStyleTableRecord
  2
Standard
 70
     0
 40
0.0
 41
1.0
 50
0.0
 71
     0
 42
0.6666666666666666
  3
txt
  4

  0
STYLE
  5
62
330
3
100
AcDbSymbolTableRecord
100
AcDbTextStyleTableRecord
  2
Annotative
 70
     0
 40
0.0
 41
1.0
 50
0.0
 71
     0
 42
0.2
  3
txt
  4

1001
AcadAnnotative
1000
AnnotativeData
1002
{
1070
     1
1070
     1
1002
}
  0
STYLE
  5
A8
330
3
100
AcDbSymbolTableRecord
100
AcDbTextStyleTableRecord
  2
ITALIC
 70
     0
 40
0.0
 41
1.0
 50
0.0
 71
     0
 42
0.6666666666666666
  3
ITALIC
  4

  0
STYLE
  5
A9
330
3
100
AcDbSymbolTableRecord
100
AcDbTextStyleTableRecord
  2
SIMPLEX
 70
     0
 40
0.0
 41
1.0
 50
0.0
 71
     0
 42
0.6666666666666666
  3
SIMPLEX
  4

  0
STYLE
  5
AA
330
3
100
AcDbSymbolTableRecord
100
AcDbTextStyleTableRecord
  2
COMPLEX
 70
     0
 40
0.0
 41
1.0
 50
0.0
 71
     0
 42
0.6666666666666666
  3
COMPLEX
  4

  0
STYLE
  5
E7
330
3
100
AcDbSymbolTableRecord
100
AcDbTextStyleTableRecord
  2
ARIAL
 70
     0
 40
0.0
 41
1.0
 50
0.0
 71
     0
 42
0.6666666666666666
  3
arial.ttf
  4

1001
ACAD
1000
Arial
1071
        0
  0
ENDTAB
  0
TABLE
  2
VIEW
  5
6
330
0
100
AcDbSymbolTable
 70
     0
  0
ENDTAB
  0
TABLE
  2
UCS
  5
7
330
0
100
AcDbSymbolTable
 70
     0
  0
ENDTAB
  0
TABLE
  2
APPID
  5
9
330
0
100
AcDbSymbolTable
 70
     3
  0
APPID
  5
5E
330
9
100
AcDbSymbolTableRecord
100
AcDbRegAppTableRecord
  2
ACAD
 70
     0
  0
APPID
  5
66
330
9
100
AcDbSymbolTableRecord
100
AcDbRegAppTableRecord
  2
AcadAnnotative
 70
     0
  0
APPID
  5
70
330
9
100
AcDbSymbolTableRecord
100
AcDbRegAppTableRecord
  2
ACAD_MLEADERVER
 70
     0
  0
ENDTAB
  0
TABLE
  2
DIMSTYLE
  5
A
330
0
100
AcDbSymbolTable
 70
     2
100
AcDbDimStyleTable
 71
     0
  0
DIMSTYLE
105
60
330
A
100
AcDbSymbolTableRecord
100
AcDbDimStyleTableRecord
  2
Standard
 70
     0
340
5D
  0
DIMSTYLE
105
61
330
A
100
AcDbSymbolTableRecord
100
AcDbDimStyleTableRecord
  2
Annotative
 70
     0
340
5D
1001
AcadAnnotative
1000
AnnotativeData
1002
{
1070
     1
1070
     1
1002
}
  0
ENDTAB
  0
TABLE
  2
BLOCK_RECORD
  5
1
330
0
100
AcDbSymbolTable
 70
     2
  0
BLOCK_RECORD
  5
75
330
1
100
AcDbSymbolTableRecord
100
AcDbBlockTableRecord
  2
*Model_Space
340
78
 70
     0
280
     1
281
     0
  0
BLOCK_RECORD
  5
71
330
1
100
AcDbSymbolTableRecord
100
AcDbBlockTableRecord
  2
*Paper_Space
340
74
 70
     0
280
     1
281
     0
  0
BLOCK_RECORD
  5
79
330
1
100
AcDbSymbolTableRecord
100
AcDbBlockTableRecord
  2
*Paper_Space0
340
7C
 70
     0
280
     1
281
     0
  0
BLOCK_RECORD
  5
FB
330
1
100
AcDbSymbolTableRecord
100
AcDbBlockTableRecord
  2
ARROW
340
0
102
{BLKREFS
331
100
331
101
331
107
331
108
331
10E
331
10F
331
115
331
116
331
11C
331
11D
331
123
331
124
331
12E
331
12F
331
135
331
136
331
13C
331
13D
331
143
331
144
331
14D
331
14E
331
154
331
155
331
15B
331
15C
331
162
331
163
102
}
 70
     0
280
     1
281
     0
  0
ENDTAB
  0
ENDSEC
  0
SECTION
  2
BLOCKS
  0
BLOCK
  5
76
330
75
100
AcDbEntity
  8
0
100
AcDbBlockBegin
  2
*Model_Space
 70
     0
 10
0.0
 20
0.0
 30
0.0
  3
*Model_Space
  1

  0
ENDBLK
  5
77
330
75
100
AcDbEntity
  8
0
100
AcDbBlockEnd
  0
BLOCK
  5
72
330
71
100
AcDbEntity
 67
     1
  8
0
100
AcDbBlockBegin
  2
*Paper_Space
 70
     0
 10
0.0
 20
0.0
 30
0.0
  3
*Paper_Space
  1

  0
ENDBLK
  5
73
330
71
100
AcDbEntity
 67
     1
  8
0
100
AcDbBlockEnd
  0
BLOCK
  5
7A
330
79
100
AcDbEntity
 67
     1
  8
0
100
AcDbBlockBegin
  2
*Paper_Space0
 70
     0
 10
0.0
 20
0.0
 30
0.0
  3
*Paper_Space0
  1

  0
ENDBLK
  5
7B
330
79
100
AcDbEntity
 67
     1
  8
0
100
AcDbBlockEnd
  0
BLOCK
  5
FE
330
FB
100
AcDbEntity
  8
0
 62
     5
100
AcDbBlockBegin
  2
ARROW
 70
     0
 10
0.0
 20
0.0
 30
0.0
  3
ARROW
  1

  0
LWPOLYLINE
  5
FC
102
{ACAD_REACTORS
330
FD
102
}
330
FB
100
AcDbEntity
  8
1
  6
Continuous
 62
     0
100
AcDbPolyline
 90
        3
 70
     1
 43
0.0
 10
0.0
 20
0.0
 10
12.7
 20
12.7
 10
12.7
 20
-12.7
  0
HATCH
  5
FD
330
FB
100
AcDbEntity
  8
1
  6
Continuous
 62
     0
100
AcDbHatch
 10
0.0
 20
0.0
 30
0.0
210
0.0
220
0.0
230
1.0
  2
SOLID
 70
     1
 71
     1
 91
        1
 92
        1
 93
        3
 72
     1
 10
0.0
 20
0.0
 11
12.7
 21
12.7
 72
     1
 10
12.7
 20
12.7
 11
12.7
 21
-12.7
 72
     1
 10
12.7
 20
-12.7
 11
0.0
 21
0.0
 97
        1
330
FC
 75
     0
 76
     1
 98
        1
 10
0.0
 20
0.0
450
        0
451
        0
460
0.0
461
0.0
452
        0
462
0.0
453
        0
470

  0
ENDBLK
  5
FF
330
FB
100
AcDbEntity
  8
0
 62
     5
100
AcDbBlockEnd
  0
ENDSEC
  0
SECTION
  2
ENTITIES
  0
CIRCLE
  5
AB
330
75
100
AcDbEntity
  8
PCB
  6
Continuous
 62
     7
100
AcDbCircle
 10
30.0
 20
34.49999999999998
 30
0.0
 40
1.17500000000001
  0
CIRCLE
  5
AC
330
75
100
AcDbEntity
  8
PCB
  6
Continuous
 62
     7
100
AcDbCircle
 10
15.0
 20
34.49999999999998
 30
0.0
 40
1.17500000000001
  0
CIRCLE
  5
AD
330
75
100
AcDbEntity
  8
PCB
  6
Continuous
 62
     7
100
AcDbCircle
 10
24.26776695300002
 20
29.76776695300003
 30
0.0
 40
0.6500000000000341
  0
CIRCLE
  5
AE
330
75
100
AcDbEntity
  8
PCB
  6
Continuous
 62
     7
100
AcDbCircle
 10
20.732233047
 20
29.76776695300003
 30
0.0
 40
0.6500000000000057
  0
CIRCLE
  5
AF
330
75
100
AcDbEntity
  8
PCB
  6
Continuous
 62
     7
100
AcDbCircle
 10
24.26776695300002
 20
26.23223304700001
 30
0.0
 40
0.6500000000000057
  0
CIRCLE
  5
B0
330
75
100
AcDbEntity
  8
PCB
  6
Continuous
 62
     7
100
AcDbCircle
 10
20.732233047
 20
26.23223304700001
 30
0.0
 40
0.6500000000000057
  0
CIRCLE
  5
B1
330
75
100
AcDbEntity
  8
PCB
  6
Continuous
 62
     7
100
AcDbCircle
 10
30.0
 20
28.00000000000002
 30
0.0
 40
1.400000000000005
  0
CIRCLE
  5
B2
330
75
100
AcDbEntity
  8
PCB
  6
Continuous
 62
     7
100
AcDbCircle
 10
15.0
 20
28.00000000000002
 30
0.0
 40
1.399999999999977
  0
CIRCLE
  5
B3
330
75
100
AcDbEntity
  8
PCB
  6
Continuous
 62
     7
100
AcDbCircle
 10
85.0
 20
34.49999999999998
 30
0.0
 40
1.17500000000001
  0
CIRCLE
  5
B4
330
75
100
AcDbEntity
  8
PCB
  6
Continuous
 62
     7
100
AcDbCircle
 10
70.0
 20
34.49999999999998
 30
0.0
 40
1.17500000000001
  0
CIRCLE
  5
B5
330
75
100
AcDbEntity
  8
PCB
  6
Continuous
 62
     7
100
AcDbCircle
 10
79.267766953
 20
29.76776695300003
 30
0.0
 40
0.6500000000000341
  0
CIRCLE
  5
B6
330
75
100
AcDbEntity
  8
PCB
  6
Continuous
 62
     7
100
AcDbCircle
 10
75.732233047
 20
29.76776695300003
 30
0.0
 40
0.6500000000000057
  0
CIRCLE
  5
B7
330
75
100
AcDbEntity
  8
PCB
  6
Continuous
 62
     7
100
AcDbCircle
 10
79.267766953
 20
26.23223304700001
 30
0.0
 40
0.6499999999999773
  0
CIRCLE
  5
B8
330
75
100
AcDbEntity
  8
PCB
  6
Continuous
 62
     7
100
AcDbCircle
 10
75.732233047
 20
26.23223304700001
 30
0.0
 40
0.6500000000000057
  0
CIRCLE
  5
B9
330
75
100
AcDbEntity
  8
PCB
  6
Continuous
 62
     7
100
AcDbCircle
 10
57.5
 20
34.49999999999998
 30
0.0
 40
1.17500000000001
  0
CIRCLE
  5
BA
330
75
100
AcDbEntity
  8
PCB
  6
Continuous
 62
     7
100
AcDbCircle
 10
42.49999999999999
 20
34.49999999999998
 30
0.0
 40
1.17500000000001
  0
CIRCLE
  5
BB
330
75
100
AcDbEntity
  8
PCB
  6
Continuous
 62
     7
100
AcDbCircle
 10
51.76776695299999
 20
29.76776695300003
 30
0.0
 40
0.6500000000000341
  0
CIRCLE
  5
BC
330
75
100
AcDbEntity
  8
PCB
  6
Continuous
 62
     7
100
AcDbCircle
 10
48.23223304700001
 20
29.76776695300003
 30
0.0
 40
0.6500000000000057
  0
CIRCLE
  5
BD
330
75
100
AcDbEntity
  8
PCB
  6
Continuous
 62
     7
100
AcDbCircle
 10
51.76776695299999
 20
26.23223304700001
 30
0.0
 40
0.6500000000000057
  0
CIRCLE
  5
BE
330
75
100
AcDbEntity
  8
PCB
  6
Continuous
 62
     7
100
AcDbCircle
 10
48.23223304700001
 20
26.23223304700001
 30
0.0
 40
0.6500000000000057
  0
CIRCLE
  5
BF
330
75
100
AcDbEntity
  8
PCB
  6
Continuous
 62
     7
100
AcDbCircle
 10
85.0
 20
28.00000000000002
 30
0.0
 40
1.400000000000005
  0
CIRCLE
  5
C0
330
75
100
AcDbEntity
  8
PCB
  6
Continuous
 62
     7
100
AcDbCircle
 10
57.5
 20
28.00000000000002
 30
0.0
 40
1.400000000000005
  0
CIRCLE
  5
C1
330
75
100
AcDbEntity
  8
PCB
  6
Continuous
 62
     7
100
AcDbCircle
 10
42.49999999999999
 20
28.00000000000002
 30
0.0
 40
1.400000000000005
  0
CIRCLE
  5
C2
330
75
100
AcDbEntity
  8
PCB
  6
Continuous
 62
     7
100
AcDbCircle
 10
70.0
 20
28.00000000000002
 30
0.0
 40
1.399999999999977
  0
LINE
  5
C3
330
75
100
AcDbEntity
  8
PCB
  6
Continuous
 62
     7
100
AcDbLine
 10
88.0
 20
13.0
 30
0.0
 11
12.0
 21
13.0
 31
0.0
  0
LINE
  5
C4
330
75
100
AcDbEntity
  8
PCB
  6
Continuous
 62
     7
100
AcDbLine
 10
88.0
 20
42.99999999999998
 30
0.0
 11
88.0
 21
13.0
 31
0.0
  0
LINE
  5
C5
330
75
100
AcDbEntity
  8
PCB
  6
Continuous
 62
     7
100
AcDbLine
 10
12.0
 20
42.99999999999998
 30
0.0
 11
88.0
 21
42.99999999999998
 31
0.0
  0
LINE
  5
C6
330
75
100
AcDbEntity
  8
PCB
  6
Continuous
 62
     7
100
AcDbLine
 10
12.0
 20
13.0
 30
0.0
 11
12.0
 21
42.99999999999998
 31
0.0
  0
CIRCLE
  5
C7
330
75
100
AcDbEntity
  8
LÖTPADS-LEITERBAHNEN
  6
Continuous
 62
     1
100
AcDbCircle
 10
20.732233047
 20
29.76776695300003
 30
0.0
 40
1.249999999999999
  0
CIRCLE
  5
C8
330
75
100
AcDbEntity
  8
LÖTPADS-LEITERBAHNEN
  6
Continuous
 62
     1
100
AcDbCircle
 10
24.26776695300002
 20
29.76776695300003
 30
0.0
 40
1.249999999999999
  0
CIRCLE
  5
C9
330
75
100
AcDbEntity
  8
LÖTPADS-LEITERBAHNEN
  6
Continuous
 62
     1
100
AcDbCircle
 10
20.732233047
 20
26.23223304700001
 30
0.0
 40
1.249999999999999
  0
CIRCLE
  5
CA
330
75
100
AcDbEntity
  8
LÖTPADS-LEITERBAHNEN
  6
Continuous
 62
     1
100
AcDbCircle
 10
24.26776695300002
 20
26.23223304700001
 30
0.0
 40
1.249999999999999
  0
CIRCLE
  5
CB
330
75
100
AcDbEntity
  8
LÖTPADS-LEITERBAHNEN
  6
Continuous
 62
     1
100
AcDbCircle
 10
48.23223304700001
 20
29.76776695300003
 30
0.0
 40
1.249999999999999
  0
CIRCLE
  5
CC
330
75
100
AcDbEntity
  8
LÖTPADS-LEITERBAHNEN
  6
Continuous
 62
     1
100
AcDbCircle
 10
51.76776695300003
 20
29.76776695300003
 30
0.0
 40
1.249999999999999
  0
CIRCLE
  5
CD
330
75
100
AcDbEntity
  8
LÖTPADS-LEITERBAHNEN
  6
Continuous
 62
     1
100
AcDbCircle
 10
48.23223304700001
 20
26.23223304700001
 30
0.0
 40
1.249999999999999
  0
CIRCLE
  5
CE
330
75
100
AcDbEntity
  8
LÖTPADS-LEITERBAHNEN
  6
Continuous
 62
     1
100
AcDbCircle
 10
51.76776695300003
 20
26.23223304700001
 30
0.0
 40
1.249999999999999
  0
CIRCLE
  5
CF
330
75
100
AcDbEntity
  8
LÖTPADS-LEITERBAHNEN
  6
Continuous
 62
     1
100
AcDbCircle
 10
75.732233047
 20
29.76776695300003
 30
0.0
 40
1.249999999999999
  0
CIRCLE
  5
D0
330
75
100
AcDbEntity
  8
LÖTPADS-LEITERBAHNEN
  6
Continuous
 62
     1
100
AcDbCircle
 10
79.26776695300002
 20
29.76776695300003
 30
0.0
 40
1.249999999999999
  0
CIRCLE
  5
D1
330
75
100
AcDbEntity
  8
LÖTPADS-LEITERBAHNEN
  6
Continuous
 62
     1
100
AcDbCircle
 10
75.732233047
 20
26.23223304700001
 30
0.0
 40
1.249999999999999
  0
CIRCLE
  5
D2
330
75
100
AcDbEntity
  8
LÖTPADS-LEITERBAHNEN
  6
Continuous
 62
     1
100
AcDbCircle
 10
79.26776695300002
 20
26.23223304700001
 30
0.0
 40
1.249999999999999
  0
LWPOLYLINE
  5
D3
330
75
100
AcDbEntity
  8
LÖTPADS-LEITERBAHNEN
  6
Continuous
 62
     1
100
AcDbPolyline
 90
        4
 70
     1
 43
0.0
 10
15.5
 20
17.50000000000006
 10
20.49999999999999
 20
17.50000000000006
 10
20.49999999999999
 20
22.50000000000005
 10
15.5
 20
22.50000000000005
  0
LWPOLYLINE
  5
D4
330
75
100
AcDbEntity
  8
LÖTPADS-LEITERBAHNEN
  6
Continuous
 62
     1
100
AcDbPolyline
 90
        4
 70
     1
 43
0.0
 10
24.49999999999996
 20
17.50000000000006
 10
29.49999999999997
 20
17.50000000000006
 10
29.49999999999997
 20
22.50000000000005
 10
24.49999999999996
 20
22.50000000000005
  0
LWPOLYLINE
  5
D5
330
75
100
AcDbEntity
  8
LÖTPADS-LEITERBAHNEN
  6
Continuous
 62
     1
100
AcDbPolyline
 90
        4
 70
     1
 43
0.0
 10
43.00000000000001
 20
17.50000000000006
 10
48.0
 20
17.50000000000006
 10
48.0
 20
22.50000000000005
 10
43.00000000000001
 20
22.50000000000005
  0
LWPOLYLINE
  5
D6
330
75
100
AcDbEntity
  8
LÖTPADS-LEITERBAHNEN
  6
Continuous
 62
     1
100
AcDbPolyline
 90
        4
 70
     1
 43
0.0
 10
51.99999999999999
 20
17.50000000000001
 10
57.00000000000001
 20
17.50000000000001
 10
57.00000000000001
 20
22.5
 10
51.99999999999999
 20
22.5
  0
LWPOLYLINE
  5
D7
330
75
100
AcDbEntity
  8
LÖTPADS-LEITERBAHNEN
  6
Continuous
 62
     1
100
AcDbPolyline
 90
        3
 70
     0
 43
0.9999999999999998
 10
45.50000000000001
 20
22.50000000000005
 10
45.50000000000001
 20
23.50000000000004
 10
47.34834957051681
 20
25.34834957051685
  0
LWPOLYLINE
  5
D8
330
75
100
AcDbEntity
  8
LÖTPADS-LEITERBAHNEN
  6
Continuous
 62
     1
100
AcDbPolyline
 90
        3
 70
     0
 43
0.9999999999999998
 10
54.49999999999996
 20
22.50000000000005
 10
54.49999999999996
 20
23.50000000000004
 10
52.65165042948316
 20
25.34834957051685
  0
LWPOLYLINE
  5
D9
330
75
100
AcDbEntity
  8
LÖTPADS-LEITERBAHNEN
  6
Continuous
 62
     1
100
AcDbPolyline
 90
        3
 70
     0
 43
0.9999999999999998
 10
18.0
 20
22.50000000000005
 10
18.0
 20
23.50000000000004
 10
19.8483495705168
 20
25.34834957051685
  0
LWPOLYLINE
  5
DA
330
75
100
AcDbEntity
  8
LÖTPADS-LEITERBAHNEN
  6
Continuous
 62
     1
100
AcDbPolyline
 90
        3
 70
     0
 43
0.9999999999999998
 10
26.99999999999996
 20
22.50000000000005
 10
26.99999999999996
 20
23.50000000000004
 10
25.15165042948315
 20
25.34834957051685
  0
LWPOLYLINE
  5
DB
330
75
100
AcDbEntity
  8
LÖTPADS-LEITERBAHNEN
  6
Continuous
 62
     1
100
AcDbPolyline
 90
        3
 70
     0
 43
0.9999999999999998
 10
26.99999999999996
 20
17.50000000000006
 10
26.99999999999996
 20
15.00000000000004
 10
32.99999999999997
 20
15.00000000000004
  0
LWPOLYLINE
  5
DC
330
75
100
AcDbEntity
  8
LÖTPADS-LEITERBAHNEN
  6
Continuous
 62
     1
100
AcDbPolyline
 90
        3
 70
     0
 43
0.9999999999999998
 10
54.49999999999999
 20
17.50000000000001
 10
54.49999999999999
 20
14.99999999999999
 10
36.00000000000001
 20
14.99999999999999
  0
LWPOLYLINE
  5
DD
330
75
100
AcDbEntity
  8
LÖTPADS-LEITERBAHNEN
  6
Continuous
 62
     1
100
AcDbPolyline
 90
        4
 70
     1
 43
0.0
 10
33.0
 20
14.00000000000004
 10
34.0
 20
14.00000000000004
 10
34.0
 20
16.00000000000004
 10
33.0
 20
16.00000000000004
  0
LWPOLYLINE
  5
DE
330
75
100
AcDbEntity
  8
LÖTPADS-LEITERBAHNEN
  6
Continuous
 62
     1
100
AcDbPolyline
 90
        4
 70
     1
 43
0.0
 10
35.0
 20
14.00000000000004
 10
36.0
 20
14.00000000000004
 10
36.0
 20
16.00000000000004
 10
35.0
 20
16.00000000000004
  0
LWPOLYLINE
  5
DF
330
75
100
AcDbEntity
  8
LÖTPADS-LEITERBAHNEN
  6
Continuous
 62
     1
100
AcDbPolyline
 90
        3
 70
     0
 43
0.9999999999999998
 10
73.0
 20
22.50000000000005
 10
73.0
 20
23.50000000000004
 10
74.8483495705168
 20
25.34834957051685
  0
LWPOLYLINE
  5
E0
330
75
100
AcDbEntity
  8
LÖTPADS-LEITERBAHNEN
  6
Continuous
 62
     1
100
AcDbPolyline
 90
        3
 70
     0
 43
0.9999999999999998
 10
81.99999999999995
 20
22.50000000000005
 10
81.99999999999995
 20
23.50000000000004
 10
80.15165042948316
 20
25.34834957051685
  0
LWPOLYLINE
  5
E1
330
75
100
AcDbEntity
  8
LÖTPADS-LEITERBAHNEN
  6
Continuous
 62
     1
100
AcDbPolyline
 90
        4
 70
     1
 43
0.0
 10
70.5
 20
17.50000000000006
 10
75.5
 20
17.50000000000006
 10
75.5
 20
22.50000000000005
 10
70.5
 20
22.50000000000005
  0
LWPOLYLINE
  5
E2
330
75
100
AcDbEntity
  8
LÖTPADS-LEITERBAHNEN
  6
Continuous
 62
     1
100
AcDbPolyline
 90
        4
 70
     1
 43
0.0
 10
79.49999999999999
 20
17.50000000000001
 10
84.50000000000001
 20
17.50000000000001
 10
84.50000000000001
 20
22.5
 10
79.49999999999999
 20
22.5
  0
LWPOLYLINE
  5
E3
330
75
100
AcDbEntity
  8
LÖTPADS-LEITERBAHNEN
  6
Continuous
 62
     1
100
AcDbPolyline
 90
        4
 70
     1
 43
0.0
 10
42.99999999999999
 20
37.0
 10
48.0
 20
37.0
 10
48.0
 20
41.99999999999999
 10
42.99999999999999
 20
41.99999999999999
  0
LWPOLYLINE
  5
E4
330
75
100
AcDbEntity
  8
LÖTPADS-LEITERBAHNEN
  6
Continuous
 62
     1
100
AcDbPolyline
 90
        4
 70
     1
 43
0.0
 10
51.99999999999999
 20
37.0
 10
56.99999999999999
 20
37.0
 10
56.99999999999999
 20
41.99999999999999
 10
51.99999999999999
 20
41.99999999999999
  0
LWPOLYLINE
  5
E5
330
75
100
AcDbEntity
  8
LÖTPADS-LEITERBAHNEN
  6
Continuous
 62
     1
100
AcDbPolyline
 90
        3
 70
     0
 43
0.9999999999999998
 10
79.26776695300002
 20
31.01776695300006
 10
79.26776695300002
 20
39.50000000000002
 10
56.99999999999999
 20
39.50000000000002
  0
LWPOLYLINE
  5
E6
330
75
100
AcDbEntity
  8
LÖTPADS-LEITERBAHNEN
  6
Continuous
 62
     1
100
AcDbPolyline
 90
        4
 70
     0
 43
0.9999999999999998
 10
74.8483495705168
 20
30.65165042948318
 10
74.0
 20
31.50000000000003
 10
55.49999999999998
 20
31.50000000000003
 10
48.0
 20
37.0
  0
TEXT
  5
E8
330
75
100
AcDbEntity
  8
BESCHRIFTUNG
  6
Continuous
 62
     5
100
AcDbText
 10
12.0
 20
62.16666666666666
 30
0.0
 40
1.666666666666666
  1
Ansicht auf die Lötseite (Leiterbahnen und Lötpads ausgeblendet)
  7
ARIAL
 11
12.0
 21
63.0
 31
0.0
100
AcDbText
 73
     2
  0
TEXT
  5
EA
330
75
100
AcDbEntity
  8
LÖTPADS-LEITERBAHNEN
  6
Continuous
 62
     1
100
AcDbText
 10
16.29126875852661
 20
14.00000000000004
 30
0.0
 40
1.999999999999999
  1
S1
  7
ARIAL
 72
     1
 11
18.0
 21
15.00000000000004
 31
0.0
100
AcDbText
 73
     2
  0
TEXT
  5
EB
330
75
100
AcDbEntity
  8
LÖTPADS-LEITERBAHNEN
  6
Continuous
 62
     1
100
AcDbText
 10
38.29126875852661
 20
19.00000000000003
 30
0.0
 40
1.999999999999999
  1
S2
  7
ARIAL
 72
     1
 11
40.0
 21
20.00000000000003
 31
0.0
100
AcDbText
 73
     2
  0
TEXT
  5
EC
330
75
100
AcDbEntity
  8
LÖTPADS-LEITERBAHNEN
  6
Continuous
 62
     1
100
AcDbText
 10
74.08390177353343
 20
14.00000000000004
 30
0.0
 40
1.999999999999999
  1
Flash
  7
ARIAL
 72
     1
 11
77.5
 21
15.00000000000004
 31
0.0
100
AcDbText
 73
     2
  0
TEXT
  5
ED
330
75
100
AcDbEntity
  8
LÖTPADS-LEITERBAHNEN
  6
Continuous
 62
     1
100
AcDbText
 10
30.13301500682128
 20
38.50000000000002
 30
0.0
 40
1.999999999999999
  1
Buzzer
  7
ARIAL
 72
     1
 11
34.5
 21
39.50000000000002
 31
0.0
100
AcDbText
 73
     2
  0
TEXT
  5
EE
330
75
100
AcDbEntity
  8
BESCHRIFTUNG
  6
Continuous
 62
     5
100
AcDbText
 10
40.11914506593906
 20
36.66666666666666
 30
0.0
 40
0.6666666666666666
  1
B: 2,36 mm
  7
ARIAL
 72
     1
 11
42.49999999999999
 21
37.0
 31
0.0
100
AcDbText
 73
     2
  0
TEXT
  5
EF
330
75
100
AcDbEntity
  8
BESCHRIFTUNG
  6
Continuous
 62
     5
100
AcDbText
 10
55.11914506593907
 20
36.66666666666666
 30
0.0
 40
0.6666666666666666
  1
B: 2,36 mm
  7
ARIAL
 72
     1
 11
57.5
 21
37.0
 31
0.0
100
AcDbText
 73
     2
  0
TEXT
  5
F0
330
75
100
AcDbEntity
  8
BESCHRIFTUNG
  6
Continuous
 62
     5
100
AcDbText
 10
40.11914506593906
 20
24.66666666666667
 30
0.0
 40
0.6666666666666666
  1
B: 2,80 mm
  7
ARIAL
 72
     1
 11
42.49999999999999
 21
25.0
 31
0.0
100
AcDbText
 73
     2
  0
TEXT
  5
F1
330
75
100
AcDbEntity
  8
BESCHRIFTUNG
  6
Continuous
 62
     5
100
AcDbText
 10
55.11914506593907
 20
24.66666666666667
 30
0.0
 40
0.6666666666666666
  1
B: 2,80 mm
  7
ARIAL
 72
     1
 11
57.5
 21
25.0
 31
0.0
100
AcDbText
 73
     2
  0
TEXT
  5
F2
330
75
100
AcDbEntity
  8
BESCHRIFTUNG
  6
Continuous
 62
     5
100
AcDbText
 10
46.86857662573897
 20
27.66666666666669
 30
0.0
 40
0.6666666666666666
  1
B: 4 x 1,30 mm
  7
ARIAL
 72
     1
 11
50.0
 21
28.00000000000002
 31
0.0
100
AcDbText
 73
     2
  0
LWPOLYLINE
  5
F3
330
75
100
AcDbEntity
  8
BESCHRIFTUNG
  6
HIDDEN
 62
     5
100
AcDbPolyline
 90
        2
 70
     0
 43
0.0
 10
8.999999999999998
 20
28.00000000000002
 10
45.99999999999999
 20
28.00000000000002
  0
LWPOLYLINE
  5
F4
330
75
100
AcDbEntity
  8
BESCHRIFTUNG
  6
HIDDEN
 62
     5
100
AcDbPolyline
 90
        2
 70
     0
 43
0.0
 10
8.999999999999998
 20
34.49999999999998
 10
90.99999999999999
 20
34.49999999999998
  0
LWPOLYLINE
  5
F5
330
75
100
AcDbEntity
  8
BESCHRIFTUNG
  6
HIDDEN
 62
     5
100
AcDbPolyline
 90
        2
 70
     0
 43
0.0
 10
53.99999999999999
 20
28.00000000000002
 10
90.99999999999999
 20
28.00000000000002
  0
TEXT
  5
F6
330
75
100
AcDbEntity
  8
BESCHRIFTUNG
  6
Continuous
 62
     5
100
AcDbText
 10
92.99999999999997
 20
30.34367894497499
 30
0.0
 40
0.6666666666666666
  1
6,50
 50
90.00000000000005
  7
ARIAL
 72
     1
 11
92.66666666666663
 21
31.25
 31
0.0
100
AcDbText
 73
     2
  0
LINE
  5
F7
330
75
100
AcDbEntity
  8
BESCHRIFTUNG
  6
Continuous
 62
     5
100
AcDbLine
 10
91.33333333333332
 20
34.49999999999998
 30
0.0
 11
93.0
 21
34.49999999999998
 31
0.0
  0
LINE
  5
F8
330
75
100
AcDbEntity
  8
BESCHRIFTUNG
  6
Continuous
 62
     5
100
AcDbLine
 10
91.33333333333332
 20
28.00000000000002
 30
0.0
 11
93.00000000000002
 21
28.00000000000002
 31
0.0
  0
LINE
  5
F9
330
75
100
AcDbEntity
  8
BESCHRIFTUNG
  6
Continuous
 62
     5
100
AcDbLine
 10
92.66666666666665
 20
34.49999999999998
 30
0.0
 11
92.66666666666665
 21
32.47041522208601
 31
0.0
  0
LINE
  5
FA
330
75
100
AcDbEntity
  8
BESCHRIFTUNG
  6
Continuous
 62
     5
100
AcDbLine
 10
92.66666666666667
 20
28.00000000000002
 30
0.0
 11
92.66666666666667
 21
30.02958477791399
 31
0.0
  0
INSERT
  5
100
330
75
100
AcDbEntity
  8
BESCHRIFTUNG
  6
Continuous
 62
     5
100
AcDbBlockReference
  2
ARROW
 10
92.66666666666665
 20
34.49999999999998
 30
0.0
 41
0.0196850393700788
 42
0.0196850393700788
 50
270.0000000000001
  0
INSERT
  5
101
330
75
100
AcDbEntity
  8
BESCHRIFTUNG
  6
Continuous
 62
     5
100
AcDbBlockReference
  2
ARROW
 10
92.66666666666667
 20
28.00000000000002
 30
0.0
 41
0.0196850393700788
 42
0.0196850393700788
 50
90.00000000000005
  0
TEXT
  5
102
330
75
100
AcDbEntity
  8
BESCHRIFTUNG
  6
Continuous
 62
     5
100
AcDbText
 10
92.99999999999998
 20
37.84367894497498
 30
0.0
 40
0.6666666666666666
  1
8,50
 50
90.00000000000005
  7
ARIAL
 72
     1
 11
92.66666666666665
 21
38.74999999999999
 31
0.0
100
AcDbText
 73
     2
  0
LINE
  5
103
330
75
100
AcDbEntity
  8
BESCHRIFTUNG
  6
Continuous
 62
     5
100
AcDbLine
 10
91.33333333333332
 20
42.99999999999999
 30
0.0
 11
93.0
 21
42.99999999999999
 31
0.0
  0
LINE
  5
104
330
75
100
AcDbEntity
  8
BESCHRIFTUNG
  6
Continuous
 62
     5
100
AcDbLine
 10
91.33333333333332
 20
34.49999999999998
 30
0.0
 11
93.00000000000002
 21
34.49999999999998
 31
0.0
  0
LINE
  5
105
330
75
100
AcDbEntity
  8
BESCHRIFTUNG
  6
Continuous
 62
     5
100
AcDbLine
 10
92.66666666666665
 20
42.99999999999999
 30
0.0
 11
92.66666666666665
 21
39.970415222086
 31
0.0
  0
LINE
  5
106
330
75
100
AcDbEntity
  8
BESCHRIFTUNG
  6
Continuous
 62
     5
100
AcDbLine
 10
92.66666666666667
 20
34.49999999999998
 30
0.0
 11
92.66666666666667
 21
37.52958477791398
 31
0.0
  0
INSERT
  5
107
330
75
100
AcDbEntity
  8
BESCHRIFTUNG
  6
Continuous
 62
     5
100
AcDbBlockReference
  2
ARROW
 10
92.66666666666665
 20
42.99999999999999
 30
0.0
 41
0.0196850393700788
 42
0.0196850393700788
 50
270.0000000000001
  0
INSERT
  5
108
330
75
100
AcDbEntity
  8
BESCHRIFTUNG
  6
Continuous
 62
     5
100
AcDbBlockReference
  2
ARROW
 10
92.66666666666667
 20
34.49999999999998
 30
0.0
 41
0.0196850393700788
 42
0.0196850393700788
 50
90.00000000000005
  0
TEXT
  5
109
330
75
100
AcDbEntity
  8
BESCHRIFTUNG
  6
Continuous
 62
     5
100
AcDbText
 10
92.99999999999997
 20
19.33469758981357
 30
0.0
 40
0.6666666666666666
  1
15,00
 50
90.00000000000005
  7
ARIAL
 72
     1
 11
92.66666666666663
 21
20.50000000000002
 31
0.0
100
AcDbText
 73
     2
  0
LINE
  5
10A
330
75
100
AcDbEntity
  8
BESCHRIFTUNG
  6
Continuous
 62
     5
100
AcDbLine
 10
91.33333333333332
 20
28.00000000000002
 30
0.0
 11
93.0
 21
28.00000000000002
 31
0.0
  0
LINE
  5
10B
330
75
100
AcDbEntity
  8
BESCHRIFTUNG
  6
Continuous
 62
     5
100
AcDbLine
 10
91.33333333333332
 20
13.0
 30
0.0
 11
93.00000000000002
 21
13.0
 31
0.0
  0
LINE
  5
10C
330
75
100
AcDbEntity
  8
BESCHRIFTUNG
  6
Continuous
 62
     5
100
AcDbLine
 10
92.66666666666665
 20
28.00000000000002
 30
0.0
 11
92.66666666666665
 21
22.0692041490227
 31
0.0
  0
LINE
  5
10D
330
75
100
AcDbEntity
  8
BESCHRIFTUNG
  6
Continuous
 62
     5
100
AcDbLine
 10
92.66666666666667
 20
13.0
 30
0.0
 11
92.66666666666667
 21
18.93079585097731
 31
0.0
  0
INSERT
  5
10E
330
75
100
AcDbEntity
  8
BESCHRIFTUNG
  6
Continuous
 62
     5
100
AcDbBlockReference
  2
ARROW
 10
92.66666666666665
 20
28.00000000000002
 30
0.0
 41
0.0196850393700788
 42
0.0196850393700788
 50
270.0000000000001
  0
INSERT
  5
10F
330
75
100
AcDbEntity
  8
BESCHRIFTUNG
  6
Continuous
 62
     5
100
AcDbBlockReference
  2
ARROW
 10
92.66666666666667
 20
13.0
 30
0.0
 41
0.0196850393700788
 42
0.0196850393700788
 50
90.00000000000005
  0
TEXT
  5
110
330
75
100
AcDbEntity
  8
BESCHRIFTUNG
  6
Continuous
 62
     5
100
AcDbText
 10
27.00000000000001
 20
27.35266030013644
 30
0.0
 40
0.6666666666666666
  1
3,5
 50
90.00000000000005
  7
ARIAL
 72
     1
 11
26.66666666666667
 21
28.00000000000002
 31
0.0
100
AcDbText
 73
     2
  0
LINE
  5
111
330
75
100
AcDbEntity
  8
BESCHRIFTUNG
  6
Continuous
 62
     5
100
AcDbLine
 10
25.33333333333333
 20
29.76776695300003
 30
0.0
 11
27.0
 21
29.76776695300003
 31
0.0
  0
LINE
  5
112
330
75
100
AcDbEntity
  8
BESCHRIFTUNG
  6
Continuous
 62
     5
100
AcDbLine
 10
25.33333333333333
 20
26.23223304700001
 30
0.0
 11
27.0
 21
26.23223304700001
 31
0.0
  0
LINE
  5
113
330
75
100
AcDbEntity
  8
BESCHRIFTUNG
  6
Continuous
 62
     5
100
AcDbLine
 10
26.66666666666666
 20
29.76776695300003
 30
0.0
 11
26.66666666666666
 21
28.87162629514934
 31
0.0
  0
LINE
  5
114
330
75
100
AcDbEntity
  8
BESCHRIFTUNG
  6
Continuous
 62
     5
100
AcDbLine
 10
26.66666666666667
 20
26.23223304700001
 30
0.0
 11
26.66666666666667
 21
27.12837370485069
 31
0.0
  0
INSERT
  5
115
330
75
100
AcDbEntity
  8
BESCHRIFTUNG
  6
Continuous
 62
     5
100
AcDbBlockReference
  2
ARROW
 10
26.66666666666666
 20
29.76776695300003
 30
0.0
 41
0.0196850393700788
 42
0.0196850393700788
 50
270.0000000000001
  0
INSERT
  5
116
330
75
100
AcDbEntity
  8
BESCHRIFTUNG
  6
Continuous
 62
     5
100
AcDbBlockReference
  2
ARROW
 10
26.66666666666667
 20
26.23223304700001
 30
0.0
 41
0.0196850393700788
 42
0.0196850393700788
 50
90.00000000000005
  0
TEXT
  5
117
330
75
100
AcDbEntity
  8
BESCHRIFTUNG
  6
Continuous
 62
     5
100
AcDbText
 10
21.85266030013643
 20
32.33333333333332
 30
0.0
 40
0.6666666666666666
  1
3,5
  7
ARIAL
 72
     1
 11
22.50000000000001
 21
32.66666666666666
 31
0.0
100
AcDbText
 73
     2
  0
LINE
  5
118
330
75
100
AcDbEntity
  8
BESCHRIFTUNG
  6
Continuous
 62
     5
100
AcDbLine
 10
20.732233047
 20
31.33333333333333
 30
0.0
 11
20.732233047
 21
32.99999999999999
 31
0.0
  0
LINE
  5
119
330
75
100
AcDbEntity
  8
BESCHRIFTUNG
  6
Continuous
 62
     5
100
AcDbLine
 10
24.26776695300002
 20
31.33333333333333
 30
0.0
 11
24.26776695300002
 21
32.99999999999999
 31
0.0
  0
LINE
  5
11A
330
75
100
AcDbEntity
  8
BESCHRIFTUNG
  6
Continuous
 62
     5
100
AcDbLine
 10
20.732233047
 20
32.66666666666666
 30
0.0
 11
21.62837370485068
 21
32.66666666666666
 31
0.0
  0
LINE
  5
11B
330
75
100
AcDbEntity
  8
BESCHRIFTUNG
  6
Continuous
 62
     5
100
AcDbLine
 10
24.26776695300002
 20
32.66666666666666
 30
0.0
 11
23.37162629514934
 21
32.66666666666666
 31
0.0
  0
INSERT
  5
11C
330
75
100
AcDbEntity
  8
BESCHRIFTUNG
  6
Continuous
 62
     5
100
AcDbBlockReference
  2
ARROW
 10
20.732233047
 20
32.66666666666666
 30
0.0
 41
0.0196850393700788
 42
0.0196850393700788
  0
INSERT
  5
11D
330
75
100
AcDbEntity
  8
BESCHRIFTUNG
  6
Continuous
 62
     5
100
AcDbBlockReference
  2
ARROW
 10
24.26776695300002
 20
32.66666666666666
 30
0.0
 41
0.0196850393700788
 42
0.0196850393700788
 50
180.0
  0
TEXT
  5
11E
330
75
100
AcDbEntity
  8
BESCHRIFTUNG
  6
Continuous
 62
     5
100
AcDbText
 10
20.62804814612212
 20
27.04352472913173
 30
0.0
 40
0.6666666666666666
  1
5,0
 50
314.9999999999999
  7
ARIAL
 72
     1
 11
21.32148869802243
 21
26.82148869802244
 31
0.0
100
AcDbText
 73
     2
  0
LINE
  5
11F
330
75
100
AcDbEntity
  8
BESCHRIFTUNG
  6
Continuous
 62
     5
100
AcDbLine
 10
24.0320646926045
 20
25.99653078660449
 30
0.0
 11
22.85355339062693
 21
24.81801948462692
 31
0.0
  0
LINE
  5
120
330
75
100
AcDbEntity
  8
BESCHRIFTUNG
  6
Continuous
 62
     5
100
AcDbLine
 10
20.49653078660448
 20
29.53206469260451
 30
0.0
 11
19.3180194846269
 21
28.35355339062694
 31
0.0
  0
LINE
  5
121
330
75
100
AcDbEntity
  8
BESCHRIFTUNG
  6
Continuous
 62
     5
100
AcDbLine
 10
23.08925565102244
 20
25.05372174502243
 30
0.0
 11
21.93782156198303
 21
26.20515583406185
 31
0.0
  0
LINE
  5
122
330
75
100
AcDbEntity
  8
BESCHRIFTUNG
  6
Continuous
 62
     5
100
AcDbLine
 10
19.55372174502242
 20
28.58925565102246
 30
0.0
 11
20.70515583406184
 21
27.43782156198304
 31
0.0
  0
INSERT
  5
123
330
75
100
AcDbEntity
  8
BESCHRIFTUNG
  6
Continuous
 62
     5
100
AcDbBlockReference
  2
ARROW
 10
23.08925565102244
 20
25.05372174502243
 30
0.0
 41
0.0196850393700788
 42
0.0196850393700788
 50
134.9999999999999
  0
INSERT
  5
124
330
75
100
AcDbEntity
  8
BESCHRIFTUNG
  6
Continuous
 62
     5
100
AcDbBlockReference
  2
ARROW
 10
19.55372174502242
 20
28.58925565102246
 30
0.0
 41
0.0196850393700788
 42
0.0196850393700788
 50
314.9999999999999
  0
LWPOLYLINE
  5
125
330
75
100
AcDbEntity
  8
BESCHRIFTUNG
  6
HIDDEN
 62
     5
100
AcDbPolyline
 90
        2
 70
     0
 43
0.0
 10
70.0
 20
24.0
 10
70.0
 20
45.99999999999999
  0
LWPOLYLINE
  5
126
330
75
100
AcDbEntity
  8
BESCHRIFTUNG
  6
HIDDEN
 62
     5
100
AcDbPolyline
 90
        2
 70
     0
 43
0.0
 10
75.732233047
 20
24.0
 10
75.732233047
 20
45.99999999999999
  0
LWPOLYLINE
  5
127
330
75
100
AcDbEntity
  8
BESCHRIFTUNG
  6
HIDDEN
 62
     5
100
AcDbPolyline
 90
        2
 70
     0
 43
0.0
 10
79.267766953
 20
24.0
 10
79.267766953
 20
45.99999999999999
  0
LWPOLYLINE
  5
128
330
75
100
AcDbEntity
  8
BESCHRIFTUNG
  6
HIDDEN
 62
     5
100
AcDbPolyline
 90
        2
 70
     0
 43
0.0
 10
85.0
 20
24.0
 10
85.0
 20
45.99999999999999
  0
TEXT
  5
129
330
75
100
AcDbEntity
  8
BESCHRIFTUNG
  6
Continuous
 62
     5
100
AcDbText
 10
81.22756242147499
 20
22.0
 30
0.0
 40
0.6666666666666666
  1
5,73
  7
ARIAL
 72
     1
 11
82.13388347650001
 21
22.33333333333333
 31
0.0
100
AcDbText
 73
     2
  0
LINE
  5
12A
330
75
100
AcDbEntity
  8
BESCHRIFTUNG
  6
Continuous
 62
     5
100
AcDbLine
 10
85.0
 20
23.66666666666667
 30
0.0
 11
85.0
 21
22.0
 31
0.0
  0
LINE
  5
12B
330
75
100
AcDbEntity
  8
BESCHRIFTUNG
  6
Continuous
 62
     5
100
AcDbLine
 10
79.267766953
 20
23.66666666666667
 30
0.0
 11
79.267766953
 21
22.0
 31
0.0
  0
LINE
  5
12C
330
75
100
AcDbEntity
  8
BESCHRIFTUNG
  6
Continuous
 62
     5
100
AcDbLine
 10
85.0
 20
22.33333333333333
 30
0.0
 11
83.35429869858602
 21
22.33333333333333
 31
0.0
  0
LINE
  5
12D
330
75
100
AcDbEntity
  8
BESCHRIFTUNG
  6
Continuous
 62
     5
100
AcDbLine
 10
79.267766953
 20
22.33333333333333
 30
0.0
 11
80.91346825441398
 21
22.33333333333333
 31
0.0
  0
INSERT
  5
12E
330
75
100
AcDbEntity
  8
BESCHRIFTUNG
  6
Continuous
 62
     5
100
AcDbBlockReference
  2
ARROW
 10
85.0
 20
22.33333333333333
 30
0.0
 41
0.0196850393700788
 42
0.0196850393700788
 50
180.0
  0
INSERT
  5
12F
330
75
100
AcDbEntity
  8
BESCHRIFTUNG
  6
Continuous
 62
     5
100
AcDbBlockReference
  2
ARROW
 10
79.267766953
 20
22.33333333333333
 30
0.0
 41
0.0196850393700788
 42
0.0196850393700788
  0
TEXT
  5
130
330
75
100
AcDbEntity
  8
BESCHRIFTUNG
  6
Continuous
 62
     5
100
AcDbText
 10
76.59367894497498
 20
22.0
 30
0.0
 40
0.6666666666666666
  1
3,54
  7
ARIAL
 72
     1
 11
77.5
 21
22.33333333333333
 31
0.0
100
AcDbText
 73
     2
  0
LINE
  5
131
330
75
100
AcDbEntity
  8
BESCHRIFTUNG
  6
Continuous
 62
     5
100
AcDbLine
 10
79.267766953
 20
23.66666666666667
 30
0.0
 11
79.267766953
 21
22.0
 31
0.0
  0
LINE
  5
132
330
75
100
AcDbEntity
  8
BESCHRIFTUNG
  6
Continuous
 62
     5
100
AcDbLine
 10
75.732233047
 20
23.66666666666667
 30
0.0
 11
75.732233047
 21
22.0
 31
0.0
  0
LINE
  5
133
330
75
100
AcDbEntity
  8
BESCHRIFTUNG
  6
Continuous
 62
     5
100
AcDbLine
 10
79.267766953
 20
22.33333333333333
 30
0.0
 11
78.72041522208601
 21
22.33333333333333
 31
0.0
  0
LINE
  5
134
330
75
100
AcDbEntity
  8
BESCHRIFTUNG
  6
Continuous
 62
     5
100
AcDbLine
 10
75.732233047
 20
22.33333333333333
 30
0.0
 11
76.27958477791399
 21
22.33333333333333
 31
0.0
  0
INSERT
  5
135
330
75
100
AcDbEntity
  8
BESCHRIFTUNG
  6
Continuous
 62
     5
100
AcDbBlockReference
  2
ARROW
 10
79.267766953
 20
22.33333333333333
 30
0.0
 41
0.0196850393700788
 42
0.0196850393700788
 50
180.0
  0
INSERT
  5
136
330
75
100
AcDbEntity
  8
BESCHRIFTUNG
  6
Continuous
 62
     5
100
AcDbBlockReference
  2
ARROW
 10
75.732233047
 20
22.33333333333333
 30
0.0
 41
0.0196850393700788
 42
0.0196850393700788
  0
TEXT
  5
137
330
75
100
AcDbEntity
  8
BESCHRIFTUNG
  6
Continuous
 62
     5
100
AcDbText
 10
71.959795468475
 20
22.0
 30
0.0
 40
0.6666666666666666
  1
5,73
  7
ARIAL
 72
     1
 11
72.86611652350001
 21
22.33333333333333
 31
0.0
100
AcDbText
 73
     2
  0
LINE
  5
138
330
75
100
AcDbEntity
  8
BESCHRIFTUNG
  6
Continuous
 62
     5
100
AcDbLine
 10
75.732233047
 20
23.66666666666667
 30
0.0
 11
75.732233047
 21
22.0
 31
0.0
  0
LINE
  5
139
330
75
100
AcDbEntity
  8
BESCHRIFTUNG
  6
Continuous
 62
     5
100
AcDbLine
 10
70.0
 20
23.66666666666667
 30
0.0
 11
70.0
 21
22.0
 31
0.0
  0
LINE
  5
13A
330
75
100
AcDbEntity
  8
BESCHRIFTUNG
  6
Continuous
 62
     5
100
AcDbLine
 10
75.732233047
 20
22.33333333333333
 30
0.0
 11
74.08653174558601
 21
22.33333333333333
 31
0.0
  0
LINE
  5
13B
330
75
100
AcDbEntity
  8
BESCHRIFTUNG
  6
Continuous
 62
     5
100
AcDbLine
 10
70.0
 20
22.33333333333333
 30
0.0
 11
71.64570130141399
 21
22.33333333333333
 31
0.0
  0
INSERT
  5
13C
330
75
100
AcDbEntity
  8
BESCHRIFTUNG
  6
Continuous
 62
     5
100
AcDbBlockReference
  2
ARROW
 10
75.732233047
 20
22.33333333333333
 30
0.0
 41
0.0196850393700788
 42
0.0196850393700788
 50
180.0
  0
INSERT
  5
13D
330
75
100
AcDbEntity
  8
BESCHRIFTUNG
  6
Continuous
 62
     5
100
AcDbBlockReference
  2
ARROW
 10
70.0
 20
22.33333333333333
 30
0.0
 41
0.0196850393700788
 42
0.0196850393700788
  0
TEXT
  5
13E
330
75
100
AcDbEntity
  8
BESCHRIFTUNG
  6
Continuous
 62
     5
100
AcDbText
 10
76.33469758981355
 20
20.33333333333333
 30
0.0
 40
0.6666666666666666
  1
15,00
  7
ARIAL
 72
     1
 11
77.5
 21
20.66666666666666
 31
0.0
100
AcDbText
 73
     2
  0
LINE
  5
13F
330
75
100
AcDbEntity
  8
BESCHRIFTUNG
  6
Continuous
 62
     5
100
AcDbLine
 10
85.0
 20
23.66666666666667
 30
0.0
 11
85.0
 21
20.33333333333333
 31
0.0
  0
LINE
  5
140
330
75
100
AcDbEntity
  8
BESCHRIFTUNG
  6
Continuous
 62
     5
100
AcDbLine
 10
70.0
 20
23.66666666666667
 30
0.0
 11
70.0
 21
20.33333333333333
 31
0.0
  0
LINE
  5
141
330
75
100
AcDbEntity
  8
BESCHRIFTUNG
  6
Continuous
 62
     5
100
AcDbLine
 10
85.0
 20
20.66666666666666
 30
0.0
 11
79.06920414902271
 21
20.66666666666666
 31
0.0
  0
LINE
  5
142
330
75
100
AcDbEntity
  8
BESCHRIFTUNG
  6
Continuous
 62
     5
100
AcDbLine
 10
70.0
 20
20.66666666666666
 30
0.0
 11
75.9307958509773
 21
20.66666666666666
 31
0.0
  0
INSERT
  5
143
330
75
100
AcDbEntity
  8
BESCHRIFTUNG
  6
Continuous
 62
     5
100
AcDbBlockReference
  2
ARROW
 10
85.0
 20
20.66666666666666
 30
0.0
 41
0.0196850393700788
 42
0.0196850393700788
 50
180.0
  0
INSERT
  5
144
330
75
100
AcDbEntity
  8
BESCHRIFTUNG
  6
Continuous
 62
     5
100
AcDbBlockReference
  2
ARROW
 10
70.0
 20
20.66666666666666
 30
0.0
 41
0.0196850393700788
 42
0.0196850393700788
  0
LWPOLYLINE
  5
145
330
75
100
AcDbEntity
  8
BESCHRIFTUNG
  6
HIDDEN
 62
     1
100
AcDbPolyline
 90
        2
 70
     0
 43
0.0
 10
77.5
 20
26.23223304700001
 10
77.5
 20
45.99999999999999
  0
LWPOLYLINE
  5
146
330
75
100
AcDbEntity
  8
BESCHRIFTUNG
  6
HIDDEN
 62
     1
100
AcDbPolyline
 90
        2
 70
     0
 43
0.0
 10
49.99999999999998
 20
26.23223304700001
 10
49.99999999999998
 20
45.99999999999999
  0
LWPOLYLINE
  5
147
330
75
100
AcDbEntity
  8
BESCHRIFTUNG
  6
HIDDEN
 62
     1
100
AcDbPolyline
 90
        2
 70
     0
 43
0.0
 10
22.49999999999999
 20
26.23223304700001
 10
22.49999999999999
 20
45.99999999999999
  0
TEXT
  5
148
330
75
100
AcDbEntity
  8
BESCHRIFTUNG
  6
Continuous
 62
     1
100
AcDbText
 10
62.58469758981354
 20
48.99999999999996
 30
0.0
 40
0.6666666666666666
  1
27,50
  7
ARIAL
 72
     1
 11
63.74999999999999
 21
49.3333333333333
 31
0.0
100
AcDbText
 73
     2
  0
LINE
  5
149
330
75
100
AcDbEntity
  8
BESCHRIFTUNG
  6
Continuous
 62
     1
100
AcDbLine
 10
49.99999999999998
 20
46.33333333333332
 30
0.0
 11
49.99999999999998
 21
49.66666666666663
 31
0.0
  0
LINE
  5
14A
330
75
100
AcDbEntity
  8
BESCHRIFTUNG
  6
Continuous
 62
     1
100
AcDbLine
 10
77.5
 20
46.33333333333332
 30
0.0
 11
77.5
 21
49.66666666666663
 31
0.0
  0
LINE
  5
14B
330
75
100
AcDbEntity
  8
BESCHRIFTUNG
  6
Continuous
 62
     1
100
AcDbLine
 10
49.99999999999998
 20
49.3333333333333
 30
0.0
 11
62.18079585097728
 21
49.3333333333333
 31
0.0
  0
LINE
  5
14C
330
75
100
AcDbEntity
  8
BESCHRIFTUNG
  6
Continuous
 62
     1
100
AcDbLine
 10
77.5
 20
49.3333333333333
 30
0.0
 11
65.31920414902268
 21
49.3333333333333
 31
0.0
  0
INSERT
  5
14D
330
75
100
AcDbEntity
  8
BESCHRIFTUNG
  6
Continuous
 62
     1
100
AcDbBlockReference
  2
ARROW
 10
49.99999999999998
 20
49.3333333333333
 30
0.0
 41
0.0196850393700788
 42
0.0196850393700788
  0
INSERT
  5
14E
330
75
100
AcDbEntity
  8
BESCHRIFTUNG
  6
Continuous
 62
     1
100
AcDbBlockReference
  2
ARROW
 10
77.5
 20
49.3333333333333
 30
0.0
 41
0.0196850393700788
 42
0.0196850393700788
 50
180.0
  0
TEXT
  5
14F
330
75
100
AcDbEntity
  8
BESCHRIFTUNG
  6
Continuous
 62
     1
100
AcDbText
 10
35.08469758981354
 20
48.99999999999996
 30
0.0
 40
0.6666666666666666
  1
27,50
  7
ARIAL
 72
     1
 11
36.24999999999999
 21
49.3333333333333
 31
0.0
100
AcDbText
 73
     2
  0
LINE
  5
150
330
75
100
AcDbEntity
  8
BESCHRIFTUNG
  6
Continuous
 62
     1
100
AcDbLine
 10
22.49999999999999
 20
46.33333333333332
 30
0.0
 11
22.49999999999999
 21
49.66666666666663
 31
0.0
  0
LINE
  5
151
330
75
100
AcDbEntity
  8
BESCHRIFTUNG
  6
Continuous
 62
     1
100
AcDbLine
 10
49.99999999999998
 20
46.33333333333332
 30
0.0
 11
49.99999999999998
 21
49.66666666666663
 31
0.0
  0
LINE
  5
152
330
75
100
AcDbEntity
  8
BESCHRIFTUNG
  6
Continuous
 62
     1
100
AcDbLine
 10
22.49999999999999
 20
49.3333333333333
 30
0.0
 11
34.68079585097728
 21
49.3333333333333
 31
0.0
  0
LINE
  5
153
330
75
100
AcDbEntity
  8
BESCHRIFTUNG
  6
Continuous
 62
     1
100
AcDbLine
 10
49.99999999999998
 20
49.3333333333333
 30
0.0
 11
37.81920414902268
 21
49.3333333333333
 31
0.0
  0
INSERT
  5
154
330
75
100
AcDbEntity
  8
BESCHRIFTUNG
  6
Continuous
 62
     1
100
AcDbBlockReference
  2
ARROW
 10
22.49999999999999
 20
49.3333333333333
 30
0.0
 41
0.0196850393700788
 42
0.0196850393700788
  0
INSERT
  5
155
330
75
100
AcDbEntity
  8
BESCHRIFTUNG
  6
Continuous
 62
     1
100
AcDbBlockReference
  2
ARROW
 10
49.99999999999998
 20
49.3333333333333
 30
0.0
 41
0.0196850393700788
 42
0.0196850393700788
 50
180.0
  0
TEXT
  5
156
330
75
100
AcDbEntity
  8
BESCHRIFTUNG
  6
Continuous
 62
     5
100
AcDbText
 10
47.6693951796271
 20
5.666666666666665
 30
0.0
 40
1.333333333333333
  1
76,00
  7
ARIAL
 72
     1
 11
50.0
 21
6.333333333333332
 31
0.0
100
AcDbText
 73
     2
  0
LINE
  5
157
330
75
100
AcDbEntity
  8
BESCHRIFTUNG
  6
Continuous
 62
     5
100
AcDbLine
 10
88.0
 20
12.66666666666666
 30
0.0
 11
88.0
 21
5.999999999999999
 31
0.0
  0
LINE
  5
158
330
75
100
AcDbEntity
  8
BESCHRIFTUNG
  6
Continuous
 62
     5
100
AcDbLine
 10
12.0
 20
12.66666666666666
 30
0.0
 11
12.0
 21
5.999999999999999
 31
0.0
  0
LINE
  5
159
330
75
100
AcDbEntity
  8
BESCHRIFTUNG
  6
Continuous
 62
     5
100
AcDbLine
 10
88.0
 20
6.333333333333332
 30
0.0
 11
53.1384082980454
 21
6.333333333333336
 31
0.0
  0
LINE
  5
15A
330
75
100
AcDbEntity
  8
BESCHRIFTUNG
  6
Continuous
 62
     5
100
AcDbLine
 10
12.0
 20
6.333333333333332
 30
0.0
 11
46.8615917019546
 21
6.333333333333328
 31
0.0
  0
INSERT
  5
15B
330
75
100
AcDbEntity
  8
BESCHRIFTUNG
  6
Continuous
 62
     5
100
AcDbBlockReference
  2
ARROW
 10
88.0
 20
6.333333333333332
 30
0.0
 41
0.0196850393700788
 42
0.0196850393700788
 50
180.0
  0
INSERT
  5
15C
330
75
100
AcDbEntity
  8
BESCHRIFTUNG
  6
Continuous
 62
     5
100
AcDbBlockReference
  2
ARROW
 10
12.0
 20
6.333333333333332
 30
0.0
 41
0.0196850393700788
 42
0.0196850393700788
  0
TEXT
  5
15D
330
75
100
AcDbEntity
  8
BESCHRIFTUNG
  6
Continuous
 62
     5
100
AcDbText
 10
6.000000000000047
 20
25.6693951796271
 30
0.0
 40
1.333333333333333
  1
30,00
 50
90.00000000000005
  7
ARIAL
 72
     1
 11
5.333333333333377
 21
27.99999999999999
 31
0.0
100
AcDbText
 73
     2
  0
LINE
  5
15E
330
75
100
AcDbEntity
  8
BESCHRIFTUNG
  6
Continuous
 62
     5
100
AcDbLine
 10
11.66666666666666
 20
13.0
 30
0.0
 11
5.000000000000063
 21
13.0
 31
0.0
  0
LINE
  5
15F
330
75
100
AcDbEntity
  8
BESCHRIFTUNG
  6
Continuous
 62
     5
100
AcDbLine
 10
11.66666666666666
 20
42.99999999999998
 30
0.0
 11
5.000000000000031
 21
42.99999999999998
 31
0.0
  0
LINE
  5
160
330
75
100
AcDbEntity
  8
BESCHRIFTUNG
  6
Continuous
 62
     5
100
AcDbLine
 10
5.333333333333396
 20
13.0
 30
0.0
 11
5.333333333333383
 21
24.8615917019546
 31
0.0
  0
LINE
  5
161
330
75
100
AcDbEntity
  8
BESCHRIFTUNG
  6
Continuous
 62
     5
100
AcDbLine
 10
5.333333333333365
 20
42.99999999999998
 30
0.0
 11
5.333333333333377
 21
31.13840829804539
 31
0.0
  0
INSERT
  5
162
330
75
100
AcDbEntity
  8
BESCHRIFTUNG
  6
Continuous
 62
     5
100
AcDbBlockReference
  2
ARROW
 10
5.333333333333396
 20
13.0
 30
0.0
 41
0.0196850393700788
 42
0.0196850393700788
 50
90.00000000000005
  0
INSERT
  5
163
330
75
100
AcDbEntity
  8
BESCHRIFTUNG
  6
Continuous
 62
     5
100
AcDbBlockReference
  2
ARROW
 10
5.333333333333365
 20
42.99999999999998
 30
0.0
 41
0.0196850393700788
 42
0.0196850393700788
 50
270.0000000000001
  0
ENDSEC
  0
SECTION
  2
OBJECTS
  0
DICTIONARY
  5
C
330
0
100
AcDbDictionary
281
     1
  3
ACAD_COLOR
350
6B
  3
ACAD_GROUP
350
D
  3
ACAD_LAYOUT
350
6A
  3
ACAD_MATERIAL
350
10
  3
ACAD_MLEADERSTYLE
350
6E
  3
ACAD_MLINESTYLE
350
67
  3
ACAD_PLOTSETTINGS
350
69
  3
ACAD_PLOTSTYLENAME
350
E
  3
ACAD_SCALELIST
350
3A
  3
ACAD_TABLESTYLE
350
6C
  3
ACAD_VISUALSTYLE
350
29
  3
ACDB_RECOMPOSE_DATA
350
16A
  3
AcDbVariableDictionary
350
164
  0
DICTIONARY
  5
6B
102
{ACAD_REACTORS
330
C
102
}
330
C
100
AcDbDictionary
281
     1
  0
DICTIONARY
  5
D
102
{ACAD_REACTORS
330
C
102
}
330
C
100
AcDbDictionary
281
     1
  0
DICTIONARY
  5
6A
102
{ACAD_REACTORS
330
C
102
}
330
C
100
AcDbDictionary
281
     1
  3
Layout1
350
74
  3
Layout2
350
7C
  3
Model
350
78
  0
DICTIONARY
  5
10
102
{ACAD_REACTORS
330
C
102
}
330
C
100
AcDbDictionary
281
     1
  3
ByBlock
350
19
  3
ByLayer
350
11
  3
Global
350
21
  0
DICTIONARY
  5
6E
102
{ACAD_REACTORS
330
C
102
}
330
C
100
AcDbDictionary
281
     1
  3
Standard
350
6F
  0
DICTIONARY
  5
67
102
{ACAD_REACTORS
330
C
102
}
330
C
100
AcDbDictionary
281
     1
  3
Standard
350
68
  0
DICTIONARY
  5
69
102
{ACAD_REACTORS
330
C
102
}
330
C
100
AcDbDictionary
281
     1
  0
ACDBDICTIONARYWDFLT
  5
E
102
{ACAD_REACTORS
330
C
102
}
330
C
100
AcDbDictionary
281
     1
  3
Normal
350
F
100
AcDbDictionaryWithDefault
340
F
  0
DICTIONARY
  5
3A
102
{ACAD_REACTORS
330
C
102
}
330
C
100
AcDbDictionary
281
     1
  3
A0
350
3B
  3
A1
350
3C
  3
A2
350
3D
  3
A3
350
3E
  3
A4
350
3F
  3
A5
350
40
  3
A6
350
41
  3
A7
350
42
  3
A8
350
43
  3
A9
350
44
  3
B0
350
45
  3
B1
350
46
  3
B2
350
47
  3
B3
350
48
  3
B4
350
49
  3
B5
350
4A
  3
B6
350
4B
  3
B7
350
4C
  3
B8
350
4D
  3
B9
350
4E
  3
C0
350
4F
  3
C1
350
50
  3
C2
350
51
  3
C3
350
52
  3
C4
350
53
  3
C5
350
54
  3
C6
350
55
  3
C7
350
56
  3
C8
350
57
  3
C9
350
58
  3
D0
350
59
  3
D1
350
5A
  3
D2
350
5B
  0
DICTIONARY
  5
6C
102
{ACAD_REACTORS
330
C
102
}
330
C
100
AcDbDictionary
281
     1
  3
Standard
350
6D
  0
DICTIONARY
  5
29
102
{ACAD_REACTORS
330
C
102
}
330
C
100
AcDbDictionary
281
     1
  3
2dWireframe
350
2F
  3
3D Hidden
350
31
  3
3dWireframe
350
30
  3
Basic
350
2E
  3
Brighten
350
35
  3
ColorChange
350
39
  3
Conceptual
350
32
  3
Dim
350
34
  3
Facepattern
350
38
  3
Flat
350
2A
  3
FlatWithEdges
350
2B
  3
Gouraud
350
2C
  3
GouraudWithEdges
350
2D
  3
Linepattern
350
37
  3
Realistic
350
33
  3
Thicken
350
36
  0
XRECORD
  5
16A
102
{ACAD_REACTORS
330
C
102
}
330
C
100
AcDbXrecord
280
     1
 90
        1
330
6D
  0
DICTIONARY
  5
164
102
{ACAD_REACTORS
330
C
102
}
330
C
100
AcDbDictionary
281
     1
  3
CANNOSCALE
350
167
  3
CMLEADERSTYLE
350
166
  3
CTABLESTYLE
350
165
  0
LAYOUT
  5
74
102
{ACAD_REACTORS
330
6A
102
}
330
6A
100
AcDbPlotSettings
  1

  2

  4

  6

 40
0.0
 41
0.0
 42
0.0
 43
0.0
 44
0.0
 45
0.0
 46
0.0
 47
0.0
 48
0.0
 49
0.0
140
0.0
141
0.0
142
1.0
143
1.0
 70
   688
 72
     0
 73
     0
 74
     5
  7

 75
    16
147
1.0
 76
     0
 77
     2
 78
   300
148
0.0
149
0.0
100
AcDbLayout
  1
Layout1
 70
     1
 71
     1
 10
0.0
 20
0.0
 11
12.0
 21
9.0
 12
0.0
 22
0.0
 32
0.0
 14
0.0
 24
0.0
 34
0.0
 15
0.0
 25
0.0
 35
0.0
146
0.0
 13
0.0
 23
0.0
 33
0.0
 16
1.0
 26
0.0
 36
0.0
 17
0.0
 27
1.0
 37
0.0
 76
     0
330
71
  0
LAYOUT
  5
7C
102
{ACAD_REACTORS
330
6A
102
}
330
6A
100
AcDbPlotSettings
  1

  2

  4

  6

 40
0.0
 41
0.0
 42
0.0
 43
0.0
 44
0.0
 45
0.0
 46
0.0
 47
0.0
 48
0.0
 49
0.0
140
0.0
141
0.0
142
1.0
143
1.0
 70
   688
 72
     0
 73
     0
 74
     5
  7

 75
    16
147
1.0
 76
     0
 77
     2
 78
   300
148
0.0
149
0.0
100
AcDbLayout
  1
Layout2
 70
     1
 71
     2
 10
0.0
 20
0.0
 11
12.0
 21
9.0
 12
0.0
 22
0.0
 32
0.0
 14
0.0
 24
0.0
 34
0.0
 15
0.0
 25
0.0
 35
0.0
146
0.0
 13
0.0
 23
0.0
 33
0.0
 16
1.0
 26
0.0
 36
0.0
 17
0.0
 27
1.0
 37
0.0
 76
     0
330
79
  0
LAYOUT
  5
78
102
{ACAD_REACTORS
330
6A
102
}
330
6A
100
AcDbPlotSettings
  1

  2

  4

  6

 40
0.0
 41
0.0
 42
0.0
 43
0.0
 44
0.0
 45
0.0
 46
0.0
 47
0.0
 48
0.0
 49
0.0
140
0.0
141
0.0
142
1.0
143
1.0
 70
  1712
 72
     0
 73
     0
 74
     0
  7

 75
     0
147
1.0
 76
     0
 77
     2
 78
   300
148
0.0
149
0.0
100
AcDbLayout
  1
Model
 70
     1
 71
     0
 10
0.0
 20
0.0
 11
12.0
 21
9.0
 12
0.0
 22
0.0
 32
0.0
 14
0.0
 24
0.0
 34
0.0
 15
0.0
 25
0.0
 35
0.0
146
0.0
 13
0.0
 23
0.0
 33
0.0
 16
1.0
 26
0.0
 36
0.0
 17
0.0
 27
1.0
 37
0.0
 76
     0
330
75
  0
MATERIAL
  5
19
102
{ACAD_XDICTIONARY
360
1A
102
}
102
{ACAD_REACTORS
330
10
102
}
330
10
100
AcDbMaterial
  1
ByBlock
 72
     0
 43
0.0208333333333333
 43
0.0
 43
0.0
 43
0.0
 43
0.0
 43
0.0208333333333333
 43
0.0
 43
0.0
 43
0.0
 43
0.0
 43
1.0
 43
0.0
 43
0.0
 43
0.0
 43
0.0
 43
1.0
 77
     0
 47
0.0208333333333333
 47
0.0
 47
0.0
 47
0.0
 47
0.0
 47
0.0208333333333333
 47
0.0
 47
0.0
 47
0.0
 47
0.0
 47
1.0
 47
0.0
 47
0.0
 47
0.0
 47
0.0
 47
1.0
171
     0
 49
0.0208333333333333
 49
0.0
 49
0.0
 49
0.0
 49
0.0
 49
0.0208333333333333
 49
0.0
 49
0.0
 49
0.0
 49
0.0
 49
1.0
 49
0.0
 49
0.0
 49
0.0
 49
0.0
 49
1.0
175
     0
142
0.0208333333333333
142
0.0
142
0.0
142
0.0
142
0.0
142
0.0208333333333333
142
0.0
142
0.0
142
0.0
142
0.0
142
1.0
142
0.0
142
0.0
142
0.0
142
0.0
142
1.0
179
     0
144
0.0208333333333333
144
0.0
144
0.0
144
0.0
144
0.0
144
0.0208333333333333
144
0.0
144
0.0
144
0.0
144
0.0
144
1.0
144
0.0
144
0.0
144
0.0
144
0.0
144
1.0
147
0.0208333333333333
147
0.0
147
0.0
147
0.0
147
0.0
147
0.0208333333333333
147
0.0
147
0.0
147
0.0
147
0.0
147
1.0
147
0.0
147
0.0
147
0.0
147
0.0
147
1.0
  0
MATERIAL
  5
11
102
{ACAD_XDICTIONARY
360
12
102
}
102
{ACAD_REACTORS
330
10
102
}
330
10
100
AcDbMaterial
  1
ByLayer
 72
     0
 43
0.0208333333333333
 43
0.0
 43
0.0
 43
0.0
 43
0.0
 43
0.0208333333333333
 43
0.0
 43
0.0
 43
0.0
 43
0.0
 43
1.0
 43
0.0
 43
0.0
 43
0.0
 43
0.0
 43
1.0
 77
     0
 47
0.0208333333333333
 47
0.0
 47
0.0
 47
0.0
 47
0.0
 47
0.0208333333333333
 47
0.0
 47
0.0
 47
0.0
 47
0.0
 47
1.0
 47
0.0
 47
0.0
 47
0.0
 47
0.0
 47
1.0
171
     0
 49
0.0208333333333333
 49
0.0
 49
0.0
 49
0.0
 49
0.0
 49
0.0208333333333333
 49
0.0
 49
0.0
 49
0.0
 49
0.0
 49
1.0
 49
0.0
 49
0.0
 49
0.0
 49
0.0
 49
1.0
175
     0
142
0.0208333333333333
142
0.0
142
0.0
142
0.0
142
0.0
142
0.0208333333333333
142
0.0
142
0.0
142
0.0
142
0.0
142
1.0
142
0.0
142
0.0
142
0.0
142
0.0
142
1.0
179
     0
144
0.0208333333333333
144
0.0
144
0.0
144
0.0
144
0.0
144
0.0208333333333333
144
0.0
144
0.0
144
0.0
144
0.0
144
1.0
144
0.0
144
0.0
144
0.0
144
0.0
144
1.0
147
0.0208333333333333
147
0.0
147
0.0
147
0.0
147
0.0
147
0.0208333333333333
147
0.0
147
0.0
147
0.0
147
0.0
147
1.0
147
0.0
147
0.0
147
0.0
147
0.0
147
1.0
  0
MATERIAL
  5
21
102
{ACAD_XDICTIONARY
360
22
102
}
102
{ACAD_REACTORS
330
10
102
}
330
10
100
AcDbMaterial
  1
Global
 72
     0
 43
0.0208333333333333
 43
0.0
 43
0.0
 43
0.0
 43
0.0
 43
0.0208333333333333
 43
0.0
 43
0.0
 43
0.0
 43
0.0
 43
1.0
 43
0.0
 43
0.0
 43
0.0
 43
0.0
 43
1.0
 77
     0
 47
0.0208333333333333
 47
0.0
 47
0.0
 47
0.0
 47
0.0
 47
0.0208333333333333
 47
0.0
 47
0.0
 47
0.0
 47
0.0
 47
1.0
 47
0.0
 47
0.0
 47
0.0
 47
0.0
 47
1.0
171
     0
 49
0.0208333333333333
 49
0.0
 49
0.0
 49
0.0
 49
0.0
 49
0.0208333333333333
 49
0.0
 49
0.0
 49
0.0
 49
0.0
 49
1.0
 49
0.0
 49
0.0
 49
0.0
 49
0.0
 49
1.0
175
     0
142
0.0208333333333333
142
0.0
142
0.0
142
0.0
142
0.0
142
0.0208333333333333
142
0.0
142
0.0
142
0.0
142
0.0
142
1.0
142
0.0
142
0.0
142
0.0
142
0.0
142
1.0
179
     0
144
0.0208333333333333
144
0.0
144
0.0
144
0.0
144
0.0
144
0.0208333333333333
144
0.0
144
0.0
144
0.0
144
0.0
144
1.0
144
0.0
144
0.0
144
0.0
144
0.0
144
1.0
147
0.0208333333333333
147
0.0
147
0.0
147
0.0
147
0.0
147
0.0208333333333333
147
0.0
147
0.0
147
0.0
147
0.0
147
1.0
147
0.0
147
0.0
147
0.0
147
0.0
147
1.0
  0
MLEADERSTYLE
  5
6F
102
{ACAD_REACTORS
330
6E
102
}
330
6E
100
AcDbMLeaderStyle
170
     2
171
     1
172
     0
 90
        2
 40
0.0
 41
0.0
173
     1
 91
-1056964608
340
63
 92
       -2
290
     1
 42
0.09
291
     1
 43
0.36
  3
Standard
 44
0.18
300

342
5D
174
     1
178
     6
175
     1
176
     0
 93
-1056964608
 45
0.18
292
     0
297
     0
 46
0.18
 94
-1056964608
 47
1.0
 49
1.0
140
1.0
293
     1
141
0.0
294
     1
177
     0
142
1.0
295
     1
296
     0
143
0.125
1001
ACAD_MLEADERVER
1070
     2
  0
MLINESTYLE
  5
68
102
{ACAD_REACTORS
330
67
102
}
330
67
100
AcDbMlineStyle
  2
STANDARD
 70
     0
  3

 62
   256
 51
90.0
 52
90.0
 71
     2
 49
0.5
 62
   256
  6
BYLAYER
 49
-0.5
 62
   256
  6
BYLAYER
  0
ACDBPLACEHOLDER
  5
F
102
{ACAD_REACTORS
330
E
102
}
330
E
  0
SCALE
  5
3B
102
{ACAD_REACTORS
330
3A
102
}
330
3A
100
AcDbScale
 70
     0
300
1:1
140
1.0
141
1.0
290
     1
  0
SCALE
  5
3C
102
{ACAD_REACTORS
330
3A
102
}
330
3A
100
AcDbScale
 70
     0
300
1:2
140
1.0
141
2.0
290
     0
  0
SCALE
  5
3D
102
{ACAD_REACTORS
330
3A
102
}
330
3A
100
AcDbScale
 70
     0
300
1:4
140
1.0
141
4.0
290
     0
  0
SCALE
  5
3E
102
{ACAD_REACTORS
330
3A
102
}
330
3A
100
AcDbScale
 70
     0
300
1:5
140
1.0
141
5.0
290
     0
  0
SCALE
  5
3F
102
{ACAD_REACTORS
330
3A
102
}
330
3A
100
AcDbScale
 70
     0
300
1:8
140
1.0
141
8.0
290
     0
  0
SCALE
  5
40
102
{ACAD_REACTORS
330
3A
102
}
330
3A
100
AcDbScale
 70
     0
300
1:10
140
1.0
141
10.0
290
     0
  0
SCALE
  5
41
102
{ACAD_REACTORS
330
3A
102
}
330
3A
100
AcDbScale
 70
     0
300
1:16
140
1.0
141
16.0
290
     0
  0
SCALE
  5
42
102
{ACAD_REACTORS
330
3A
102
}
330
3A
100
AcDbScale
 70
     0
300
1:20
140
1.0
141
20.0
290
     0
  0
SCALE
  5
43
102
{ACAD_REACTORS
330
3A
102
}
330
3A
100
AcDbScale
 70
     0
300
1:30
140
1.0
141
30.0
290
     0
  0
SCALE
  5
44
102
{ACAD_REACTORS
330
3A
102
}
330
3A
100
AcDbScale
 70
     0
300
1:40
140
1.0
141
40.0
290
     0
  0
SCALE
  5
45
102
{ACAD_REACTORS
330
3A
102
}
330
3A
100
AcDbScale
 70
     0
300
1:50
140
1.0
141
50.0
290
     0
  0
SCALE
  5
46
102
{ACAD_REACTORS
330
3A
102
}
330
3A
100
AcDbScale
 70
     0
300
1:100
140
1.0
141
100.0
290
     0
  0
SCALE
  5
47
102
{ACAD_REACTORS
330
3A
102
}
330
3A
100
AcDbScale
 70
     0
300
2:1
140
2.0
141
1.0
290
     0
  0
SCALE
  5
48
102
{ACAD_REACTORS
330
3A
102
}
330
3A
100
AcDbScale
 70
     0
300
4:1
140
4.0
141
1.0
290
     0
  0
SCALE
  5
49
102
{ACAD_REACTORS
330
3A
102
}
330
3A
100
AcDbScale
 70
     0
300
8:1
140
8.0
141
1.0
290
     0
  0
SCALE
  5
4A
102
{ACAD_REACTORS
330
3A
102
}
330
3A
100
AcDbScale
 70
     0
300
10:1
140
10.0
141
1.0
290
     0
  0
SCALE
  5
4B
102
{ACAD_REACTORS
330
3A
102
}
330
3A
100
AcDbScale
 70
     0
300
100:1
140
100.0
141
1.0
290
     0
  0
SCALE
  5
4C
102
{ACAD_REACTORS
330
3A
102
}
330
3A
100
AcDbScale
 70
     0
300
1/128" = 1'-0"
140
0.0078125
141
12.0
290
     0
  0
SCALE
  5
4D
102
{ACAD_REACTORS
330
3A
102
}
330
3A
100
AcDbScale
 70
     0
300
1/64" = 1'-0"
140
0.015625
141
12.0
290
     0
  0
SCALE
  5
4E
102
{ACAD_REACTORS
330
3A
102
}
330
3A
100
AcDbScale
 70
     0
300
1/32" = 1'-0"
140
0.03125
141
12.0
290
     0
  0
SCALE
  5
4F
102
{ACAD_REACTORS
330
3A
102
}
330
3A
100
AcDbScale
 70
     0
300
1/16" = 1'-0"
140
0.0625
141
12.0
290
     0
  0
SCALE
  5
50
102
{ACAD_REACTORS
330
3A
102
}
330
3A
100
AcDbScale
 70
     0
300
3/32" = 1'-0"
140
0.09375
141
12.0
290
     0
  0
SCALE
  5
51
102
{ACAD_REACTORS
330
3A
102
}
330
3A
100
AcDbScale
 70
     0
300
1/8" = 1'-0"
140
0.125
141
12.0
290
     0
  0
SCALE
  5
52
102
{ACAD_REACTORS
330
3A
102
}
330
3A
100
AcDbScale
 70
     0
300
3/16" = 1'-0"
140
0.1875
141
12.0
290
     0
  0
SCALE
  5
53
102
{ACAD_REACTORS
330
3A
102
}
330
3A
100
AcDbScale
 70
     0
300
1/4" = 1'-0"
140
0.25
141
12.0
290
     0
  0
SCALE
  5
54
102
{ACAD_REACTORS
330
3A
102
}
330
3A
100
AcDbScale
 70
     0
300
3/8" = 1'-0"
140
0.375
141
12.0
290
     0
  0
SCALE
  5
55
102
{ACAD_REACTORS
330
3A
102
}
330
3A
100
AcDbScale
 70
     0
300
1/2" = 1'-0"
140
0.5
141
12.0
290
     0
  0
SCALE
  5
56
102
{ACAD_REACTORS
330
3A
102
}
330
3A
100
AcDbScale
 70
     0
300
3/4" = 1'-0"
140
0.75
141
12.0
290
     0
  0
SCALE
  5
57
102
{ACAD_REACTORS
330
3A
102
}
330
3A
100
AcDbScale
 70
     0
300
1" = 1'-0"
140
1.0
141
12.0
290
     0
  0
SCALE
  5
58
102
{ACAD_REACTORS
330
3A
102
}
330
3A
100
AcDbScale
 70
     0
300
1-1/2" = 1'-0"
140
1.5
141
12.0
290
     0
  0
SCALE
  5
59
102
{ACAD_REACTORS
330
3A
102
}
330
3A
100
AcDbScale
 70
     0
300
3" = 1'-0"
140
3.0
141
12.0
290
     0
  0
SCALE
  5
5A
102
{ACAD_REACTORS
330
3A
102
}
330
3A
100
AcDbScale
 70
     0
300
6" = 1'-0"
140
6.0
141
12.0
290
     0
  0
SCALE
  5
5B
102
{ACAD_REACTORS
330
3A
102
}
330
3A
100
AcDbScale
 70
     0
300
1'-0" = 1'-0"
140
12.0
141
12.0
290
     0
  0
TABLESTYLE
  5
6D
102
{ACAD_XDICTIONARY
360
168
102
}
102
{ACAD_REACTORS
330
6C
102
}
330
6C
100
AcDbTableStyle
  3
Standard
 70
     0
 71
     0
 40
0.06
 41
0.06
280
     0
281
     0
  7
Standard
140
0.18
170
     2
 62
     0
 63
     7
283
     0
 90
      512
 91
        0
  1

274
    -2
284
     1
 64
     0
275
    -2
285
     1
 65
     0
276
    -2
286
     1
 66
     0
277
    -2
287
     1
 67
     0
278
    -2
288
     1
 68
     0
279
    -2
289
     1
 69
     0
  7
Standard
140
0.25
170
     5
 62
     0
 63
     7
283
     0
 90
      512
 91
        0
  1

274
    -2
284
     1
 64
     0
275
    -2
285
     1
 65
     0
276
    -2
286
     1
 66
     0
277
    -2
287
     1
 67
     0
278
    -2
288
     1
 68
     0
279
    -2
289
     1
 69
     0
  7
Standard
140
0.18
170
     5
 62
     0
 63
     7
283
     0
 90
      512
 91
        0
  1

274
    -2
284
     1
 64
     0
275
    -2
285
     1
 65
     0
276
    -2
286
     1
 66
     0
277
    -2
287
     1
 67
     0
278
    -2
288
     1
 68
     0
279
    -2
289
     1
 69
     0
  0
VISUALSTYLE
  5
2F
102
{ACAD_REACTORS
330
29
102
}
330
29
100
AcDbVisualStyle
  2
2dWireframe
 70
     4
 71
     0
 72
     2
 73
     0
 90
        0
 40
-0.6
 41
-30.0
 62
     5
 63
     7
421
 16777215
 74
     1
 91
        4
 64
     7
 65
   257
 75
     1
175
     1
 42
1.0
 92
        0
 66
   257
 43
1.0
 76
     1
 77
     6
 78
     2
 67
     7
 79
     5
170
     0
171
     0
290
     0
174
     0
 93
        1
 44
0.0
173
     0
291
     0
 45
0.0
  0
VISUALSTYLE
  5
31
102
{ACAD_REACTORS
330
29
102
}
330
29
100
AcDbVisualStyle
  2
3D Hidden
 70
     6
 71
     1
 72
     2
 73
     2
 90
        0
 40
-0.6
 41
-30.0
 62
     5
 63
     7
421
 16777215
 74
     2
 91
        2
 64
     7
 65
   257
 75
     2
175
     1
 42
40.0
 92
        0
 66
   257
 43
1.0
 76
     1
 77
     6
 78
     2
 67
     7
 79
     3
170
     0
171
     0
290
     0
174
     0
 93
        1
 44
0.0
173
     0
291
     0
 45
0.0
  0
VISUALSTYLE
  5
30
102
{ACAD_REACTORS
330
29
102
}
330
29
100
AcDbVisualStyle
  2
3dWireframe
 70
     5
 71
     0
 72
     2
 73
     0
 90
        0
 40
-0.6
 41
-30.0
 62
     5
 63
     7
421
 16777215
 74
     1
 91
        4
 64
     7
 65
   257
 75
     1
175
     1
 42
1.0
 92
        0
 66
   257
 43
1.0
 76
     1
 77
     6
 78
     2
 67
     7
 79
     5
170
     0
171
     0
290
     0
174
     0
 93
        1
 44
0.0
173
     0
291
     0
 45
0.0
  0
VISUALSTYLE
  5
2E
102
{ACAD_REACTORS
330
29
102
}
330
29
100
AcDbVisualStyle
  2
Basic
 70
     7
 71
     1
 72
     0
 73
     1
 90
        0
 40
-0.6
 41
-30.0
 62
     5
 63
     7
421
 16777215
 74
     0
 91
        4
 64
     7
 65
   257
 75
     1
175
     1
 42
1.0
 92
        8
 66
     7
 43
1.0
 76
     1
 77
     6
 78
     2
 67
     7
 79
     5
170
     0
171
     0
290
     0
174
     0
 93
        1
 44
0.0
173
     0
291
     1
 45
0.0
  0
VISUALSTYLE
  5
35
102
{ACAD_REACTORS
330
29
102
}
330
29
100
AcDbVisualStyle
  2
Brighten
 70
    12
 71
     2
 72
     2
 73
     0
 90
        0
 40
-0.6
 41
-30.0
 62
     5
 63
     7
421
 16777215
 74
     1
 91
        4
 64
     7
 65
   257
 75
     1
175
     1
 42
1.0
 92
        8
 66
     7
 43
1.0
 76
     1
 77
     6
 78
     2
 67
     7
 79
     5
170
     0
171
     0
290
     0
174
     0
 93
        1
 44
50.0
173
     0
291
     1
 45
0.0
  0
VISUALSTYLE
  5
39
102
{ACAD_REACTORS
330
29
102
}
330
29
100
AcDbVisualStyle
  2
ColorChange
 70
    16
 71
     2
 72
     2
 73
     3
 90
        0
 40
-0.6
 41
-30.0
 62
     5
 63
     8
421
  8421504
 74
     1
 91
        4
 64
     7
 65
   257
 75
     1
175
     1
 42
1.0
 92
        8
 66
     8
424
  8421504
 43
1.0
 76
     1
 77
     6
 78
     2
 67
     7
 79
     5
170
     0
171
     0
290
     0
174
     0
 93
        1
 44
0.0
173
     0
291
     1
 45
0.0
  0
VISUALSTYLE
  5
32
102
{ACAD_REACTORS
330
29
102
}
330
29
100
AcDbVisualStyle
  2
Conceptual
 70
     9
 71
     3
 72
     2
 73
     0
 90
        0
 40
-0.6
 41
-30.0
 62
     5
 63
     7
421
 16777215
 74
     2
 91
        2
 64
     7
 65
   257
 75
     1
175
     1
 42
40.0
 92
        8
 66
     7
 43
1.0
 76
     1
 77
     6
 78
     2
 67
     7
 79
     3
170
     0
171
     0
290
     0
174
     0
 93
        1
 44
0.0
173
     0
291
     0
 45
0.0
  0
VISUALSTYLE
  5
34
102
{ACAD_REACTORS
330
29
102
}
330
29
100
AcDbVisualStyle
  2
Dim
 70
    11
 71
     2
 72
     2
 73
     0
 90
        0
 40
-0.6
 41
-30.0
 62
     5
 63
     7
421
 16777215
 74
     1
 91
        4
 64
     7
 65
   257
 75
     1
175
     1
 42
1.0
 92
        8
 66
     7
 43
1.0
 76
     1
 77
     6
 78
     2
 67
     7
 79
     5
170
     0
171
     0
290
     0
174
     0
 93
        1
 44
-50.0
173
     0
291
     1
 45
0.0
  0
VISUALSTYLE
  5
38
102
{ACAD_REACTORS
330
29
102
}
330
29
100
AcDbVisualStyle
  2
Facepattern
 70
    15
 71
     2
 72
     2
 73
     0
 90
        0
 40
-0.6
 41
-30.0
 62
     5
 63
     7
421
 16777215
 74
     1
 91
        4
 64
     7
 65
   257
 75
     1
175
     1
 42
1.0
 92
        8
 66
     7
 43
1.0
 76
     1
 77
     6
 78
     2
 67
     7
 79
     5
170
     0
171
     0
290
     0
174
     0
 93
        1
 44
0.0
173
     0
291
     1
 45
0.0
  0
VISUALSTYLE
  5
2A
102
{ACAD_REACTORS
330
29
102
}
330
29
100
AcDbVisualStyle
  2
Flat
 70
     0
 71
     2
 72
     1
 73
     1
 90
        2
 40
-0.6
 41
30.0
 62
     5
 63
     7
421
 16777215
 74
     0
 91
        4
 64
     7
 65
   257
 75
     1
175
     1
 42
1.0
 92
        8
 66
     7
 43
1.0
 76
     1
 77
     6
 78
     2
 67
     7
 79
     5
170
     0
171
     0
290
     0
174
     0
 93
       13
 44
0.0
173
     0
291
     1
 45
0.0
  0
VISUALSTYLE
  5
2B
102
{ACAD_REACTORS
330
29
102
}
330
29
100
AcDbVisualStyle
  2
FlatWithEdges
 70
     1
 71
     2
 72
     1
 73
     1
 90
        2
 40
-0.6
 41
30.0
 62
     5
 63
     7
421
 16777215
 74
     1
 91
        4
 64
     7
 65
   257
 75
     1
175
     1
 42
1.0
 92
        0
 66
   257
 43
1.0
 76
     1
 77
     6
 78
     2
 67
     7
 79
     5
170
     0
171
     0
290
     0
174
     0
 93
       13
 44
0.0
173
     0
291
     1
 45
0.0
  0
VISUALSTYLE
  5
2C
102
{ACAD_REACTORS
330
29
102
}
330
29
100
AcDbVisualStyle
  2
Gouraud
 70
     2
 71
     2
 72
     2
 73
     1
 90
        2
 40
-0.6
 41
30.0
 62
     5
 63
     7
421
 16777215
 74
     0
 91
        4
 64
     7
 65
   257
 75
     1
175
     1
 42
1.0
 92
        0
 66
     7
 43
1.0
 76
     1
 77
     6
 78
     2
 67
     7
 79
     5
170
     0
171
     0
290
     0
174
     0
 93
       13
 44
0.0
173
     0
291
     1
 45
0.0
  0
VISUALSTYLE
  5
2D
102
{ACAD_REACTORS
330
29
102
}
330
29
100
AcDbVisualStyle
  2
GouraudWithEdges
 70
     3
 71
     2
 72
     2
 73
     1
 90
        2
 40
-0.6
 41
30.0
 62
     5
 63
     7
421
 16777215
 74
     1
 91
        4
 64
     7
 65
   257
 75
     1
175
     1
 42
1.0
 92
        0
 66
   257
 43
1.0
 76
     1
 77
     6
 78
     2
 67
     7
 79
     5
170
     0
171
     0
290
     0
174
     0
 93
       13
 44
0.0
173
     0
291
     1
 45
0.0
  0
VISUALSTYLE
  5
37
102
{ACAD_REACTORS
330
29
102
}
330
29
100
AcDbVisualStyle
  2
Linepattern
 70
    14
 71
     2
 72
     2
 73
     0
 90
        0
 40
-0.6
 41
-30.0
 62
     5
 63
     7
421
 16777215
 74
     1
 91
        4
 64
     7
 65
   257
 75
     7
175
     7
 42
1.0
 92
        8
 66
     7
 43
1.0
 76
     1
 77
     6
 78
     2
 67
     7
 79
     5
170
     0
171
     0
290
     0
174
     0
 93
        1
 44
0.0
173
     0
291
     1
 45
0.0
  0
VISUALSTYLE
  5
33
102
{ACAD_REACTORS
330
29
102
}
330
29
100
AcDbVisualStyle
  2
Realistic
 70
     8
 71
     2
 72
     2
 73
     0
 90
        0
 40
-0.6
 41
-30.0
 62
     5
 63
     7
421
 16777215
 74
     1
 91
        0
 64
     7
 65
   257
 75
     1
175
     1
 42
1.0
 92
        8
 66
     8
424
  7895160
 43
1.0
 76
     1
 77
     6
 78
     2
 67
     7
 79
     5
170
     0
171
     0
290
     0
174
     0
 93
       13
 44
0.0
173
     0
291
     0
 45
0.0
  0
VISUALSTYLE
  5
36
102
{ACAD_REACTORS
330
29
102
}
330
29
100
AcDbVisualStyle
  2
Thicken
 70
    13
 71
     2
 72
     2
 73
     0
 90
        0
 40
-0.6
 41
-30.0
 62
     5
 63
     7
421
 16777215
 74
     1
 91
        4
 64
     7
 65
   257
 75
     1
175
     1
 42
1.0
 92
       12
 66
     7
 43
1.0
 76
     1
 77
     6
 78
     2
 67
     7
 79
     5
170
     0
171
     0
290
     0
174
     0
 93
        1
 44
0.0
173
     0
291
     1
 45
0.0
  0
DICTIONARYVAR
  5
167
102
{ACAD_REACTORS
330
164
102
}
330
164
100
DictionaryVariables
280
     0
  1
1:1
  0
DICTIONARYVAR
  5
166
102
{ACAD_REACTORS
330
164
102
}
330
164
100
DictionaryVariables
280
     0
  1
STANDARD
  0
DICTIONARYVAR
  5
165
102
{ACAD_REACTORS
330
164
102
}
330
164
100
DictionaryVariables
280
     0
  1
STANDARD
  0
DICTIONARY
  5
1A
330
19
100
AcDbDictionary
280
     1
281
     1
  3
BUMPTILE
360
1C
  3
DIFFUSETILE
360
1B
  3
OPACITYTILE
360
1F
  3
REFLECTIONTILE
360
1E
  3
REFRACTIONTILE
360
20
  3
SPECULARTILE
360
1D
  0
DICTIONARY
  5
12
330
11
100
AcDbDictionary
280
     1
281
     1
  3
BUMPTILE
360
14
  3
DIFFUSETILE
360
13
  3
OPACITYTILE
360
17
  3
REFLECTIONTILE
360
16
  3
REFRACTIONTILE
360
18
  3
SPECULARTILE
360
15
  0
DICTIONARY
  5
22
330
21
100
AcDbDictionary
280
     1
281
     1
  3
BUMPTILE
360
24
  3
DIFFUSETILE
360
23
  3
OPACITYTILE
360
27
  3
REFLECTIONTILE
360
26
  3
REFRACTIONTILE
360
28
  3
SPECULARTILE
360
25
  0
DICTIONARY
  5
168
330
6D
100
AcDbDictionary
280
     1
281
     1
  3
ACAD_ROUNDTRIP_2008_TABLESTYLE_CELLSTYLEMAP
360
169
  0
XRECORD
  5
1C
102
{ACAD_REACTORS
330
1A
102
}
330
1A
100
AcDbXrecord
280
     1
270
     1
271
     1
  0
XRECORD
  5
1B
102
{ACAD_REACTORS
330
1A
102
}
330
1A
100
AcDbXrecord
280
     1
270
     1
271
     1
  0
XRECORD
  5
1F
102
{ACAD_REACTORS
330
1A
102
}
330
1A
100
AcDbXrecord
280
     1
270
     1
271
     1
  0
XRECORD
  5
1E
102
{ACAD_REACTORS
330
1A
102
}
330
1A
100
AcDbXrecord
280
     1
270
     1
271
     1
  0
XRECORD
  5
20
102
{ACAD_REACTORS
330
1A
102
}
330
1A
100
AcDbXrecord
280
     1
270
     1
271
     1
  0
XRECORD
  5
1D
102
{ACAD_REACTORS
330
1A
102
}
330
1A
100
AcDbXrecord
280
     1
270
     1
271
     1
  0
XRECORD
  5
14
102
{ACAD_REACTORS
330
12
102
}
330
12
100
AcDbXrecord
280
     1
270
     1
271
     1
  0
XRECORD
  5
13
102
{ACAD_REACTORS
330
12
102
}
330
12
100
AcDbXrecord
280
     1
270
     1
271
     1
  0
XRECORD
  5
17
102
{ACAD_REACTORS
330
12
102
}
330
12
100
AcDbXrecord
280
     1
270
     1
271
     1
  0
XRECORD
  5
16
102
{ACAD_REACTORS
330
12
102
}
330
12
100
AcDbXrecord
280
     1
270
     1
271
     1
  0
XRECORD
  5
18
102
{ACAD_REACTORS
330
12
102
}
330
12
100
AcDbXrecord
280
     1
270
     1
271
     1
  0
XRECORD
  5
15
102
{ACAD_REACTORS
330
12
102
}
330
12
100
AcDbXrecord
280
     1
270
     1
271
     1
  0
XRECORD
  5
24
102
{ACAD_REACTORS
330
22
102
}
330
22
100
AcDbXrecord
280
     1
270
     1
271
     1
  0
XRECORD
  5
23
102
{ACAD_REACTORS
330
22
102
}
330
22
100
AcDbXrecord
280
     1
270
     1
271
     1
  0
XRECORD
  5
27
102
{ACAD_REACTORS
330
22
102
}
330
22
100
AcDbXrecord
280
     1
270
     1
271
     1
  0
XRECORD
  5
26
102
{ACAD_REACTORS
330
22
102
}
330
22
100
AcDbXrecord
280
     1
270
     1
271
     1
  0
XRECORD
  5
28
102
{ACAD_REACTORS
330
22
102
}
330
22
100
AcDbXrecord
280
     1
270
     1
271
     1
  0
XRECORD
  5
25
102
{ACAD_REACTORS
330
22
102
}
330
22
100
AcDbXrecord
280
     1
270
     1
271
     1
  0
CELLSTYLEMAP
  5
169
102
{ACAD_REACTORS
330
168
102
}
330
168
100
AcDbCellStyleMap
 90
        3
300
CELLSTYLE
  1
TABLEFORMAT_BEGIN
 90
        5
170
     1
 91
        0
 92
    32768
 62
   257
 93
        1
300
CONTENTFORMAT
  1
CONTENTFORMAT_BEGIN
 90
        0
 91
        0
 92
      512
 93
        0
300

 40
0.0
140
1.0
 94
        5
 62
     0
340
5D
144
0.25
309
CONTENTFORMAT_END
171
     0
 94
        0
309
TABLEFORMAT_END
  1
CELLSTYLE_BEGIN
 90
        1
 91
        1
300
_TITLE
309
CELLSTYLE_END
300
CELLSTYLE
  1
TABLEFORMAT_BEGIN
 90
        5
170
     1
 91
        0
 92
        0
 62
   257
 93
        1
300
CONTENTFORMAT
  1
CONTENTFORMAT_BEGIN
 90
        0
 91
        0
 92
      512
 93
        0
300

 40
0.0
140
1.0
 94
        5
 62
     0
340
5D
144
0.18
309
CONTENTFORMAT_END
171
     0
 94
        0
309
TABLEFORMAT_END
  1
CELLSTYLE_BEGIN
 90
        2
 91
        1
300
_HEADER
309
CELLSTYLE_END
300
CELLSTYLE
  1
TABLEFORMAT_BEGIN
 90
        5
170
     1
 91
        0
 92
        0
 62
   257
 93
        1
300
CONTENTFORMAT
  1
CONTENTFORMAT_BEGIN
 90
        0
 91
        0
 92
      512
 93
        0
300

 40
0.0
140
1.0
 94
        2
 62
     0
340
5D
144
0.18
309
CONTENTFORMAT_END
171
     0
 94
        0
309
TABLEFORMAT_END
  1
CELLSTYLE_BEGIN
 90
        3
 91
        2
300
_DATA
309
CELLSTYLE_END
  0
ENDSEC
  0
EOF
