%FSLAX23Y23*%
%MOIN*%
G04 EasyPC Gerber Version 16.0.6 Build 3249 *
%ADD10C,0.00100*%
%ADD95C,0.00200*%
%ADD96C,0.00300*%
%ADD91C,0.00360*%
%ADD90C,0.00400*%
%ADD11C,0.00500*%
%ADD94C,0.00600*%
%ADD92C,0.00700*%
%ADD89C,0.00787*%
%ADD93C,0.00800*%
X0Y0D02*
D02*
D10*
X346Y765D02*
Y781D01*
X380*
Y765*
X346*
G36*
Y781*
X380*
Y765*
X346*
G37*
Y815D02*
Y831D01*
X380*
Y815*
X346*
G36*
Y831*
X380*
Y815*
X346*
G37*
X347Y790D02*
Y806D01*
X378*
Y790*
X347*
G36*
Y806*
X378*
Y790*
X347*
G37*
X703Y1959D02*
Y2014D01*
X723*
Y1959*
X703*
G36*
Y2014*
X723*
Y1959*
X703*
G37*
Y2313D02*
Y2368D01*
X723*
Y2313*
X703*
G36*
Y2368*
X723*
Y2313*
X703*
G37*
X753Y1959D02*
Y2014D01*
X773*
Y1959*
X753*
G36*
Y2014*
X773*
Y1959*
X753*
G37*
Y2313D02*
Y2368D01*
X773*
Y2313*
X753*
G36*
Y2368*
X773*
Y2313*
X753*
G37*
X803Y1959D02*
Y2014D01*
X823*
Y1959*
X803*
G36*
Y2014*
X823*
Y1959*
X803*
G37*
Y2313D02*
Y2368D01*
X823*
Y2313*
X803*
G36*
Y2368*
X823*
Y2313*
X803*
G37*
X853Y1959D02*
Y2014D01*
X873*
Y1959*
X853*
G36*
Y2014*
X873*
Y1959*
X853*
G37*
Y2313D02*
Y2368D01*
X873*
Y2313*
X853*
G36*
Y2368*
X873*
Y2313*
X853*
G37*
X903Y1959D02*
Y2014D01*
X923*
Y1959*
X903*
G36*
Y2014*
X923*
Y1959*
X903*
G37*
Y2313D02*
Y2368D01*
X923*
Y2313*
X903*
G36*
Y2368*
X923*
Y2313*
X903*
G37*
X953Y1959D02*
Y2014D01*
X973*
Y1959*
X953*
G36*
Y2014*
X973*
Y1959*
X953*
G37*
Y2313D02*
Y2368D01*
X973*
Y2313*
X953*
G36*
Y2368*
X973*
Y2313*
X953*
G37*
X1003Y1959D02*
Y2014D01*
X1023*
Y1959*
X1003*
G36*
Y2014*
X1023*
Y1959*
X1003*
G37*
Y2313D02*
Y2368D01*
X1023*
Y2313*
X1003*
G36*
Y2368*
X1023*
Y2313*
X1003*
G37*
X1053Y1959D02*
Y2014D01*
X1073*
Y1959*
X1053*
G36*
Y2014*
X1073*
Y1959*
X1053*
G37*
Y2313D02*
Y2368D01*
X1073*
Y2313*
X1053*
G36*
Y2368*
X1073*
Y2313*
X1053*
G37*
X1103Y1959D02*
Y2014D01*
X1123*
Y1959*
X1103*
G36*
Y2014*
X1123*
Y1959*
X1103*
G37*
Y2313D02*
Y2368D01*
X1123*
Y2313*
X1103*
G36*
Y2368*
X1123*
Y2313*
X1103*
G37*
X1239Y1530D02*
Y1451D01*
X1215*
X1207Y1467*
X1223*
Y1530*
X1239*
G36*
Y1451*
X1215*
X1207Y1467*
X1223*
Y1530*
X1239*
G37*
X1298D02*
Y1451D01*
X1250*
Y1475*
X1290*
Y1483*
X1250*
Y1498*
X1290*
Y1506*
X1250*
Y1530*
X1298*
G36*
Y1451*
X1250*
Y1475*
X1290*
Y1483*
X1250*
Y1498*
X1290*
Y1506*
X1250*
Y1530*
X1298*
G37*
X1373D02*
Y1451D01*
X1357*
Y1522*
X1349*
Y1451*
X1333*
Y1522*
X1325*
Y1451*
X1310*
Y1514*
X1313Y1522*
X1317Y1526*
X1325Y1530*
X1373*
G36*
Y1451*
X1357*
Y1522*
X1349*
Y1451*
X1333*
Y1522*
X1325*
Y1451*
X1310*
Y1514*
X1313Y1522*
X1317Y1526*
X1325Y1530*
X1373*
G37*
X1432Y1542D02*
X1424Y1557D01*
X1203*
Y1542*
X1384*
Y1451*
X1400*
Y1542*
X1432*
G36*
X1424Y1557*
X1203*
Y1542*
X1384*
Y1451*
X1400*
Y1542*
X1432*
G37*
X1475Y1443D02*
Y1428D01*
X1227*
X1219Y1443*
X1475*
G36*
Y1428*
X1227*
X1219Y1443*
X1475*
G37*
Y1451D02*
X1435Y1530D01*
X1412*
Y1451*
X1428*
Y1506*
X1451Y1459*
X1443*
Y1451*
X1475*
G36*
X1435Y1530*
X1412*
Y1451*
X1428*
Y1506*
X1451Y1459*
X1443*
Y1451*
X1475*
G37*
X1895Y2138D02*
X1881D01*
Y2178*
X1895*
Y2138*
G36*
X1881*
Y2178*
X1895*
Y2138*
G37*
Y2328D02*
X1881D01*
Y2368*
X1895*
Y2328*
G36*
X1881*
Y2368*
X1895*
Y2328*
G37*
X1945Y2138D02*
X1931D01*
Y2178*
X1945*
Y2138*
G36*
X1931*
Y2178*
X1945*
Y2138*
G37*
Y2328D02*
X1931D01*
Y2368*
X1945*
Y2328*
G36*
X1931*
Y2368*
X1945*
Y2328*
G37*
X1974Y1785D02*
Y1808D01*
X2053*
Y1785*
X1974*
G36*
Y1808*
X2053*
Y1785*
X1974*
G37*
X1995Y2138D02*
X1981D01*
Y2178*
X1995*
Y2138*
G36*
X1981*
Y2178*
X1995*
Y2138*
G37*
Y2328D02*
X1981D01*
Y2368*
X1995*
Y2328*
G36*
X1981*
Y2368*
X1995*
Y2328*
G37*
X2045Y2138D02*
X2031D01*
Y2178*
X2045*
Y2138*
G36*
X2031*
Y2178*
X2045*
Y2138*
G37*
Y2328D02*
X2031D01*
Y2368*
X2045*
Y2328*
G36*
X2031*
Y2368*
X2045*
Y2328*
G37*
X2558Y2060D02*
X2528D01*
Y2117*
X2558*
Y2060*
G36*
X2528*
Y2117*
X2558*
Y2060*
G37*
X2576Y2073D02*
X2568D01*
Y2104*
X2576*
Y2073*
G36*
X2568*
Y2104*
X2576*
Y2073*
G37*
X2615Y2060D02*
X2585D01*
Y2117*
X2615*
Y2060*
G36*
X2585*
Y2117*
X2615*
Y2060*
G37*
D02*
D11*
X488Y288D02*
Y188D01*
X538Y238D02*
X438D01*
X693Y470D02*
X783D01*
Y435*
X693*
Y470*
Y640D02*
X783D01*
Y605*
X693*
Y640*
X798Y488D02*
X678D01*
X813Y410D02*
Y372D01*
X781*
X763D02*
Y410D01*
X731*
X738Y391D02*
X763D01*
Y372D02*
X731D01*
X713D02*
Y410D01*
X694*
X688Y407*
X685Y404*
X681Y397*
Y385*
X685Y379*
X688Y375*
X694Y372*
X713*
X638D02*
X663D01*
X641Y394*
X638Y400*
X641Y407*
X647Y410*
X656*
X663Y407*
X872Y638D02*
X910D01*
Y660*
X906Y666*
X900Y669*
X894Y666*
X891Y660*
Y638*
Y660D02*
X872Y669D01*
Y713D02*
Y688D01*
X894Y710*
X900Y713*
X906Y710*
X910Y704*
Y694*
X906Y688*
X1063Y2088D02*
G75*
G02X1113I25D01*
G01*
G75*
G02X1063I-25*
G01*
X1088Y988D02*
X1538D01*
Y788*
X1088*
Y988*
X1103Y2247D02*
X1091D01*
X1097D02*
Y2285D01*
X1103D02*
X1091D01*
X1031Y2254D02*
X1035Y2250D01*
X1041Y2247*
X1050*
X1056Y2250*
X1060Y2254*
X1063Y2260*
Y2272*
X1060Y2279*
X1056Y2282*
X1050Y2285*
X1041*
X1035Y2282*
X1031Y2279*
X1006Y2247D02*
X994D01*
X1000D02*
Y2285D01*
X1006Y2279*
X1143Y470D02*
X1233D01*
Y435*
X1143*
Y470*
Y640D02*
X1233D01*
Y605*
X1143*
Y640*
X1162Y1649D02*
Y1620D01*
X1158Y1614*
X1152Y1611*
X1140*
X1133Y1614*
X1130Y1620*
Y1649*
X1105Y1611D02*
X1093D01*
X1099D02*
Y1649D01*
X1105Y1642*
X1206Y1801D02*
X1171D01*
Y1816*
X1206*
Y1801*
Y1851D02*
X1171D01*
Y1866*
X1206*
Y1851*
X1230Y1056D02*
Y1021D01*
X1215*
Y1056*
X1230*
X1206Y1879D02*
X1210Y1875D01*
X1216Y1872*
X1225*
X1231Y1875*
X1235Y1879*
X1238Y1885*
Y1897*
X1235Y1904*
X1231Y1907*
X1225Y1910*
X1216*
X1210Y1907*
X1206Y1904*
X1188Y1875D02*
X1181Y1872D01*
X1172*
X1166Y1875*
X1163Y1882*
Y1885*
X1166Y1891*
X1172Y1894*
X1188*
Y1910*
X1163*
X1248Y488D02*
X1128D01*
X1263Y410D02*
Y372D01*
X1231*
X1213D02*
Y410D01*
X1181*
X1188Y391D02*
X1213D01*
Y372D02*
X1181D01*
X1163D02*
Y410D01*
X1144*
X1138Y407*
X1135Y404*
X1131Y397*
Y385*
X1135Y379*
X1138Y375*
X1144Y372*
X1163*
X1110Y375D02*
X1103Y372D01*
X1097*
X1091Y375*
X1088Y382*
X1091Y388*
X1097Y391*
X1103*
X1097D02*
X1091Y394D01*
X1088Y400*
X1091Y407*
X1097Y410*
X1103*
X1110Y407*
X1246Y1069D02*
X1250Y1065D01*
X1256Y1062*
X1265*
X1271Y1065*
X1275Y1069*
X1278Y1075*
Y1087*
X1275Y1094*
X1271Y1097*
X1265Y1100*
X1256*
X1250Y1097*
X1246Y1094*
X1228Y1062D02*
X1203Y1100D01*
X1228*
X1280Y1056D02*
Y1021D01*
X1265*
Y1056*
X1280*
X1288Y813D02*
X1438D01*
G75*
G03X1513Y888J75*
G01*
G75*
G03X1438Y963I-75*
G01*
X1188*
G75*
G03X1113Y888J-75*
G01*
G75*
G03X1188Y813I75*
G01*
X1288*
X1322Y638D02*
X1360D01*
Y660*
X1356Y666*
X1350Y669*
X1344Y666*
X1341Y660*
Y638*
Y660D02*
X1322Y669D01*
X1325Y691D02*
X1322Y697D01*
Y704*
X1325Y710*
X1331Y713*
X1338Y710*
X1341Y704*
Y697*
Y704D02*
X1344Y710D01*
X1350Y713*
X1356Y710*
X1360Y704*
Y697*
X1356Y691*
X1346Y1020D02*
Y1055D01*
X1361*
Y1020*
X1346*
X1396D02*
Y1055D01*
X1411*
Y1020*
X1396*
X1413Y822D02*
X1381Y860D01*
X1413D02*
X1381Y822D01*
X1347D02*
Y860D01*
X1363D02*
X1331D01*
X1313Y822D02*
X1297Y860D01*
X1281Y822*
X1306Y838D02*
X1288D01*
X1263Y860D02*
Y822D01*
X1231*
X1206D02*
X1194D01*
X1200D02*
Y860D01*
X1206Y854*
X1386Y1069D02*
X1390Y1065D01*
X1396Y1062*
X1405*
X1411Y1065*
X1415Y1069*
X1418Y1075*
Y1087*
X1415Y1094*
X1411Y1097*
X1405Y1100*
X1396*
X1390Y1097*
X1386Y1094*
X1368Y1072D02*
X1365Y1078D01*
X1358Y1081*
X1352*
X1346Y1078*
X1343Y1072*
X1346Y1065*
X1352Y1062*
X1358*
X1365Y1065*
X1368Y1072*
Y1081*
X1365Y1090*
X1358Y1097*
X1352Y1100*
X1467Y1302D02*
X1449D01*
X1427Y1293D02*
X1418D01*
X1423D02*
Y1320D01*
X1427Y1315*
X1397Y1300D02*
X1394Y1304D01*
X1390Y1306*
X1386*
X1381Y1304*
X1379Y1300*
X1381Y1295*
X1386Y1293*
X1390*
X1394Y1295*
X1397Y1300*
Y1306*
X1394Y1313*
X1390Y1317*
X1386Y1320*
X1362Y1293D02*
X1351Y1320D01*
X1340Y1293*
X1357Y1304D02*
X1344D01*
X1327Y1320D02*
Y1300D01*
X1324Y1295*
X1320Y1293*
X1311*
X1307Y1295*
X1305Y1300*
Y1320*
X1467Y1334D02*
X1454Y1364D01*
X1442Y1334*
X1462Y1347D02*
X1447D01*
X1414Y1334D02*
Y1364D01*
X1427D02*
X1402D01*
X1379Y1334D02*
X1374Y1337D01*
X1369Y1342*
X1367Y1349*
Y1357*
X1369Y1362*
X1374Y1364*
X1379*
X1384Y1362*
X1387Y1357*
X1384Y1352*
X1379Y1349*
X1374*
X1369Y1352*
X1367Y1357*
X1344Y1337D02*
X1339Y1334D01*
X1334*
X1329Y1337*
X1327Y1342*
Y1357*
X1329Y1362*
X1334Y1364*
X1339*
X1344Y1362*
X1347Y1357*
Y1342*
X1344Y1337*
X1329Y1362*
X1282Y1339D02*
X1284Y1337D01*
X1289Y1334*
X1297*
X1302Y1337*
X1304Y1339*
X1307Y1344*
Y1354*
X1304Y1359*
X1302Y1362*
X1297Y1364*
X1289*
X1284Y1362*
X1282Y1359*
X1267Y1334D02*
X1254Y1364D01*
X1242Y1334*
X1262Y1347D02*
X1247D01*
X1227Y1334D02*
Y1364D01*
X1202Y1334*
Y1364*
X1184Y1337D02*
X1179Y1334D01*
X1174*
X1169Y1337*
X1167Y1342*
X1169Y1347*
X1174Y1349*
X1179*
X1174D02*
X1169Y1352D01*
X1167Y1357*
X1169Y1362*
X1174Y1364*
X1179*
X1184Y1362*
X1127Y1334D02*
X1147D01*
X1129Y1352*
X1127Y1357*
X1129Y1362*
X1134Y1364*
X1142*
X1147Y1362*
X1471Y1020D02*
Y1055D01*
X1486*
Y1020*
X1471*
X1492Y1612D02*
G75*
G02X1487Y1647I-3J18D01*
G01*
G75*
G02X1492Y1612I3J-18*
G01*
X1521Y1020D02*
Y1055D01*
X1536*
Y1020*
X1521*
Y1795D02*
Y1830D01*
X1536*
Y1795*
X1521*
X1531Y1871D02*
X1496D01*
Y1886*
X1531*
Y1871*
Y1921D02*
X1496D01*
Y1936*
X1531*
Y1921*
X1501Y1074D02*
X1505Y1070D01*
X1511Y1067*
X1520*
X1526Y1070*
X1530Y1074*
X1533Y1080*
Y1092*
X1530Y1099*
X1526Y1102*
X1520Y1105*
X1511*
X1505Y1102*
X1501Y1099*
X1467Y1067D02*
Y1105D01*
X1483Y1080*
X1458*
X1506Y1954D02*
X1510Y1950D01*
X1516Y1947*
X1525*
X1531Y1950*
X1535Y1954*
X1538Y1960*
Y1972*
X1535Y1979*
X1531Y1982*
X1525Y1985*
X1516*
X1510Y1982*
X1506Y1979*
X1485Y1950D02*
X1478Y1947D01*
X1472*
X1466Y1950*
X1463Y1957*
X1466Y1963*
X1472Y1966*
X1478*
X1472D02*
X1466Y1969D01*
X1463Y1975*
X1466Y1982*
X1472Y1985*
X1478*
X1485Y1982*
X1571Y1795D02*
Y1830D01*
X1586*
Y1795*
X1571*
X1556Y1754D02*
X1560Y1750D01*
X1566Y1747*
X1575*
X1581Y1750*
X1585Y1754*
X1588Y1760*
Y1772*
X1585Y1779*
X1581Y1782*
X1575Y1785*
X1566*
X1560Y1782*
X1556Y1779*
X1513Y1747D02*
X1538D01*
X1516Y1769*
X1513Y1775*
X1516Y1782*
X1522Y1785*
X1531*
X1538Y1782*
X1593Y470D02*
X1683D01*
Y435*
X1593*
Y470*
Y640D02*
X1683D01*
Y605*
X1593*
Y640*
X1698Y488D02*
X1578D01*
X1713Y410D02*
Y372D01*
X1681*
X1663D02*
Y410D01*
X1631*
X1638Y391D02*
X1663D01*
Y372D02*
X1631D01*
X1613D02*
Y410D01*
X1594*
X1588Y407*
X1585Y404*
X1581Y397*
Y385*
X1585Y379*
X1588Y375*
X1594Y372*
X1613*
X1547D02*
Y410D01*
X1563Y385*
X1538*
X1772Y638D02*
X1810D01*
Y660*
X1806Y666*
X1800Y669*
X1794Y666*
X1791Y660*
Y638*
Y660D02*
X1772Y669D01*
Y704D02*
X1810D01*
X1785Y688*
Y713*
X1878Y2019D02*
X1875Y2016D01*
X1872Y2010*
Y2000*
X1875Y1994*
X1878Y1991*
X1885Y1988*
X1897*
X1903Y1991*
X1906Y1994*
X1910Y2000*
Y2010*
X1906Y2016*
X1903Y2019*
X1891Y2047D02*
Y2054D01*
X1894Y2060*
X1900Y2063*
X1906Y2060*
X1910Y2054*
Y2047*
X1906Y2041*
X1900Y2038*
X1894Y2041*
X1891Y2047*
X1888Y2041*
X1881Y2038*
X1875Y2041*
X1872Y2047*
Y2054*
X1875Y2060*
X1881Y2063*
X1888Y2060*
X1891Y2054*
X1863Y2328D02*
X2063D01*
Y2178*
X1863*
Y2328*
X1956Y1996D02*
X1921D01*
Y2011*
X1956*
Y1996*
Y2046D02*
X1921D01*
Y2061*
X1956*
Y2046*
X1963Y2260D02*
Y2232D01*
X1960Y2225*
X1953Y2222*
X1941*
X1935Y2225*
X1931Y2232*
Y2260*
X1888Y2222D02*
X1913D01*
X1891Y2244*
X1888Y2250*
X1891Y2257*
X1897Y2260*
X1906*
X1913Y2257*
X2028Y588D02*
X2148D01*
X2113Y822D02*
Y860D01*
X2094*
X2088Y857*
X2085Y854*
X2081Y847*
Y835*
X2085Y829*
X2088Y825*
X2094Y822*
X2113*
X2038D02*
X2063D01*
X2041Y844*
X2038Y850*
X2041Y857*
X2047Y860*
X2056*
X2063Y857*
X2133Y436D02*
X2043D01*
Y471*
X2133*
Y436*
Y606D02*
X2043D01*
Y641*
X2133*
Y606*
X2148Y798D02*
Y728D01*
X2033*
Y798*
X2148*
X2163Y410D02*
Y372D01*
X2131*
X2113D02*
Y410D01*
X2081*
X2088Y391D02*
X2113D01*
Y372D02*
X2081D01*
X2063D02*
Y410D01*
X2044*
X2038Y407*
X2035Y404*
X2031Y397*
Y385*
X2035Y379*
X2038Y375*
X2044Y372*
X2063*
X2006D02*
X1994D01*
X2000D02*
Y410D01*
X2006Y404*
X2213Y1800D02*
X2188D01*
Y1875*
X2213*
Y1800*
X2238Y501D02*
Y376D01*
X2213*
Y501*
X2238*
X2313Y1800D02*
X2288D01*
Y1875*
X2313*
Y1800*
Y1935D02*
Y1897D01*
X2281*
X2256D02*
X2244D01*
X2250D02*
Y1935D01*
X2256Y1929*
X2363Y522D02*
Y560D01*
X2341*
X2335Y557*
X2331Y550*
X2335Y544*
X2341Y541*
X2363*
X2341D02*
X2331Y522D01*
X2313Y525D02*
X2306Y522D01*
X2297*
X2291Y525*
X2288Y532*
Y535*
X2291Y541*
X2297Y544*
X2313*
Y560*
X2288*
X2428Y2253D02*
Y2323D01*
X2543*
Y2253*
X2428*
X2430Y2106D02*
Y2071D01*
X2415*
Y2106*
X2430*
X2463Y501D02*
Y376D01*
X2438*
Y501*
X2463*
X2480Y2106D02*
Y2071D01*
X2465*
Y2106*
X2480*
X2456Y2029D02*
X2460Y2025D01*
X2466Y2022*
X2475*
X2481Y2025*
X2485Y2029*
X2488Y2035*
Y2047*
X2485Y2054*
X2481Y2057*
X2475Y2060*
X2466*
X2460Y2057*
X2456Y2054*
X2431Y2022D02*
X2419D01*
X2425D02*
Y2060D01*
X2431Y2054*
X2388Y2025D02*
X2381Y2022D01*
X2372*
X2366Y2025*
X2363Y2032*
Y2035*
X2366Y2041*
X2372Y2044*
X2388*
Y2060*
X2363*
X2513Y2347D02*
Y2385D01*
X2494*
X2488Y2382*
X2485Y2379*
X2481Y2372*
Y2360*
X2485Y2354*
X2488Y2350*
X2494Y2347*
X2513*
X2456D02*
X2444D01*
X2450D02*
Y2385D01*
X2456Y2379*
X2618Y470D02*
X2708D01*
Y435*
X2618*
Y470*
Y640D02*
X2708D01*
Y605*
X2618*
Y640*
X2723Y488D02*
X2603D01*
X2738Y410D02*
Y372D01*
X2706*
X2688D02*
Y410D01*
X2656*
X2663Y391D02*
X2688D01*
Y372D02*
X2656D01*
X2638D02*
Y410D01*
X2619*
X2613Y407*
X2610Y404*
X2606Y397*
Y385*
X2610Y379*
X2613Y375*
X2619Y372*
X2638*
X2588Y375D02*
X2581Y372D01*
X2572*
X2566Y375*
X2563Y382*
Y385*
X2566Y391*
X2572Y394*
X2588*
Y410*
X2563*
X2797Y638D02*
X2835D01*
Y660*
X2831Y666*
X2825Y669*
X2819Y666*
X2816Y660*
Y638*
Y660D02*
X2797Y669D01*
X2806Y688D02*
X2813Y691D01*
X2816Y697*
Y704*
X2813Y710*
X2806Y713*
X2800Y710*
X2797Y704*
Y697*
X2800Y691*
X2806Y688*
X2816*
X2825Y691*
X2831Y697*
X2835Y704*
X2893Y470D02*
X2983D01*
Y435*
X2893*
Y470*
Y640D02*
X2983D01*
Y605*
X2893*
Y640*
X2998Y488D02*
X2878D01*
X3013Y410D02*
Y372D01*
X2981*
X2963D02*
Y410D01*
X2931*
X2938Y391D02*
X2963D01*
Y372D02*
X2931D01*
X2913D02*
Y410D01*
X2894*
X2888Y407*
X2885Y404*
X2881Y397*
Y385*
X2885Y379*
X2888Y375*
X2894Y372*
X2913*
X2863Y382D02*
X2860Y388D01*
X2853Y391*
X2847*
X2841Y388*
X2838Y382*
X2841Y375*
X2847Y372*
X2853*
X2860Y375*
X2863Y382*
Y391*
X2860Y400*
X2853Y407*
X2847Y410*
X3072Y638D02*
X3110D01*
Y660*
X3106Y666*
X3100Y669*
X3094Y666*
X3091Y660*
Y638*
Y660D02*
X3072Y669D01*
Y688D02*
X3110Y713D01*
Y688*
X3218Y470D02*
X3308D01*
Y435*
X3218*
Y470*
Y640D02*
X3308D01*
Y605*
X3218*
Y640*
X3323Y488D02*
X3203D01*
X3338Y410D02*
Y372D01*
X3306*
X3288D02*
Y410D01*
X3256*
X3263Y391D02*
X3288D01*
Y372D02*
X3256D01*
X3238D02*
Y410D01*
X3219*
X3213Y407*
X3210Y404*
X3206Y397*
Y385*
X3210Y379*
X3213Y375*
X3219Y372*
X3238*
X3188D02*
X3163Y410D01*
X3188*
X3397Y638D02*
X3435D01*
Y660*
X3431Y666*
X3425Y669*
X3419Y666*
X3416Y660*
Y638*
Y660D02*
X3397Y669D01*
X3416Y697D02*
Y704D01*
X3419Y710*
X3425Y713*
X3431Y710*
X3435Y704*
Y697*
X3431Y691*
X3425Y688*
X3419Y691*
X3416Y697*
X3413Y691*
X3406Y688*
X3400Y691*
X3397Y697*
Y704*
X3400Y710*
X3406Y713*
X3413Y710*
X3416Y704*
X3493Y470D02*
X3583D01*
Y435*
X3493*
Y470*
Y640D02*
X3583D01*
Y605*
X3493*
Y640*
X3598Y488D02*
X3478D01*
X3613Y410D02*
Y372D01*
X3581*
X3563D02*
Y410D01*
X3531*
X3538Y391D02*
X3563D01*
Y372D02*
X3531D01*
X3513D02*
Y410D01*
X3494*
X3488Y407*
X3485Y404*
X3481Y397*
Y385*
X3485Y379*
X3488Y375*
X3494Y372*
X3513*
X3453Y391D02*
X3447D01*
X3441Y394*
X3438Y400*
X3441Y407*
X3447Y410*
X3453*
X3460Y407*
X3463Y400*
X3460Y394*
X3453Y391*
X3460Y388*
X3463Y382*
X3460Y375*
X3453Y372*
X3447*
X3441Y375*
X3438Y382*
X3441Y388*
X3447Y391*
X3672Y638D02*
X3710D01*
Y660*
X3706Y666*
X3700Y669*
X3694Y666*
X3691Y660*
Y638*
Y660D02*
X3672Y669D01*
Y697D02*
X3675Y704D01*
X3681Y710*
X3691Y713*
X3700*
X3706Y710*
X3710Y704*
Y697*
X3706Y691*
X3700Y688*
X3694Y691*
X3691Y697*
Y704*
X3694Y710*
X3700Y713*
X3893Y470D02*
X3983D01*
Y435*
X3893*
Y470*
Y640D02*
X3983D01*
Y605*
X3893*
Y640*
X3998Y488D02*
X3878D01*
X4013Y410D02*
Y372D01*
X3981*
X3963D02*
Y410D01*
X3931*
X3938Y391D02*
X3963D01*
Y372D02*
X3931D01*
X3913D02*
Y410D01*
X3894*
X3888Y407*
X3885Y404*
X3881Y397*
Y385*
X3885Y379*
X3888Y375*
X3894Y372*
X3913*
X3853D02*
X3847Y375D01*
X3841Y382*
X3838Y391*
Y400*
X3841Y407*
X3847Y410*
X3853*
X3860Y407*
X3863Y400*
X3860Y394*
X3853Y391*
X3847*
X3841Y394*
X3838Y400*
X4072Y638D02*
X4110D01*
Y660*
X4106Y666*
X4100Y669*
X4094Y666*
X4091Y660*
Y638*
Y660D02*
X4072Y669D01*
Y694D02*
Y707D01*
Y700D02*
X4110D01*
X4103Y694*
X4075Y741D02*
X4072Y747D01*
Y754*
X4075Y760*
X4081Y763*
X4100*
X4106Y760*
X4110Y754*
Y747*
X4106Y741*
X4100Y738*
X4081*
X4075Y741*
X4106Y760*
X4343Y470D02*
X4433D01*
Y435*
X4343*
Y470*
Y640D02*
X4433D01*
Y605*
X4343*
Y640*
X4448Y488D02*
X4328D01*
X4463Y410D02*
Y372D01*
X4431*
X4413D02*
Y410D01*
X4381*
X4388Y391D02*
X4413D01*
Y372D02*
X4381D01*
X4363D02*
Y410D01*
X4344*
X4338Y407*
X4335Y404*
X4331Y397*
Y385*
X4335Y379*
X4338Y375*
X4344Y372*
X4363*
X4306D02*
X4294D01*
X4300D02*
Y410D01*
X4306Y404*
X4260Y375D02*
X4253Y372D01*
X4247*
X4241Y375*
X4238Y382*
Y400*
X4241Y407*
X4247Y410*
X4253*
X4260Y407*
X4263Y400*
Y382*
X4260Y375*
X4241Y407*
X4522Y638D02*
X4560D01*
Y660*
X4556Y666*
X4550Y669*
X4544Y666*
X4541Y660*
Y638*
Y660D02*
X4522Y669D01*
Y694D02*
Y707D01*
Y700D02*
X4560D01*
X4553Y694*
X4522Y744D02*
Y757D01*
Y750D02*
X4560D01*
X4553Y744*
X4613Y1347D02*
Y1385D01*
X4594*
X4588Y1382*
X4585Y1379*
X4581Y1372*
Y1360*
X4585Y1354*
X4588Y1350*
X4594Y1347*
X4613*
X4547D02*
Y1385D01*
X4563Y1360*
X4538*
X4638Y1283D02*
X4788D01*
Y1268*
X4638*
Y1283*
G36*
X4788*
Y1268*
X4638*
Y1283*
G37*
X4670Y1302D02*
X4755D01*
Y1242*
X4670*
Y1302*
Y1442D02*
X4755D01*
Y1382*
X4670*
Y1442*
X5121Y2837D02*
Y3D01*
X3*
Y2837*
X5121*
D02*
D89*
X1542Y1187D02*
X1527Y1172D01*
X1047*
X1032Y1187*
Y1667*
X1047Y1682*
X1527*
X1542Y1667*
Y1187*
D02*
D90*
X407Y755D02*
X445D01*
Y777*
X441Y783*
X435Y786*
X429Y783*
X426Y777*
Y755*
Y777D02*
X407Y786D01*
Y811D02*
Y824D01*
Y817D02*
X445D01*
X438Y811*
X813Y638D02*
Y658D01*
X863*
Y638*
X813*
Y698D02*
Y718D01*
X863*
Y698*
X813*
X1164Y1447D02*
G75*
G02X1203I20D01*
G01*
G75*
G02X1164I-20*
G01*
X1263Y638D02*
Y658D01*
X1313*
Y638*
X1263*
Y698D02*
Y718D01*
X1313*
Y698*
X1263*
X1311Y1513D02*
G75*
G02X1327Y1528I16D01*
G01*
X1708Y1793D02*
X1648D01*
Y1833*
X1708*
Y1793*
X1713Y638D02*
Y658D01*
X1763*
Y638*
X1713*
Y698D02*
Y718D01*
X1763*
Y698*
X1713*
X1788Y1935D02*
Y1897D01*
X1756*
X1713D02*
X1738D01*
X1716Y1919*
X1713Y1925*
X1716Y1932*
X1722Y1935*
X1731*
X1738Y1932*
X1853Y1793D02*
X1793D01*
Y1833*
X1853*
Y1793*
X2013Y2213D02*
G75*
G02X2051Y2207I19J-3D01*
G01*
G75*
G02X2013Y2213I-19J3*
G01*
X2058Y798D02*
Y728D01*
X2048*
Y798*
X2058*
G36*
Y728*
X2048*
Y798*
X2058*
G37*
X2031Y1879D02*
X2035Y1875D01*
X2041Y1872*
X2050*
X2056Y1875*
X2060Y1879*
X2063Y1885*
Y1897*
X2060Y1904*
X2056Y1907*
X2050Y1910*
X2041*
X2035Y1907*
X2031Y1904*
X2006Y1872D02*
X1994D01*
X2000D02*
Y1910D01*
X2006Y1904*
X2518Y2253D02*
Y2323D01*
X2528*
Y2253*
X2518*
G36*
Y2323*
X2528*
Y2253*
X2518*
G37*
X2586Y2062D02*
X2557D01*
X2587Y2114D02*
X2557D01*
X2606Y2129D02*
X2610Y2125D01*
X2616Y2122*
X2625*
X2631Y2125*
X2635Y2129*
X2638Y2135*
Y2147*
X2635Y2154*
X2631Y2157*
X2625Y2160*
X2616*
X2610Y2157*
X2606Y2154*
X2581Y2122D02*
X2569D01*
X2575D02*
Y2160D01*
X2581Y2154*
X2522Y2122D02*
Y2160D01*
X2538Y2135*
X2513*
X2738Y638D02*
Y658D01*
X2788*
Y638*
X2738*
Y698D02*
Y718D01*
X2788*
Y698*
X2738*
X3013Y638D02*
Y658D01*
X3063*
Y638*
X3013*
Y698D02*
Y718D01*
X3063*
Y698*
X3013*
X3338Y638D02*
Y658D01*
X3388*
Y638*
X3338*
Y698D02*
Y718D01*
X3388*
Y698*
X3338*
X3613Y638D02*
Y658D01*
X3663*
Y638*
X3613*
Y698D02*
Y718D01*
X3663*
Y698*
X3613*
X4013Y638D02*
Y658D01*
X4063*
Y638*
X4013*
Y698D02*
Y718D01*
X4063*
Y698*
X4013*
X4463Y638D02*
Y658D01*
X4513*
Y638*
X4463*
Y698D02*
Y718D01*
X4513*
Y698*
X4463*
D02*
D91*
X1191Y1440D02*
Y1458D01*
X1181*
X1178Y1456*
X1176Y1453*
X1178Y1450*
X1181Y1449*
X1191*
X1181D02*
X1176Y1440D01*
D02*
D92*
X1171Y1801D02*
Y1866D01*
X1206*
Y1801*
X1171*
X1280Y1021D02*
X1215D01*
Y1056*
X1280*
Y1021*
X1346Y1055D02*
X1411D01*
Y1020*
X1346*
Y1055*
X1471D02*
X1536D01*
Y1020*
X1471*
Y1055*
X1496Y1871D02*
Y1936D01*
X1531*
Y1871*
X1496*
X1521Y1830D02*
X1586D01*
Y1795*
X1521*
Y1830*
X1921Y1996D02*
Y2061D01*
X1956*
Y1996*
X1921*
X2480Y2071D02*
X2415D01*
Y2106*
X2480*
Y2071*
D02*
D93*
X678Y605D02*
X798D01*
Y470*
X678*
Y605*
X688Y2013D02*
Y2313D01*
X1138*
Y2013*
X688*
X813Y638D02*
Y718D01*
X863*
Y638*
X813*
X1128Y605D02*
X1248D01*
Y470*
X1128*
Y605*
X1263Y638D02*
Y718D01*
X1313*
Y638*
X1263*
X1578Y605D02*
X1698D01*
Y470*
X1578*
Y605*
X1713Y638D02*
Y718D01*
X1763*
Y638*
X1713*
X1843Y1753D02*
X1658D01*
Y1873*
X1843*
Y1753*
X1959Y1732D02*
Y1861D01*
X2001Y1836D02*
X2026D01*
X2013Y1823D02*
Y1848D01*
X2068Y1732D02*
X1959D01*
X2068D02*
Y1861D01*
X1959*
X2148Y471D02*
X2028D01*
Y606*
X2148*
Y471*
X2313Y1788D02*
X2188D01*
Y1888*
X2313*
Y1788*
X2463Y501D02*
Y376D01*
X2213*
Y501*
X2463*
X2603Y605D02*
X2723D01*
Y470*
X2603*
Y605*
X2738Y638D02*
Y718D01*
X2788*
Y638*
X2738*
X2878Y605D02*
X2998D01*
Y470*
X2878*
Y605*
X3013Y638D02*
Y718D01*
X3063*
Y638*
X3013*
X3203Y605D02*
X3323D01*
Y470*
X3203*
Y605*
X3338Y638D02*
Y718D01*
X3388*
Y638*
X3338*
X3478Y605D02*
X3598D01*
Y470*
X3478*
Y605*
X3613Y638D02*
Y718D01*
X3663*
Y638*
X3613*
X3878Y605D02*
X3998D01*
Y470*
X3878*
Y605*
X4013Y638D02*
Y718D01*
X4063*
Y638*
X4013*
X4328Y605D02*
X4448D01*
Y470*
X4328*
Y605*
X4463Y638D02*
Y718D01*
X4513*
Y638*
X4463*
X4635Y1432D02*
X4790D01*
Y1252*
X4635*
Y1432*
D02*
D94*
X349Y781D02*
Y815D01*
X377D02*
Y781D01*
X1973Y1727D02*
X2053D01*
X1973Y1867D02*
X2053D01*
D02*
D95*
X718Y488D02*
X758D01*
Y473*
X718*
Y488*
G36*
X758*
Y473*
X718*
Y488*
G37*
X1168D02*
X1208D01*
Y473*
X1168*
Y488*
G36*
X1208*
Y473*
X1168*
Y488*
G37*
X1618D02*
X1658D01*
Y473*
X1618*
Y488*
G36*
X1658*
Y473*
X1618*
Y488*
G37*
X2108Y588D02*
X2068D01*
Y603*
X2108*
Y588*
G36*
X2068*
Y603*
X2108*
Y588*
G37*
X2643Y488D02*
X2683D01*
Y473*
X2643*
Y488*
G36*
X2683*
Y473*
X2643*
Y488*
G37*
X2918D02*
X2958D01*
Y473*
X2918*
Y488*
G36*
X2958*
Y473*
X2918*
Y488*
G37*
X3243D02*
X3283D01*
Y473*
X3243*
Y488*
G36*
X3283*
Y473*
X3243*
Y488*
G37*
X3518D02*
X3558D01*
Y473*
X3518*
Y488*
G36*
X3558*
Y473*
X3518*
Y488*
G37*
X3918D02*
X3958D01*
Y473*
X3918*
Y488*
G36*
X3958*
Y473*
X3918*
Y488*
G37*
X4368D02*
X4408D01*
Y473*
X4368*
Y488*
G36*
X4408*
Y473*
X4368*
Y488*
G37*
D02*
D96*
X2033Y778D02*
Y748D01*
X2013*
Y778*
X2033*
X2168D02*
Y748D01*
X2148*
Y778*
X2168*
X2408Y2273D02*
Y2303D01*
X2428*
Y2273*
X2408*
X2543D02*
Y2303D01*
X2563*
Y2273*
X2543*
X0Y0D02*
M02*
