%FSLAX23Y23*%
%MOIN*%
G04 EasyPC Gerber Version 16.0.6 Build 3249 *
%ADD11C,0.00500*%
%ADD23C,0.10000*%
X0Y0D02*
D02*
D11*
X263Y622D02*
Y660D01*
X294*
X288Y641D02*
X263D01*
Y722D02*
Y760D01*
X294*
X288Y741D02*
X263D01*
Y822D02*
Y860D01*
X294*
X288Y841D02*
X263D01*
Y922D02*
Y960D01*
X294*
X288Y941D02*
X263D01*
Y1022D02*
Y1060D01*
X294*
X288Y1041D02*
X263D01*
X294Y1269D02*
X291Y1265D01*
X285Y1262*
X275*
X269Y1265*
X266Y1269*
X263Y1275*
Y1287*
X266Y1294*
X269Y1297*
X275Y1300*
X285*
X291Y1297*
X294Y1294*
Y1569D02*
X291Y1565D01*
X285Y1562*
X275*
X269Y1565*
X266Y1569*
X263Y1575*
Y1587*
X266Y1594*
X269Y1597*
X275Y1600*
X285*
X291Y1597*
X294Y1594*
X363Y622D02*
Y660D01*
X394*
X388Y641D02*
X363D01*
Y722D02*
Y760D01*
X394*
X388Y741D02*
X363D01*
Y822D02*
Y860D01*
X394*
X388Y841D02*
X363D01*
Y922D02*
Y960D01*
X394*
X388Y941D02*
X363D01*
Y1022D02*
Y1060D01*
X394*
X388Y1041D02*
X363D01*
X394Y1269D02*
X391Y1265D01*
X385Y1262*
X375*
X369Y1265*
X366Y1269*
X363Y1275*
Y1287*
X366Y1294*
X369Y1297*
X375Y1300*
X385*
X391Y1297*
X394Y1294*
Y1569D02*
X391Y1565D01*
X385Y1562*
X375*
X369Y1565*
X366Y1569*
X363Y1575*
Y1587*
X366Y1594*
X369Y1597*
X375Y1600*
X385*
X391Y1597*
X394Y1594*
X363Y1796D02*
Y1834D01*
X378Y1815*
X394Y1834*
Y1796*
X363Y1934D02*
Y1971D01*
X378Y1953*
X394Y1971*
Y1934*
X363Y2072D02*
Y2109D01*
X378Y2090*
X394Y2109*
Y2072*
X363Y2210D02*
Y2247D01*
X378Y2228*
X394Y2247*
Y2210*
X363Y2347D02*
Y2385D01*
X378Y2366*
X394Y2385*
Y2347*
X398Y259D02*
Y296D01*
Y277D02*
X407D01*
X429Y296*
X407Y277D02*
X429Y259D01*
X398Y2700D02*
Y2737D01*
Y2718D02*
X407D01*
X429Y2737*
X407Y2718D02*
X429Y2700D01*
X494Y1269D02*
X491Y1265D01*
X485Y1262*
X475*
X469Y1265*
X466Y1269*
X463Y1275*
Y1287*
X466Y1294*
X469Y1297*
X475Y1300*
X485*
X491Y1297*
X494Y1294*
Y1569D02*
X491Y1565D01*
X485Y1562*
X475*
X469Y1565*
X466Y1569*
X463Y1575*
Y1587*
X466Y1594*
X469Y1597*
X475Y1600*
X485*
X491Y1597*
X494Y1594*
X594Y1269D02*
X591Y1265D01*
X585Y1262*
X575*
X569Y1265*
X566Y1269*
X563Y1275*
Y1287*
X566Y1294*
X569Y1297*
X575Y1300*
X585*
X591Y1297*
X594Y1294*
Y1569D02*
X591Y1565D01*
X585Y1562*
X575*
X569Y1565*
X566Y1569*
X563Y1575*
Y1587*
X566Y1594*
X569Y1597*
X575Y1600*
X585*
X591Y1597*
X594Y1594*
X613Y897D02*
Y935D01*
X631*
X638Y932*
X641Y929*
X644Y922*
Y910*
X641Y904*
X638Y900*
X631Y897*
X613*
X763Y297D02*
Y335D01*
Y316D02*
X794D01*
Y297D02*
Y335D01*
X813Y1247D02*
Y1285D01*
X831*
X838Y1282*
X841Y1279*
X844Y1272*
Y1260*
X841Y1254*
X838Y1250*
X831Y1247*
X813*
Y1347D02*
Y1385D01*
X831*
X838Y1382*
X841Y1379*
X844Y1372*
Y1360*
X841Y1354*
X838Y1350*
X831Y1347*
X813*
X838Y597D02*
Y635D01*
X869Y597*
Y635*
X862Y2647D02*
Y2685D01*
X877Y2666*
X893Y2685*
Y2647*
X863Y1297D02*
Y1335D01*
X881*
X888Y1332*
X891Y1329*
X894Y1322*
Y1310*
X891Y1304*
X888Y1300*
X881Y1297*
X863*
X900Y296D02*
Y333D01*
Y315D02*
X931D01*
Y296D02*
Y333D01*
X913Y1347D02*
Y1385D01*
X931*
X938Y1382*
X941Y1379*
X944Y1372*
Y1360*
X941Y1354*
X938Y1350*
X931Y1347*
X913*
X999Y2647D02*
Y2685D01*
X1015Y2666*
X1031Y2685*
Y2647*
X1013Y772D02*
Y810D01*
X1031*
X1038Y807*
X1041Y804*
X1044Y797*
Y785*
X1041Y779*
X1038Y775*
X1031Y772*
X1013*
X1088Y1122D02*
Y1160D01*
X1106*
X1113Y1157*
X1116Y1154*
X1119Y1147*
Y1135*
X1116Y1129*
X1113Y1125*
X1106Y1122*
X1088*
X1137Y2647D02*
Y2685D01*
X1153Y2666*
X1168Y2685*
Y2647*
X1188Y1447D02*
Y1485D01*
X1206*
X1213Y1482*
X1216Y1479*
X1219Y1472*
Y1460*
X1216Y1454*
X1213Y1450*
X1206Y1447*
X1188*
X1213Y297D02*
Y335D01*
Y316D02*
X1244D01*
Y297D02*
Y335D01*
X1263Y1447D02*
Y1485D01*
X1281*
X1288Y1482*
X1291Y1479*
X1294Y1472*
Y1460*
X1291Y1454*
X1288Y1450*
X1281Y1447*
X1263*
X1275Y2647D02*
Y2685D01*
X1291Y2666*
X1306Y2685*
Y2647*
X1288Y597D02*
Y635D01*
X1319Y597*
Y635*
X1350Y296D02*
Y333D01*
Y315D02*
X1381D01*
Y296D02*
Y333D01*
X1413Y2647D02*
Y2685D01*
X1428Y2666*
X1444Y2685*
Y2647*
X1438Y1947D02*
Y1985D01*
X1456*
X1463Y1982*
X1466Y1979*
X1469Y1972*
Y1960*
X1466Y1954*
X1463Y1950*
X1456Y1947*
X1438*
Y2097D02*
Y2135D01*
X1456*
X1463Y2132*
X1466Y2129*
X1469Y2122*
Y2110*
X1466Y2104*
X1463Y2100*
X1456Y2097*
X1438*
X1463Y772D02*
Y810D01*
X1481*
X1488Y807*
X1491Y804*
X1494Y797*
Y785*
X1491Y779*
X1488Y775*
X1481Y772*
X1463*
X1498Y1297D02*
Y1335D01*
X1516*
X1523Y1332*
X1526Y1329*
X1529Y1322*
Y1310*
X1526Y1304*
X1523Y1300*
X1516Y1297*
X1498*
X1543Y1252D02*
Y1290D01*
X1561*
X1568Y1287*
X1571Y1284*
X1574Y1277*
Y1265*
X1571Y1259*
X1568Y1255*
X1561Y1252*
X1543*
X1613Y2097D02*
Y2135D01*
X1631*
X1638Y2132*
X1641Y2129*
X1644Y2122*
Y2110*
X1641Y2104*
X1638Y2100*
X1631Y2097*
X1613*
X1663Y297D02*
Y335D01*
Y316D02*
X1694D01*
Y297D02*
Y335D01*
X1688Y1097D02*
Y1135D01*
X1706*
X1713Y1132*
X1716Y1129*
X1719Y1122*
Y1110*
X1716Y1104*
X1713Y1100*
X1706Y1097*
X1688*
Y1947D02*
Y1985D01*
X1706*
X1713Y1982*
X1716Y1979*
X1719Y1972*
Y1960*
X1716Y1954*
X1713Y1950*
X1706Y1947*
X1688*
X1712Y2647D02*
Y2685D01*
X1727Y2666*
X1743Y2685*
Y2647*
X1738Y597D02*
Y635D01*
X1769Y597*
Y635*
X1738Y1047D02*
Y1085D01*
X1756*
X1763Y1082*
X1766Y1079*
X1769Y1072*
Y1060*
X1766Y1054*
X1763Y1050*
X1756Y1047*
X1738*
X1788Y1422D02*
Y1460D01*
X1806*
X1813Y1457*
X1816Y1454*
X1819Y1447*
Y1435*
X1816Y1429*
X1813Y1425*
X1806Y1422*
X1788*
Y1647D02*
Y1685D01*
X1806*
X1813Y1682*
X1816Y1679*
X1819Y1672*
Y1660*
X1816Y1654*
X1813Y1650*
X1806Y1647*
X1788*
Y1722D02*
Y1760D01*
X1806*
X1813Y1757*
X1816Y1754*
X1819Y1747*
Y1735*
X1816Y1729*
X1813Y1725*
X1806Y1722*
X1788*
X1800Y296D02*
Y333D01*
Y315D02*
X1831D01*
Y296D02*
Y333D01*
X1849Y2647D02*
Y2685D01*
X1865Y2666*
X1881Y2685*
Y2647*
X1888Y1547D02*
Y1585D01*
X1906*
X1913Y1582*
X1916Y1579*
X1919Y1572*
Y1560*
X1916Y1554*
X1913Y1550*
X1906Y1547*
X1888*
X1913Y2047D02*
Y2085D01*
X1931*
X1938Y2082*
X1941Y2079*
X1944Y2072*
Y2060*
X1941Y2054*
X1938Y2050*
X1931Y2047*
X1913*
X1938Y772D02*
Y810D01*
X1956*
X1963Y807*
X1966Y804*
X1969Y797*
Y785*
X1966Y779*
X1963Y775*
X1956Y772*
X1938*
Y1447D02*
Y1485D01*
X1956*
X1963Y1482*
X1966Y1479*
X1969Y1472*
Y1460*
X1966Y1454*
X1963Y1450*
X1956Y1447*
X1938*
X1987Y2647D02*
Y2685D01*
X2003Y2666*
X2018Y2685*
Y2647*
X2013Y1872D02*
Y1910D01*
X2031*
X2038Y1907*
X2041Y1904*
X2044Y1897*
Y1885*
X2041Y1879*
X2038Y1875*
X2031Y1872*
X2013*
X2038Y822D02*
Y860D01*
X2069*
X2063Y841D02*
X2038D01*
X2063Y722D02*
Y760D01*
X2081*
X2088Y757*
X2091Y754*
X2094Y747*
Y735*
X2091Y729*
X2088Y725*
X2081Y722*
X2063*
X2113Y297D02*
Y335D01*
Y316D02*
X2144D01*
Y297D02*
Y335D01*
X2113Y1472D02*
Y1510D01*
X2131*
X2138Y1507*
X2141Y1504*
X2144Y1497*
Y1485*
X2141Y1479*
X2138Y1475*
X2131Y1472*
X2113*
Y1722D02*
Y1760D01*
X2131*
X2138Y1757*
X2141Y1754*
X2144Y1747*
Y1735*
X2141Y1729*
X2138Y1725*
X2131Y1722*
X2113*
X2125Y2647D02*
Y2685D01*
X2141Y2666*
X2156Y2685*
Y2647*
X2138Y2122D02*
Y2160D01*
X2156*
X2163Y2157*
X2166Y2154*
X2169Y2147*
Y2135*
X2166Y2129*
X2163Y2125*
X2156Y2122*
X2138*
Y2497D02*
Y2535D01*
X2156*
X2163Y2532*
X2166Y2529*
X2169Y2522*
Y2510*
X2166Y2504*
X2163Y2500*
X2156Y2497*
X2138*
X2188Y597D02*
Y635D01*
X2219Y597*
Y635*
X2213Y2047D02*
Y2085D01*
X2231*
X2238Y2082*
X2241Y2079*
X2244Y2072*
Y2060*
X2241Y2054*
X2238Y2050*
X2231Y2047*
X2213*
Y2122D02*
Y2160D01*
X2231*
X2238Y2157*
X2241Y2154*
X2244Y2147*
Y2135*
X2241Y2129*
X2238Y2125*
X2231Y2122*
X2213*
X2250Y296D02*
Y333D01*
Y315D02*
X2281D01*
Y296D02*
Y333D01*
X2263Y872D02*
Y910D01*
X2281*
X2288Y907*
X2291Y904*
X2294Y897*
Y885*
X2291Y879*
X2288Y875*
X2281Y872*
X2263*
Y2647D02*
Y2685D01*
X2278Y2666*
X2294Y2685*
Y2647*
X2313Y722D02*
Y760D01*
X2331*
X2338Y757*
X2341Y754*
X2344Y747*
Y735*
X2341Y729*
X2338Y725*
X2331Y722*
X2313*
X2338Y822D02*
Y860D01*
X2369*
X2363Y841D02*
X2338D01*
Y1222D02*
Y1260D01*
X2369*
X2363Y1241D02*
X2338D01*
Y1522D02*
Y1560D01*
X2369*
X2363Y1541D02*
X2338D01*
X2513Y1122D02*
Y1160D01*
X2544*
X2538Y1141D02*
X2513D01*
Y1522D02*
Y1560D01*
X2544*
X2538Y1541D02*
X2513D01*
X2535Y1813D02*
X2544D01*
Y1810*
X2541Y1804*
X2538Y1800*
X2531Y1797*
X2525*
X2519Y1800*
X2516Y1804*
X2513Y1810*
Y1822*
X2516Y1829*
X2519Y1832*
X2525Y1835*
X2531*
X2538Y1832*
X2541Y1829*
X2544Y1822*
X2535Y1913D02*
X2544D01*
Y1910*
X2541Y1904*
X2538Y1900*
X2531Y1897*
X2525*
X2519Y1900*
X2516Y1904*
X2513Y1910*
Y1922*
X2516Y1929*
X2519Y1932*
X2525Y1935*
X2531*
X2538Y1932*
X2541Y1929*
X2544Y1922*
X2535Y2266D02*
X2541Y2263D01*
X2544Y2257*
X2541Y2250*
X2535Y2247*
X2513*
Y2285*
X2535*
X2541Y2282*
X2544Y2275*
X2541Y2269*
X2535Y2266*
X2513*
X2562Y2647D02*
Y2685D01*
X2577Y2666*
X2593Y2685*
Y2647*
X2563Y722D02*
Y760D01*
X2581*
X2588Y757*
X2591Y754*
X2594Y747*
Y735*
X2591Y729*
X2588Y725*
X2581Y722*
X2563*
X2635Y2266D02*
X2641Y2263D01*
X2644Y2257*
X2641Y2250*
X2635Y2247*
X2613*
Y2285*
X2635*
X2641Y2282*
X2644Y2275*
X2641Y2269*
X2635Y2266*
X2613*
X2699Y2647D02*
Y2685D01*
X2715Y2666*
X2731Y2685*
Y2647*
X2735Y2266D02*
X2741Y2263D01*
X2744Y2257*
X2741Y2250*
X2735Y2247*
X2713*
Y2285*
X2735*
X2741Y2282*
X2744Y2275*
X2741Y2269*
X2735Y2266*
X2713*
X2763Y297D02*
Y335D01*
X2778Y316*
X2794Y335*
Y297*
X2763Y597D02*
Y635D01*
X2794Y597*
Y635*
X2788Y772D02*
Y810D01*
X2806*
X2813Y807*
X2816Y804*
X2819Y797*
Y785*
X2816Y779*
X2813Y775*
X2806Y772*
X2788*
X2837Y2647D02*
Y2685D01*
X2853Y2666*
X2868Y2685*
Y2647*
X2838Y2472D02*
Y2510D01*
X2856*
X2863Y2507*
X2866Y2504*
X2869Y2497*
Y2485*
X2866Y2479*
X2863Y2475*
X2856Y2472*
X2838*
X2863Y1147D02*
Y1185D01*
X2894*
X2888Y1166D02*
X2863D01*
X2885Y1316D02*
X2891Y1313D01*
X2894Y1307*
X2891Y1300*
X2885Y1297*
X2863*
Y1335*
X2885*
X2891Y1332*
X2894Y1325*
X2891Y1319*
X2885Y1316*
X2863*
X2885Y1516D02*
X2891Y1513D01*
X2894Y1507*
X2891Y1500*
X2885Y1497*
X2863*
Y1535*
X2885*
X2891Y1532*
X2894Y1525*
X2891Y1519*
X2885Y1516*
X2863*
X2894Y1704D02*
X2891Y1700D01*
X2885Y1697*
X2875*
X2869Y1700*
X2866Y1704*
X2863Y1710*
Y1722*
X2866Y1729*
X2869Y1732*
X2875Y1735*
X2885*
X2891Y1732*
X2894Y1729*
Y1904D02*
X2891Y1900D01*
X2885Y1897*
X2875*
X2869Y1900*
X2866Y1904*
X2863Y1910*
Y1922*
X2866Y1929*
X2869Y1932*
X2875Y1935*
X2885*
X2891Y1932*
X2894Y1929*
X2901Y297D02*
Y335D01*
X2916Y316*
X2932Y335*
Y297*
X2975Y2647D02*
Y2685D01*
X2991Y2666*
X3006Y2685*
Y2647*
X3035Y2163D02*
X3044D01*
Y2160*
X3041Y2154*
X3038Y2150*
X3031Y2147*
X3025*
X3019Y2150*
X3016Y2154*
X3013Y2160*
Y2172*
X3016Y2179*
X3019Y2182*
X3025Y2185*
X3031*
X3038Y2182*
X3041Y2179*
X3044Y2172*
X3035Y2263D02*
X3044D01*
Y2260*
X3041Y2254*
X3038Y2250*
X3031Y2247*
X3025*
X3019Y2250*
X3016Y2254*
X3013Y2260*
Y2272*
X3016Y2279*
X3019Y2282*
X3025Y2285*
X3031*
X3038Y2282*
X3041Y2279*
X3044Y2272*
X3038Y597D02*
Y635D01*
X3069Y597*
Y635*
X3038Y297D02*
Y335D01*
X3054Y316*
X3070Y335*
Y297*
X3063Y772D02*
Y810D01*
X3081*
X3088Y807*
X3091Y804*
X3094Y797*
Y785*
X3091Y779*
X3088Y775*
X3081Y772*
X3063*
X3113Y2647D02*
Y2685D01*
X3128Y2666*
X3144Y2685*
Y2647*
X3163Y1147D02*
Y1185D01*
X3194*
X3188Y1166D02*
X3163D01*
Y1297D02*
Y1335D01*
X3194*
X3188Y1316D02*
X3163D01*
Y1447D02*
Y1485D01*
Y1466D02*
X3194D01*
Y1447D02*
Y1485D01*
X3163Y1947D02*
Y1985D01*
Y1966D02*
X3194D01*
Y1947D02*
Y1985D01*
X3313Y1447D02*
Y1485D01*
X3344*
X3338Y1466D02*
X3313D01*
Y1847D02*
Y1885D01*
X3344*
X3338Y1866D02*
X3313D01*
X3363Y297D02*
Y335D01*
X3378Y316*
X3394Y335*
Y297*
X3363Y597D02*
Y635D01*
X3394Y597*
Y635*
X3385Y2066D02*
X3391Y2063D01*
X3394Y2057*
X3391Y2050*
X3385Y2047*
X3363*
Y2085*
X3385*
X3391Y2082*
X3394Y2075*
X3391Y2069*
X3385Y2066*
X3363*
X3385Y2266D02*
X3391Y2263D01*
X3394Y2257*
X3391Y2250*
X3385Y2247*
X3363*
Y2285*
X3385*
X3391Y2282*
X3394Y2275*
X3391Y2269*
X3385Y2266*
X3363*
X3388Y772D02*
Y810D01*
X3406*
X3413Y807*
X3416Y804*
X3419Y797*
Y785*
X3416Y779*
X3413Y775*
X3406Y772*
X3388*
X3501Y297D02*
Y335D01*
X3516Y316*
X3532Y335*
Y297*
X3513Y2604D02*
X3516Y2600D01*
X3522Y2597*
X3528Y2600*
X3531Y2604*
Y2635*
X3538*
X3531D02*
X3519D01*
X3563Y1297D02*
Y1335D01*
X3594*
X3588Y1316D02*
X3563D01*
Y1447D02*
Y1485D01*
X3594*
X3588Y1466D02*
X3563D01*
Y1847D02*
Y1885D01*
X3594*
X3588Y1866D02*
X3563D01*
X3638Y597D02*
Y635D01*
X3669Y597*
Y635*
X3638Y297D02*
Y335D01*
X3654Y316*
X3670Y335*
Y297*
X3663Y772D02*
Y810D01*
X3681*
X3688Y807*
X3691Y804*
X3694Y797*
Y785*
X3691Y779*
X3688Y775*
X3681Y772*
X3663*
X3785Y2066D02*
X3791Y2063D01*
X3794Y2057*
X3791Y2050*
X3785Y2047*
X3763*
Y2085*
X3785*
X3791Y2082*
X3794Y2075*
X3791Y2069*
X3785Y2066*
X3763*
X3785Y2266D02*
X3791Y2263D01*
X3794Y2257*
X3791Y2250*
X3785Y2247*
X3763*
Y2285*
X3785*
X3791Y2282*
X3794Y2275*
X3791Y2269*
X3785Y2266*
X3763*
X3813Y1335D02*
Y1297D01*
X3844*
X3813Y1635D02*
Y1597D01*
X3844*
X3963Y297D02*
Y335D01*
Y316D02*
X3994D01*
Y297D02*
Y335D01*
X4038Y597D02*
Y635D01*
X4069Y597*
Y635*
X4063Y772D02*
Y810D01*
X4081*
X4088Y807*
X4091Y804*
X4094Y797*
Y785*
X4091Y779*
X4088Y775*
X4081Y772*
X4063*
Y1947D02*
Y1985D01*
X4094*
X4088Y1966D02*
X4063D01*
Y2247D02*
Y2285D01*
X4094*
X4088Y2266D02*
X4063D01*
X4100Y296D02*
Y333D01*
Y315D02*
X4131D01*
Y296D02*
Y333D01*
X4213Y1947D02*
Y1985D01*
X4244*
X4238Y1966D02*
X4213D01*
Y2247D02*
Y2285D01*
X4244*
X4238Y2266D02*
X4213D01*
X4363Y1947D02*
Y1985D01*
X4394*
X4388Y1966D02*
X4363D01*
Y2247D02*
Y2285D01*
X4394*
X4388Y2266D02*
X4363D01*
X4413Y297D02*
Y335D01*
Y316D02*
X4444D01*
Y297D02*
Y335D01*
X4413Y2604D02*
X4416Y2600D01*
X4422Y2597*
X4428Y2600*
X4431Y2604*
Y2635*
X4438*
X4431D02*
X4419D01*
X4488Y597D02*
Y635D01*
X4519Y597*
Y635*
X4513Y772D02*
Y810D01*
X4531*
X4538Y807*
X4541Y804*
X4544Y797*
Y785*
X4541Y779*
X4538Y775*
X4531Y772*
X4513*
X4550Y296D02*
Y333D01*
Y315D02*
X4581D01*
Y296D02*
Y333D01*
X4613Y1972D02*
Y2010D01*
Y1991D02*
X4644D01*
Y1972D02*
Y2010D01*
X4613Y2297D02*
Y2335D01*
Y2316D02*
X4644D01*
Y2297D02*
Y2335D01*
X4713Y935D02*
Y897D01*
X4744*
X4813Y1972D02*
Y2010D01*
Y1991D02*
X4844D01*
Y1972D02*
Y2010D01*
X4813Y2297D02*
Y2335D01*
Y2316D02*
X4844D01*
Y2297D02*
Y2335D01*
X4925Y259D02*
Y296D01*
Y277D02*
X4935D01*
X4957Y296*
X4935Y277D02*
X4957Y259D01*
X4925Y2700D02*
Y2737D01*
Y2718D02*
X4935D01*
X4957Y2737*
X4935Y2718D02*
X4957Y2700D01*
X5013Y935D02*
Y897D01*
X5044*
X5013Y1335D02*
Y1297D01*
X5044*
X5013Y1735D02*
Y1697D01*
X5044*
X5013Y1972D02*
Y2010D01*
Y1991D02*
X5044D01*
Y1972D02*
Y2010D01*
X5013Y2297D02*
Y2335D01*
Y2316D02*
X5044D01*
Y2297D02*
Y2335D01*
D02*
D23*
X163Y563D03*
Y663D03*
Y763D03*
Y863D03*
Y963D03*
Y1203D03*
Y1503D03*
X263Y563D03*
Y663D03*
Y763D03*
Y863D03*
Y963D03*
Y1203D03*
Y1503D03*
Y1737D03*
Y1875D03*
Y2012D03*
Y2150D03*
Y2288D03*
X298Y199D03*
Y2640D03*
X363Y1203D03*
Y1503D03*
X463Y1203D03*
Y1503D03*
X513Y838D03*
X663Y238D03*
X713Y1188D03*
Y1288D03*
X738Y538D03*
X762Y2588D03*
X763Y1238D03*
X800Y236D03*
X813Y1288D03*
X899Y2588D03*
X913Y713D03*
X988Y1063D03*
X1037Y2588D03*
X1088Y1388D03*
X1113Y238D03*
X1163Y1388D03*
X1175Y2588D03*
X1188Y538D03*
X1250Y236D03*
X1313Y2588D03*
X1338Y1888D03*
Y2038D03*
X1363Y713D03*
X1398Y1238D03*
X1443Y1193D03*
X1513Y2038D03*
X1563Y238D03*
X1588Y1038D03*
Y1888D03*
X1612Y2588D03*
X1638Y538D03*
Y988D03*
X1688Y1363D03*
Y1588D03*
Y1663D03*
X1700Y236D03*
X1749Y2588D03*
X1788Y1488D03*
X1813Y1988D03*
X1838Y713D03*
Y1388D03*
X1887Y2588D03*
X1913Y1813D03*
X1938Y763D03*
X1963Y663D03*
X2013Y238D03*
Y1413D03*
Y1663D03*
X2025Y2588D03*
X2038Y2063D03*
Y2438D03*
X2088Y538D03*
X2113Y1988D03*
Y2063D03*
X2150Y236D03*
X2163Y813D03*
Y2588D03*
X2213Y663D03*
X2238Y763D03*
Y1163D03*
Y1463D03*
X2413Y1063D03*
Y1463D03*
Y1738D03*
Y1838D03*
Y2188D03*
X2462Y2588D03*
X2463Y663D03*
X2513Y2188D03*
X2599Y2588D03*
X2613Y2188D03*
X2663Y238D03*
Y538D03*
X2688Y713D03*
X2737Y2588D03*
X2738Y2413D03*
X2763Y1088D03*
Y1238D03*
Y1438D03*
Y1638D03*
Y1838D03*
X2801Y238D03*
X2875Y2588D03*
X2913Y2088D03*
Y2188D03*
X2938Y538D03*
X2938Y238D03*
X2963Y713D03*
X3013Y2588D03*
X3063Y1088D03*
Y1238D03*
Y1388D03*
Y1888D03*
X3213Y1388D03*
Y1788D03*
X3263Y238D03*
Y538D03*
Y1988D03*
Y2188D03*
X3288Y713D03*
X3401Y238D03*
X3413Y2538D03*
X3463Y1238D03*
Y1388D03*
Y1788D03*
X3538Y538D03*
X3538Y238D03*
X3563Y713D03*
X3663Y1988D03*
Y2188D03*
X3713Y1238D03*
Y1538D03*
X3863Y238D03*
X3938Y538D03*
X3963Y713D03*
Y1888D03*
Y2188D03*
X4000Y236D03*
X4113Y1888D03*
Y2188D03*
X4263Y1888D03*
Y2188D03*
X4313Y238D03*
Y2538D03*
X4388Y538D03*
X4413Y713D03*
X4450Y236D03*
X4513Y1913D03*
Y2238D03*
X4613Y838D03*
X4713Y1913D03*
Y2238D03*
X4825Y199D03*
Y2640D03*
X4913Y838D03*
Y1238D03*
Y1638D03*
Y1913D03*
Y2238D03*
X0Y0D02*
M02*
