%FSLAX23Y23*%
%MOIN*%
G04 EasyPC Gerber Version 16.0.6 Build 3249 *
%ADD99O,0.02400X0.07293*%
%ADD106R,0.02569X0.08100*%
%ADD119R,0.02800X0.08400*%
%ADD118R,0.04100X0.04100*%
%ADD101R,0.04400X0.04600*%
%ADD117R,0.06100X0.06600*%
%ADD103R,0.07100X0.10600*%
%ADD110R,0.10600X0.14100*%
%ADD115R,0.06800X0.06800*%
%ADD155R,0.06899X0.06899*%
%ADD121R,0.07100X0.07100*%
%ADD113R,0.07600X0.07600*%
%ADD10C,0.00100*%
%ADD11C,0.00500*%
%ADD97C,0.05400*%
%ADD151C,0.06600*%
%ADD116C,0.06800*%
%ADD156C,0.06899*%
%ADD120C,0.07100*%
%ADD114C,0.07600*%
%ADD108C,0.08600*%
%ADD154C,0.09600*%
%ADD158C,0.10000*%
%ADD157C,0.10443*%
%ADD107C,0.10600*%
%ADD152C,0.11600*%
%ADD153C,0.11600*%
%ADD150C,0.24222*%
%ADD98O,0.07293X0.02400*%
%ADD100O,0.20600X0.06600*%
%ADD102R,0.04600X0.04400*%
%ADD111R,0.06100X0.05200*%
%ADD105R,0.07600X0.05600*%
%ADD112R,0.12600X0.07600*%
%ADD104R,0.09261X0.08474*%
%ADD109R,0.09600X0.09100*%
X0Y0D02*
D02*
D10*
X488Y288D02*
G75*
G03Y188J-50D01*
G01*
G75*
G03Y288J50*
G01*
G36*
G75*
G03Y188J-50*
G01*
G75*
G03Y288J50*
G01*
G37*
X4638D02*
G75*
G03Y188J-50D01*
G01*
G75*
G03Y288J50*
G01*
G36*
G75*
G03Y188J-50*
G01*
G75*
G03Y288J50*
G01*
G37*
Y2638D02*
G75*
G03Y2538J-50D01*
G01*
G75*
G03Y2638J50*
G01*
G36*
G75*
G03Y2538J-50*
G01*
G75*
G03Y2638J50*
G01*
G37*
D02*
D11*
X5121Y2837D02*
Y3D01*
X3*
Y2837*
X5121*
D02*
D97*
X513Y838D03*
X713Y1188D03*
Y1288D03*
X763Y1238D03*
X813Y1288D03*
X913Y713D03*
X988Y1063D03*
X1088Y1388D03*
X1163D03*
X1338Y1888D03*
Y2038D03*
X1363Y713D03*
X1398Y1238D03*
X1443Y1193D03*
X1513Y2038D03*
X1588Y1038D03*
Y1888D03*
X1638Y988D03*
X1688Y1363D03*
Y1588D03*
Y1663D03*
X1788Y1488D03*
X1813Y1988D03*
X1838Y713D03*
Y1388D03*
X1913Y1813D03*
X1963Y663D03*
X2013Y1413D03*
Y1663D03*
X2038Y2063D03*
Y2438D03*
X2113Y1988D03*
Y2063D03*
X2163Y813D03*
X2213Y663D03*
X2463D03*
X2688Y713D03*
X2738Y2413D03*
X2963Y713D03*
X3288D03*
X3563D03*
X3963D03*
X4413D03*
D02*
D98*
X985Y1190D03*
Y1222D03*
Y1253D03*
Y1285D03*
Y1316D03*
Y1348D03*
Y1379D03*
Y1411D03*
Y1442D03*
Y1474D03*
Y1505D03*
Y1537D03*
Y1568D03*
Y1600D03*
Y1631D03*
Y1663D03*
X1588Y1190D03*
Y1222D03*
Y1253D03*
Y1285D03*
Y1316D03*
Y1348D03*
Y1379D03*
Y1411D03*
Y1442D03*
Y1474D03*
Y1505D03*
Y1537D03*
Y1568D03*
Y1600D03*
Y1631D03*
Y1663D03*
D02*
D99*
X1050Y1126D03*
Y1728D03*
X1082Y1126D03*
Y1728D03*
X1113Y1126D03*
Y1728D03*
X1145Y1126D03*
Y1728D03*
X1176Y1126D03*
Y1728D03*
X1208Y1126D03*
Y1728D03*
X1239Y1126D03*
Y1728D03*
X1271Y1126D03*
Y1728D03*
X1302Y1126D03*
Y1728D03*
X1334Y1126D03*
Y1728D03*
X1365Y1126D03*
Y1728D03*
X1397Y1126D03*
Y1728D03*
X1428Y1126D03*
Y1728D03*
X1460Y1126D03*
Y1728D03*
X1491Y1126D03*
Y1728D03*
X1523Y1126D03*
Y1728D03*
D02*
D100*
X1138Y888D03*
X1488D03*
D02*
D101*
X1213Y1038D03*
X1283D03*
X1343D03*
X1413D03*
X1468D03*
X1518Y1813D03*
X1538Y1038D03*
X1588Y1813D03*
X2413Y2088D03*
X2483D03*
D02*
D102*
X363Y763D03*
Y833D03*
X1188Y1798D03*
Y1868D03*
X1513D03*
Y1938D03*
X1938Y1993D03*
Y2063D03*
D02*
D103*
X2188Y1838D03*
X2313D03*
D02*
D104*
X2013Y1738D03*
Y1856D03*
D02*
D105*
X1663Y1813D03*
X1838D03*
D02*
D106*
X1888Y2138D03*
Y2368D03*
X1938Y2138D03*
Y2368D03*
X1988Y2138D03*
Y2368D03*
X2038Y2138D03*
Y2368D03*
D02*
D107*
X663Y238D03*
X800Y236D03*
X1113Y238D03*
X1250Y236D03*
X1563Y238D03*
X1700Y236D03*
X2013Y238D03*
X2150Y236D03*
X3863Y238D03*
X4000Y236D03*
X4313Y238D03*
X4450Y236D03*
X4513Y1913D03*
Y2238D03*
X4713Y1913D03*
Y2238D03*
X4913Y1913D03*
Y2238D03*
D02*
D108*
X1938Y763D03*
X2238D03*
Y1163D03*
Y1463D03*
X2413Y1063D03*
Y1463D03*
X2763Y1088D03*
Y1238D03*
Y1438D03*
X3063Y1088D03*
Y1238D03*
X3213Y1388D03*
Y1788D03*
X3263Y1988D03*
Y2188D03*
X3463Y1238D03*
Y1388D03*
Y1788D03*
X3663Y1988D03*
Y2188D03*
X3963Y1888D03*
Y2188D03*
X4113Y1888D03*
Y2188D03*
X4263Y1888D03*
Y2188D03*
D02*
D109*
X4713Y1248D03*
Y1438D03*
D02*
D110*
X2213Y438D03*
X2463D03*
D02*
D111*
X838Y638D03*
Y718D03*
X1288Y638D03*
Y718D03*
X1738Y638D03*
Y718D03*
X2763Y638D03*
Y718D03*
X3038Y638D03*
Y718D03*
X3363Y638D03*
Y718D03*
X3638Y638D03*
Y718D03*
X4038Y638D03*
Y718D03*
X4488Y638D03*
Y718D03*
D02*
D112*
X738Y438D03*
Y638D03*
X1188Y438D03*
Y638D03*
X1638Y438D03*
Y638D03*
X2088Y438D03*
Y638D03*
X2663Y438D03*
Y638D03*
X2938Y438D03*
Y638D03*
X3263Y438D03*
Y638D03*
X3538Y438D03*
Y638D03*
X3938Y438D03*
Y638D03*
X4388Y438D03*
Y638D03*
D02*
D113*
X2613Y2188D03*
D02*
D114*
X2413D03*
X2513D03*
D02*
D115*
X2413Y1838D03*
X2913Y2188D03*
D02*
D116*
X2413Y1738D03*
X2913Y2088D03*
D02*
D117*
X2531D03*
X2613D03*
D02*
D118*
X2018Y763D03*
X2163D03*
X2413Y2288D03*
X2558D03*
D02*
D119*
X713Y1963D03*
Y2363D03*
X763Y1963D03*
Y2363D03*
X813Y1963D03*
Y2363D03*
X863Y1963D03*
Y2363D03*
X913Y1963D03*
Y2363D03*
X963Y1963D03*
Y2363D03*
X1013Y1963D03*
Y2363D03*
X1063Y1963D03*
Y2363D03*
X1113Y1963D03*
Y2363D03*
D02*
D120*
X163Y563D03*
Y663D03*
Y763D03*
Y863D03*
Y963D03*
X263Y663D03*
Y763D03*
Y863D03*
Y963D03*
D02*
D121*
Y563D03*
D02*
D150*
X298Y199D03*
Y2640D03*
X4825Y199D03*
Y2640D03*
D02*
D151*
X163Y1203D03*
Y1503D03*
X263Y1203D03*
Y1503D03*
X363Y1203D03*
Y1503D03*
X463Y1203D03*
Y1503D03*
D02*
D152*
X3713Y1238D03*
Y1538D03*
X4613Y838D03*
X4913D03*
Y1238D03*
Y1638D03*
D02*
D153*
X3413Y2538D03*
X4313D03*
D02*
D154*
X3063Y1388D03*
Y1888D03*
D02*
D155*
X2763Y1838D03*
D02*
D156*
Y1638D03*
D02*
D157*
X263Y1737D03*
Y1875D03*
Y2012D03*
Y2150D03*
Y2288D03*
X762Y2588D03*
X899D03*
X1037D03*
X1175D03*
X1313D03*
X1612D03*
X1749D03*
X1887D03*
X2025D03*
X2163D03*
X2462D03*
X2599D03*
X2663Y238D03*
X2737Y2588D03*
X2801Y238D03*
X2875Y2588D03*
X2938Y238D03*
X3013Y2588D03*
X3263Y238D03*
X3401D03*
X3538D03*
D02*
D158*
X738Y538D03*
X1188D03*
X1638D03*
X2088D03*
X2663D03*
X2938D03*
X3263D03*
X3538D03*
X3938D03*
X4388D03*
X0Y0D02*
M02*
