%FSLAX23Y23*%
%MOIN*%
G04 EasyPC Gerber Version 16.0.6 Build 3249 *
%ADD94C,0.00100*%
%ADD10C,0.00500*%
%ADD98C,0.00600*%
%ADD92C,0.00800*%
X0Y0D02*
D02*
D10*
X105Y1638D02*
X95D01*
Y2382*
X105*
Y2225*
Y1796D02*
Y1638D01*
X109*
X105Y1812D02*
Y1796D01*
X109*
Y1638*
X381*
Y2382*
X109*
Y2225*
X105*
Y2209*
X109*
Y2087*
X105*
Y2071*
X109*
Y1949*
X105*
Y1934*
X109*
Y1812*
X105*
Y1934D02*
Y1812D01*
Y2071D02*
Y1949D01*
Y2209D02*
Y2087D01*
X109Y2382D02*
X105D01*
X169Y1054D02*
X166Y1050D01*
X160Y1047*
X150*
X144Y1050*
X141Y1054*
X138Y1060*
Y1072*
X141Y1079*
X144Y1082*
X150Y1085*
X160*
X166Y1082*
X169Y1079*
X188Y1047D02*
Y1085D01*
X219Y1047*
Y1085*
X244Y1047D02*
X256D01*
X250D02*
Y1085D01*
X244Y1079*
X303Y1047D02*
Y1085D01*
X288Y1060*
X313*
X138Y1303D02*
X188D01*
Y1353*
X138*
Y1303*
G36*
X188*
Y1353*
X138*
Y1303*
G37*
X188*
Y1403*
X138*
Y1303*
X169Y2404D02*
X166Y2400D01*
X160Y2397*
X150*
X144Y2400*
X141Y2404*
X138Y2410*
Y2422*
X141Y2429*
X144Y2432*
X150Y2435*
X160*
X166Y2432*
X169Y2429*
X188Y2397D02*
Y2435D01*
X219Y2397*
Y2435*
X244Y2397D02*
X256D01*
X250D02*
Y2435D01*
X244Y2429*
X291Y2400D02*
X297Y2397D01*
X303*
X310Y2400*
X313Y2407*
Y2425*
X310Y2432*
X303Y2435*
X297*
X291Y2432*
X288Y2425*
Y2407*
X291Y2400*
X310Y2432*
X159Y1252D02*
X171D01*
X165D02*
Y1290D01*
X159Y1284*
X158Y1711D02*
Y1784D01*
X131Y1793*
Y1676*
X158Y1685*
Y1711*
G75*
G02X165Y1719I8*
G01*
X179Y1719*
X158Y1823D02*
Y1922D01*
X131Y1931*
Y1814*
X158Y1823*
Y1961D02*
Y2060D01*
X131Y2069*
Y1952*
X158Y1961*
Y2099D02*
Y2198D01*
X131Y2207*
Y2090*
X158Y2099*
Y2310D02*
Y2262D01*
X163Y1572D02*
X166Y1565D01*
X172Y1562*
X185*
X191Y1565*
X194Y1572*
X191Y1578*
X185Y1581*
X172*
X166Y1584*
X163Y1590*
X166Y1597*
X172Y1600*
X185*
X191Y1597*
X194Y1590*
X213Y1600D02*
X216Y1562D01*
X228Y1581*
X241Y1562*
X244Y1600*
X269Y1562D02*
X281D01*
X275D02*
Y1600D01*
X269Y1594*
X179Y1751D02*
X165D01*
G75*
G02X158Y1758J8*
G01*
X179Y1812D02*
X184D01*
Y1857*
X179*
Y1812*
Y1857D02*
X165D01*
G75*
G03X158Y1849J-8*
G01*
X179Y1888D02*
X165Y1888D01*
G75*
G02X158Y1896J8*
G01*
X179Y1995D02*
Y1949D01*
X184*
Y1995*
X165*
G75*
G03X158Y1987J-8*
G01*
X179Y2026D02*
X165D01*
G75*
G02X158Y2034J8*
G01*
X179Y2132D02*
X165D01*
G75*
G03X158Y2125J-8*
G01*
X179Y2164D02*
X165D01*
G75*
G02X158Y2172J8*
G01*
X179Y2270D02*
Y2225D01*
X184*
X179Y2302D02*
X184D01*
Y2347*
X353*
X353Y2321*
G75*
G03Y2251I47J-35*
G01*
X353Y2225*
X184*
Y2270*
X165*
G75*
G03X158Y2262J-8*
G01*
Y2237*
X131Y2227*
Y2345*
X158Y2335*
Y2310*
G75*
G03X165Y2302I8*
G01*
X179*
Y2347*
X184*
Y1934D02*
X179D01*
Y1888*
X184*
Y1934*
X359*
Y1906*
G75*
G03X359Y1839I42J-34*
G01*
X359Y1812*
X184*
Y1949D02*
X353D01*
X353Y1975*
G75*
G02Y2046I47J35*
G01*
X353Y2071*
X184D02*
X179D01*
Y2026*
X184*
Y2071*
X359*
Y2044*
G75*
G03X359Y1977I42J-34*
G01*
X359Y1949*
X353*
X238Y1303D02*
X288D01*
Y1353*
X238*
Y1303*
G36*
X288*
Y1353*
X238*
Y1303*
G37*
X288*
Y1403*
X238*
Y1303*
X247Y1753D02*
Y1722D01*
X277*
Y1753*
X247*
Y1890D02*
Y1860D01*
X277*
Y1890*
X247*
Y2028D02*
Y1998D01*
X277*
Y2028*
X247*
Y2166D02*
Y2136D01*
X277*
Y2166*
X247*
Y2304D02*
Y2274D01*
X277*
Y2304*
X247*
X278Y1252D02*
X253D01*
X275Y1274*
X278Y1280*
X275Y1287*
X268Y1290*
X259*
X253Y1287*
X263Y1425D02*
Y1437D01*
X266Y1444*
X269Y1447*
X275Y1450*
X281*
X288Y1447*
X291Y1444*
X294Y1437*
Y1425*
X291Y1419*
X288Y1415*
X281Y1412*
X275*
X269Y1415*
X266Y1419*
X263Y1425*
X313Y1412D02*
Y1450D01*
X344Y1412*
Y1450*
X290Y1796D02*
Y1811D01*
X263Y1804*
X290Y1796*
Y1934D02*
Y1949D01*
X263Y1941*
X290Y1934*
Y2087D02*
X263Y2079D01*
X290Y2072*
Y2087*
Y2224D02*
X263Y2217D01*
X290Y2210*
Y2224*
X294Y1735D02*
G75*
G03X231I-31D01*
G01*
G75*
G03X294I31*
G01*
X294Y1873D02*
G75*
G03X231I-31D01*
G01*
G75*
G03X294I31*
G01*
X294Y2010D02*
G75*
G03X231I-31D01*
G01*
G75*
G03X294I31*
G01*
Y2148D02*
G75*
G03X231I-31D01*
G01*
G75*
G03X294I31*
G01*
Y2286D02*
G75*
G03X231I-31D01*
G01*
G75*
G03X294I31*
G01*
X338Y813D02*
X313D01*
Y713*
X338*
Y1038D02*
Y463D01*
X88*
Y1038*
X338*
Y1303D02*
X388D01*
Y1353*
X338*
Y1303*
G36*
X388*
Y1353*
X338*
Y1303*
G37*
X388*
Y1403*
X338*
Y1303*
X356Y1255D02*
X362Y1252D01*
X368*
X375Y1255*
X378Y1262*
X375Y1268*
X368Y1271*
X362*
X368D02*
X375Y1274D01*
X378Y1280*
X375Y1287*
X368Y1290*
X362*
X356Y1287*
X353Y1674D02*
X179D01*
Y1719*
X184*
Y1674*
X353Y1796D02*
X179D01*
Y1751*
X184*
Y1796*
X353Y1934D02*
Y1908D01*
G75*
G03X353Y1837I47J-35*
G01*
X353Y1812*
Y2087D02*
X359D01*
X359Y2115*
G75*
G02X359Y2182I42J34*
G01*
Y2209*
X184*
Y2164*
X179*
Y2209*
X184*
X353D02*
X353Y2184D01*
G75*
G03X353Y2113I47J-35*
G01*
Y2087*
X184*
Y2132*
X179*
Y2087*
X184*
X353Y2225D02*
X359D01*
Y2252*
G75*
G02X359Y2320I42J34*
G01*
X359Y2347*
X353*
X359Y1768D02*
G75*
G03X359Y1701I42J-34D01*
G01*
Y1674*
X353*
X353Y1699*
G75*
G02X353Y1770I47J35*
G01*
Y1796*
X359*
Y1768*
X359*
X438Y1303D02*
X488D01*
Y1353*
X438*
Y1303*
G36*
X488*
Y1353*
X438*
Y1303*
G37*
X488*
Y1403*
X438*
Y1303*
X468Y1252D02*
Y1290D01*
X453Y1265*
X478*
X488Y288D02*
Y188D01*
X538Y238D02*
X438D01*
X568Y79D02*
Y83D01*
X725*
Y79*
X603Y158D02*
X648D01*
Y152*
X603*
Y332*
X631*
G75*
G03X698Y332I34J42*
G01*
X725Y332*
Y152*
X680*
Y158*
X725*
X603Y327D02*
X629D01*
G75*
G03X700Y327I35J47*
G01*
X725Y327*
X648Y152D02*
X648Y139D01*
G75*
G02X641Y131I-8*
G01*
X694Y379D02*
X691Y375D01*
X685Y372*
X675*
X669Y375*
X666Y379*
X663Y385*
Y397*
X666Y404*
X669Y407*
X675Y410*
X685*
X691Y407*
X694Y404*
X713Y372D02*
Y410D01*
X744Y372*
Y410*
X788Y372D02*
X763D01*
X785Y394*
X788Y400*
X785Y407*
X778Y410*
X769*
X763Y407*
X663Y2745D02*
Y2755D01*
X1407*
Y2745*
X1250*
X664Y268D02*
G75*
G03Y205J-31D01*
G01*
G75*
G03Y268J31*
G01*
X688Y131D02*
X714D01*
X723Y105*
X606*
X615Y131*
X688*
G75*
G02X680Y139J8*
G01*
Y152*
X699Y2497D02*
Y2672D01*
X744*
Y2667*
X699*
X736Y2693D02*
X809D01*
X818Y2720*
X701*
X710Y2693*
X736*
G75*
G02X744Y2685J-8*
G01*
X744Y2672*
X740Y264D02*
X726D01*
X733Y236*
X740Y264*
X741Y79D02*
X898D01*
X741Y158D02*
Y152D01*
X786*
Y139*
G75*
G02X778Y131I-8*
G01*
X741Y327D02*
Y158D01*
X786*
Y152*
X760Y2557D02*
G75*
G03Y2620J31D01*
G01*
G75*
G03Y2557J-31*
G01*
X775Y2672D02*
Y2685D01*
G75*
G02X783Y2693I8*
G01*
X777Y2604D02*
X747D01*
Y2574*
X777*
Y2604*
X793Y2492D02*
G75*
G03X726Y2492I-34J-42D01*
G01*
X699*
Y2497*
X724Y2497*
G75*
G02X795Y2497I35J-47*
G01*
X821*
Y2492*
X793*
Y2492*
X801Y268D02*
G75*
G03Y205J-31D01*
G01*
G75*
G03Y268J31*
G01*
X821Y2497D02*
Y2672D01*
X775*
Y2667*
X821*
Y2745D02*
X663D01*
Y2741*
X821Y2560D02*
X836D01*
X828Y2588*
X821Y2560*
X822Y261D02*
G75*
G03Y212I-20J-25D01*
G01*
X826Y131D02*
G75*
G02X818Y139J8D01*
G01*
Y158*
X863*
Y152*
X818*
X836Y2672D02*
Y2667D01*
X882*
Y2672*
X836*
Y2745D02*
X821D01*
Y2741*
X663*
Y2470*
X1407*
Y2741*
X1250*
Y2745*
X1234*
Y2741*
X1112*
Y2745*
X1096*
Y2741*
X974*
Y2745*
X958*
Y2741*
X836*
Y2745*
X848Y2693D02*
X947D01*
X956Y2720*
X839*
X848Y2693*
X861Y105D02*
X851Y131D01*
X753*
X743Y105*
X861*
X863Y158D02*
Y332D01*
X836Y332*
G75*
G02X768Y332I-34J42*
G01*
X741*
Y327*
X767*
G75*
G03X837Y327I35J47*
G01*
X863Y327*
X882Y2672D02*
Y2685D01*
G75*
G03X874Y2693I-8*
G01*
X897Y2556D02*
G75*
G03Y2619J31D01*
G01*
G75*
G03Y2556J-31*
G01*
X913Y2672D02*
X913Y2685D01*
G75*
G02X921Y2693I8*
G01*
X915Y2604D02*
X885D01*
Y2574*
X915*
Y2604*
X958Y2497D02*
X933D01*
G75*
G03X862Y2497I-35J-47*
G01*
X836Y2497*
X958Y2667D02*
Y2672D01*
X913*
Y2667*
X958*
Y2492*
X931*
G75*
G03X864Y2492I-34J-42*
G01*
X836Y2492*
Y2667*
X958Y2745D02*
X836D01*
X959Y2560D02*
X974D01*
X966Y2588*
X959Y2560*
X994Y2779D02*
X991Y2775D01*
X985Y2772*
X975*
X969Y2775*
X966Y2779*
X963Y2785*
Y2797*
X966Y2804*
X969Y2807*
X975Y2810*
X985*
X991Y2807*
X994Y2804*
X1013Y2772D02*
Y2810D01*
X1044Y2772*
Y2810*
X1069Y2772D02*
X1081D01*
X1075D02*
Y2810D01*
X1069Y2804*
X1119Y2772D02*
X1131D01*
X1125D02*
Y2810D01*
X1119Y2804*
X974Y2667D02*
Y2497D01*
X1000Y2497*
G75*
G02X1071I35J-47*
G01*
X1096Y2497*
X986Y2693D02*
X1085D01*
X1094Y2720*
X977*
X986Y2693*
X1018Y79D02*
Y83D01*
X1175*
Y79*
X1019Y2672D02*
X974D01*
Y2667*
X1019*
Y2685*
G75*
G03X1012Y2693I-8*
G01*
X1035Y2556D02*
G75*
G03Y2619J31D01*
G01*
G75*
G03Y2556J-31*
G01*
X1051Y2672D02*
Y2685D01*
G75*
G02X1059Y2693I8*
G01*
X1053Y2604D02*
X1023D01*
Y2574*
X1053*
Y2604*
X1053Y158D02*
X1098D01*
Y152*
X1053*
Y332*
X1081*
G75*
G03X1148Y332I34J42*
G01*
X1175Y332*
Y152*
X1130*
Y158*
X1175*
X1053Y327D02*
X1079D01*
G75*
G03X1150Y327I35J47*
G01*
X1175Y327*
X1096Y2667D02*
Y2672D01*
X1051*
Y2667*
X1096*
Y2492*
X1069*
G75*
G03X1002Y2492I-34J-42*
G01*
X974Y2492*
Y2497*
X1096Y2745D02*
X974D01*
X1098Y152D02*
X1098Y139D01*
G75*
G02X1091Y131I-8*
G01*
X1111Y2560D02*
X1104Y2588D01*
X1097Y2560*
X1111*
X1112Y2497D02*
Y2492D01*
X1139Y2492*
G75*
G02X1207Y2492I34J-42*
G01*
X1234*
Y2667*
X1189*
Y2672*
X1234*
Y2667*
X1144Y379D02*
X1141Y375D01*
X1135Y372*
X1125*
X1119Y375*
X1116Y379*
X1113Y385*
Y397*
X1116Y404*
X1119Y407*
X1125Y410*
X1135*
X1141Y407*
X1144Y404*
X1163Y372D02*
Y410D01*
X1194Y372*
Y410*
X1216Y375D02*
X1222Y372D01*
X1228*
X1235Y375*
X1238Y382*
X1235Y388*
X1228Y391*
X1222*
X1228D02*
X1235Y394D01*
X1238Y400*
X1235Y407*
X1228Y410*
X1222*
X1216Y407*
X1114Y268D02*
G75*
G03Y205J-31D01*
G01*
G75*
G03Y268J31*
G01*
X1124Y2693D02*
X1222D01*
X1232Y2720*
X1114*
X1124Y2693*
X1138Y131D02*
X1164D01*
X1173Y105*
X1056*
X1065Y131*
X1138*
G75*
G02X1130Y139J8*
G01*
Y152*
X1157Y2672D02*
Y2685D01*
G75*
G03X1149Y2693I-8*
G01*
X1173Y2556D02*
G75*
G03Y2619J31D01*
G01*
G75*
G03Y2556J-31*
G01*
X1189Y2672D02*
Y2685D01*
G75*
G02X1197Y2693I8*
G01*
X1190Y264D02*
X1176D01*
X1183Y236*
X1190Y264*
X1191Y2604D02*
X1161D01*
Y2574*
X1191*
Y2604*
X1191Y79D02*
X1348D01*
X1191Y158D02*
Y152D01*
X1236*
Y139*
G75*
G02X1228Y131I-8*
G01*
X1191Y327D02*
Y158D01*
X1236*
Y152*
X1234Y2497D02*
X1208Y2497D01*
G75*
G03X1138Y2497I-35J-47*
G01*
X1112*
Y2667*
X1157*
Y2672*
X1112*
Y2667*
X1234Y2745D02*
X1112D01*
X1249Y2560D02*
X1242Y2588D01*
X1234Y2560*
X1249*
X1250Y2497D02*
Y2492D01*
X1277*
G75*
G02X1344Y2492I34J-42*
G01*
X1372Y2492*
Y2497*
X1251Y268D02*
G75*
G03Y205J-31D01*
G01*
G75*
G03Y268J31*
G01*
X1272Y261D02*
G75*
G03Y212I-20J-25D01*
G01*
X1276Y131D02*
G75*
G02X1268Y139J8D01*
G01*
Y158*
X1313*
Y152*
X1268*
X1295Y2672D02*
X1250D01*
Y2667*
X1311Y105D02*
X1301Y131D01*
X1203*
X1193Y105*
X1311*
X1311Y2556D02*
G75*
G03Y2619J31D01*
G01*
G75*
G03Y2556J-31*
G01*
X1313Y158D02*
Y332D01*
X1286Y332*
G75*
G02X1218Y332I-34J42*
G01*
X1191*
Y327*
X1217*
G75*
G03X1287Y327I35J47*
G01*
X1313Y327*
X1327Y2672D02*
Y2667D01*
X1372*
Y2497*
X1346Y2497*
G75*
G03X1275I-35J-47*
G01*
X1250Y2497*
Y2667*
X1295*
Y2685*
G75*
G03X1287Y2693I-8*
G01*
X1261*
X1252Y2720*
X1369*
X1360Y2693*
X1334*
G75*
G03X1327Y2685J-8*
G01*
Y2672*
X1372*
Y2667*
X1328Y2604D02*
X1298D01*
Y2574*
X1328*
Y2604*
X1334Y2693D02*
X1287D01*
X1407Y2741D02*
Y2745D01*
X1468Y79D02*
Y83D01*
X1625*
Y79*
X1503Y158D02*
X1548D01*
Y152*
X1503*
Y332*
X1531*
G75*
G03X1598Y332I34J42*
G01*
X1625Y332*
Y152*
X1580*
Y158*
X1625*
X1503Y327D02*
X1529D01*
G75*
G03X1600Y327I35J47*
G01*
X1625Y327*
X1513Y2745D02*
Y2755D01*
X2257*
Y2745*
X2100*
X1548Y152D02*
X1548Y139D01*
G75*
G02X1541Y131I-8*
G01*
X1549Y2497D02*
Y2672D01*
X1594*
Y2667*
X1549*
X1594Y379D02*
X1591Y375D01*
X1585Y372*
X1575*
X1569Y375*
X1566Y379*
X1563Y385*
Y397*
X1566Y404*
X1569Y407*
X1575Y410*
X1585*
X1591Y407*
X1594Y404*
X1613Y372D02*
Y410D01*
X1644Y372*
Y410*
X1678Y372D02*
Y410D01*
X1663Y385*
X1688*
X1564Y268D02*
G75*
G03Y205J-31D01*
G01*
G75*
G03Y268J31*
G01*
X1586Y2693D02*
X1659D01*
X1668Y2720*
X1551*
X1560Y2693*
X1586*
G75*
G02X1594Y2685J-8*
G01*
X1594Y2672*
X1588Y131D02*
X1614D01*
X1623Y105*
X1506*
X1515Y131*
X1588*
G75*
G02X1580Y139J8*
G01*
Y152*
X1610Y2557D02*
G75*
G03Y2620J31D01*
G01*
G75*
G03Y2557J-31*
G01*
X1625Y2672D02*
Y2685D01*
G75*
G02X1633Y2693I8*
G01*
X1627Y2604D02*
X1597D01*
Y2574*
X1627*
Y2604*
X1640Y264D02*
X1626D01*
X1633Y236*
X1640Y264*
X1641Y79D02*
X1798D01*
X1641Y158D02*
Y152D01*
X1686*
Y139*
G75*
G02X1678Y131I-8*
G01*
X1641Y327D02*
Y158D01*
X1686*
Y152*
X1643Y2492D02*
G75*
G03X1576Y2492I-34J-42D01*
G01*
X1549*
Y2497*
X1574Y2497*
G75*
G02X1645Y2497I35J-47*
G01*
X1671*
Y2492*
X1643*
Y2492*
X1671Y2497D02*
Y2672D01*
X1625*
Y2667*
X1671*
Y2745D02*
X1513D01*
Y2741*
X1671Y2560D02*
X1686D01*
X1678Y2588*
X1671Y2560*
X1686Y2672D02*
Y2667D01*
X1732*
Y2672*
X1686*
Y2745D02*
X1671D01*
Y2741*
X1513*
Y2470*
X2257*
Y2741*
X2100*
Y2745*
X2084*
Y2741*
X1962*
Y2745*
X1946*
Y2741*
X1824*
Y2745*
X1808*
Y2741*
X1686*
Y2745*
X1698Y2693D02*
X1797D01*
X1806Y2720*
X1689*
X1698Y2693*
X1701Y268D02*
G75*
G03Y205J-31D01*
G01*
G75*
G03Y268J31*
G01*
X1722Y261D02*
G75*
G03Y212I-20J-25D01*
G01*
X1726Y131D02*
G75*
G02X1718Y139J8D01*
G01*
Y158*
X1763*
Y152*
X1718*
X1732Y2672D02*
Y2685D01*
G75*
G03X1724Y2693I-8*
G01*
X1747Y2556D02*
G75*
G03Y2619J31D01*
G01*
G75*
G03Y2556J-31*
G01*
X1761Y105D02*
X1751Y131D01*
X1653*
X1643Y105*
X1761*
X1763Y158D02*
Y332D01*
X1736Y332*
G75*
G02X1668Y332I-34J42*
G01*
X1641*
Y327*
X1667*
G75*
G03X1737Y327I35J47*
G01*
X1763Y327*
X1763Y2672D02*
X1763Y2685D01*
G75*
G02X1771Y2693I8*
G01*
X1765Y2604D02*
X1735D01*
Y2574*
X1765*
Y2604*
X1808Y2497D02*
X1783D01*
G75*
G03X1712Y2497I-35J-47*
G01*
X1686Y2497*
X1808Y2667D02*
Y2672D01*
X1763*
Y2667*
X1808*
Y2492*
X1781*
G75*
G03X1714Y2492I-34J-42*
G01*
X1686Y2492*
Y2667*
X1808Y2745D02*
X1686D01*
X1809Y2560D02*
X1824D01*
X1816Y2588*
X1809Y2560*
X1824Y2667D02*
Y2497D01*
X1850Y2497*
G75*
G02X1921I35J-47*
G01*
X1946Y2497*
X1836Y2693D02*
X1935D01*
X1944Y2720*
X1827*
X1836Y2693*
X1869Y2779D02*
X1866Y2775D01*
X1860Y2772*
X1850*
X1844Y2775*
X1841Y2779*
X1838Y2785*
Y2797*
X1841Y2804*
X1844Y2807*
X1850Y2810*
X1860*
X1866Y2807*
X1869Y2804*
X1888Y2772D02*
Y2810D01*
X1919Y2772*
Y2810*
X1944Y2772D02*
X1956D01*
X1950D02*
Y2810D01*
X1944Y2804*
X2013Y2772D02*
X1988D01*
X2010Y2794*
X2013Y2800*
X2010Y2807*
X2003Y2810*
X1994*
X1988Y2807*
X1869Y2672D02*
X1824D01*
Y2667*
X1869*
Y2685*
G75*
G03X1862Y2693I-8*
G01*
X1885Y2556D02*
G75*
G03Y2619J31D01*
G01*
G75*
G03Y2556J-31*
G01*
X1901Y2672D02*
Y2685D01*
G75*
G02X1909Y2693I8*
G01*
X1903Y2604D02*
X1873D01*
Y2574*
X1903*
Y2604*
X1913Y1485D02*
Y1457D01*
X1916Y1450*
X1922Y1447*
X1935*
X1941Y1450*
X1944Y1457*
Y1485*
X1963Y1450D02*
X1969Y1447D01*
X1978*
X1985Y1450*
X1988Y1457*
Y1460*
X1985Y1466*
X1978Y1469*
X1963*
Y1485*
X1988*
X1918Y79D02*
Y83D01*
X2075*
Y79*
X1946Y2667D02*
Y2672D01*
X1901*
Y2667*
X1946*
Y2492*
X1919*
G75*
G03X1852Y2492I-34J-42*
G01*
X1824Y2492*
Y2497*
X1946Y2745D02*
X1824D01*
X1953Y158D02*
X1998D01*
Y152*
X1953*
Y332*
X1981*
G75*
G03X2048Y332I34J42*
G01*
X2075Y332*
Y152*
X2030*
Y158*
X2075*
X1953Y327D02*
X1979D01*
G75*
G03X2050Y327I35J47*
G01*
X2075Y327*
X1961Y2560D02*
X1954Y2588D01*
X1947Y2560*
X1961*
X1962Y2497D02*
Y2492D01*
X1989Y2492*
G75*
G02X2057Y2492I34J-42*
G01*
X2084*
Y2667*
X2039*
Y2672*
X2084*
Y2667*
X1974Y2693D02*
X2072D01*
X2082Y2720*
X1964*
X1974Y2693*
X1998Y152D02*
X1998Y139D01*
G75*
G02X1991Y131I-8*
G01*
X2007Y2672D02*
Y2685D01*
G75*
G03X1999Y2693I-8*
G01*
X2044Y379D02*
X2041Y375D01*
X2035Y372*
X2025*
X2019Y375*
X2016Y379*
X2013Y385*
Y397*
X2016Y404*
X2019Y407*
X2025Y410*
X2035*
X2041Y407*
X2044Y404*
X2063Y372D02*
Y410D01*
X2094Y372*
Y410*
X2113Y375D02*
X2119Y372D01*
X2128*
X2135Y375*
X2138Y382*
Y385*
X2135Y391*
X2128Y394*
X2113*
Y410*
X2138*
X2014Y268D02*
G75*
G03Y205J-31D01*
G01*
G75*
G03Y268J31*
G01*
X2023Y2556D02*
G75*
G03Y2619J31D01*
G01*
G75*
G03Y2556J-31*
G01*
X2038Y131D02*
X2064D01*
X2073Y105*
X1956*
X1965Y131*
X2038*
G75*
G02X2030Y139J8*
G01*
Y152*
X2039Y2672D02*
Y2685D01*
G75*
G02X2047Y2693I8*
G01*
X2041Y2604D02*
X2011D01*
Y2574*
X2041*
Y2604*
X2084Y2497D02*
X2058Y2497D01*
G75*
G03X1988Y2497I-35J-47*
G01*
X1962*
Y2667*
X2007*
Y2672*
X1962*
Y2667*
X2084Y2745D02*
X1962D01*
X2090Y264D02*
X2076D01*
X2083Y236*
X2090Y264*
X2091Y79D02*
X2248D01*
X2091Y158D02*
Y152D01*
X2136*
Y139*
G75*
G02X2128Y131I-8*
G01*
X2091Y327D02*
Y158D01*
X2136*
Y152*
X2099Y2560D02*
X2092Y2588D01*
X2084Y2560*
X2099*
X2100Y2497D02*
Y2492D01*
X2127*
G75*
G02X2194Y2492I34J-42*
G01*
X2222Y2492*
Y2497*
X2145Y2672D02*
X2100D01*
Y2667*
X2151Y268D02*
G75*
G03Y205J-31D01*
G01*
G75*
G03Y268J31*
G01*
X2161Y2556D02*
G75*
G03Y2619J31D01*
G01*
G75*
G03Y2556J-31*
G01*
X2194Y1854D02*
X2191Y1850D01*
X2185Y1847*
X2175*
X2169Y1850*
X2166Y1854*
X2163Y1860*
Y1872*
X2166Y1879*
X2169Y1882*
X2175Y1885*
X2185*
X2191Y1882*
X2194Y1879*
X2219Y1847D02*
X2231D01*
X2225D02*
Y1885D01*
X2219Y1879*
X2263Y1857D02*
X2266Y1863D01*
X2272Y1866*
X2278*
X2285Y1863*
X2288Y1857*
X2285Y1850*
X2278Y1847*
X2272*
X2266Y1850*
X2263Y1857*
Y1866*
X2266Y1875*
X2272Y1882*
X2278Y1885*
X2172Y261D02*
G75*
G03Y212I-20J-25D01*
G01*
X2176Y131D02*
G75*
G02X2168Y139J8D01*
G01*
Y158*
X2213*
Y152*
X2168*
X2177Y2672D02*
Y2667D01*
X2222*
Y2497*
X2196Y2497*
G75*
G03X2125I-35J-47*
G01*
X2100Y2497*
Y2667*
X2145*
Y2685*
G75*
G03X2137Y2693I-8*
G01*
X2111*
X2102Y2720*
X2219*
X2210Y2693*
X2184*
G75*
G03X2177Y2685J-8*
G01*
Y2672*
X2222*
Y2667*
X2178Y2604D02*
X2148D01*
Y2574*
X2178*
Y2604*
X2184Y2693D02*
X2137D01*
X2211Y105D02*
X2201Y131D01*
X2103*
X2093Y105*
X2211*
X2213Y158D02*
Y332D01*
X2186Y332*
G75*
G02X2118Y332I-34J42*
G01*
X2091*
Y327*
X2117*
G75*
G03X2187Y327I35J47*
G01*
X2213Y327*
X2257Y2741D02*
Y2745D01*
X2288Y713D02*
Y1513D01*
X1888*
Y713*
X2288*
X2363Y1253D02*
X2463D01*
X2363Y1278D02*
X2463D01*
X2394Y1529D02*
X2391Y1525D01*
X2385Y1522*
X2375*
X2369Y1525*
X2366Y1529*
X2363Y1535*
Y1547*
X2366Y1554*
X2369Y1557*
X2375Y1560*
X2385*
X2391Y1557*
X2394Y1554*
X2419Y1522D02*
X2431D01*
X2425D02*
Y1560D01*
X2419Y1554*
X2463Y1522D02*
X2488Y1560D01*
X2463*
X2363Y2745D02*
Y2755D01*
X3107*
Y2745*
X2950*
X2399Y2497D02*
Y2672D01*
X2444*
Y2667*
X2399*
X2413Y1253D02*
Y1178D01*
Y1353D02*
Y1278D01*
X2436Y2693D02*
X2509D01*
X2518Y2720*
X2401*
X2410Y2693*
X2436*
G75*
G02X2444Y2685J-8*
G01*
X2444Y2672*
X2460Y2557D02*
G75*
G03Y2620J31D01*
G01*
G75*
G03Y2557J-31*
G01*
X2475Y2672D02*
Y2685D01*
G75*
G02X2483Y2693I8*
G01*
X2477Y2604D02*
X2447D01*
Y2574*
X2477*
Y2604*
X2493Y2492D02*
G75*
G03X2426Y2492I-34J-42D01*
G01*
X2399*
Y2497*
X2424Y2497*
G75*
G02X2495Y2497I35J-47*
G01*
X2521*
Y2492*
X2493*
Y2492*
X2521Y2497D02*
Y2672D01*
X2475*
Y2667*
X2521*
Y2745D02*
X2363D01*
Y2741*
X2521Y2560D02*
X2536D01*
X2528Y2588*
X2521Y2560*
X2536Y2672D02*
Y2667D01*
X2582*
Y2672*
X2536*
Y2745D02*
X2521D01*
Y2741*
X2363*
Y2470*
X3107*
Y2741*
X2950*
Y2745*
X2934*
Y2741*
X2812*
Y2745*
X2796*
Y2741*
X2674*
Y2745*
X2658*
Y2741*
X2536*
Y2745*
X2548Y2693D02*
X2647D01*
X2656Y2720*
X2539*
X2548Y2693*
X2566Y84D02*
Y81D01*
X2582Y2672D02*
Y2685D01*
G75*
G03X2574Y2693I-8*
G01*
X2588Y1338D02*
G75*
G03X2938I175D01*
G01*
G75*
G03X2588I-175*
G01*
X2619Y1804D02*
X2616Y1800D01*
X2610Y1797*
X2600*
X2594Y1800*
X2591Y1804*
X2588Y1810*
Y1822*
X2591Y1829*
X2594Y1832*
X2600Y1835*
X2610*
X2616Y1832*
X2619Y1829*
X2644Y1797D02*
X2656D01*
X2650D02*
Y1835D01*
X2644Y1829*
X2713Y1797D02*
X2688D01*
X2710Y1819*
X2713Y1825*
X2710Y1832*
X2703Y1835*
X2694*
X2688Y1832*
X2597Y2556D02*
G75*
G03Y2619J31D01*
G01*
G75*
G03Y2556J-31*
G01*
X2602Y159D02*
Y334D01*
X2629*
G75*
G03X2696Y334I34J42*
G01*
X2724Y334*
Y329*
X2613Y1360D02*
Y1322D01*
X2644*
X2663Y1325D02*
X2669Y1322D01*
X2678*
X2685Y1325*
X2688Y1332*
Y1335*
X2685Y1341*
X2678Y1344*
X2663*
Y1360*
X2688*
X2613Y2035D02*
Y2007D01*
X2616Y2000*
X2622Y1997*
X2635*
X2641Y2000*
X2644Y2007*
Y2035*
X2678Y1997D02*
Y2035D01*
X2663Y2010*
X2688*
X2613Y2672D02*
X2613Y2685D01*
G75*
G02X2621Y2693I8*
G01*
X2615Y2604D02*
X2585D01*
Y2574*
X2615*
Y2604*
X2647Y154D02*
Y159D01*
X2602*
Y154*
X2647*
Y141*
G75*
G02X2639Y133I-8*
G01*
X2712*
X2722Y106*
X2604*
X2613Y133*
X2639*
X2648Y224D02*
X2678D01*
Y254*
X2648*
Y224*
X2658Y2497D02*
X2633D01*
G75*
G03X2562Y2497I-35J-47*
G01*
X2536Y2497*
X2658Y2667D02*
Y2672D01*
X2613*
Y2667*
X2658*
Y2492*
X2631*
G75*
G03X2564Y2492I-34J-42*
G01*
X2536Y2492*
Y2667*
X2658Y2745D02*
X2536D01*
X2659Y2560D02*
X2674D01*
X2666Y2588*
X2659Y2560*
X2694Y2779D02*
X2691Y2775D01*
X2685Y2772*
X2675*
X2669Y2775*
X2666Y2779*
X2663Y2785*
Y2797*
X2666Y2804*
X2669Y2807*
X2675Y2810*
X2685*
X2691Y2807*
X2694Y2804*
X2713Y2772D02*
Y2810D01*
X2744Y2772*
Y2810*
X2769Y2772D02*
X2781D01*
X2775D02*
Y2810D01*
X2769Y2804*
X2816Y2775D02*
X2822Y2772D01*
X2828*
X2835Y2775*
X2838Y2782*
X2835Y2788*
X2828Y2791*
X2822*
X2828D02*
X2835Y2794D01*
X2838Y2800*
X2835Y2807*
X2828Y2810*
X2822*
X2816Y2807*
X2663Y270D02*
G75*
G03Y207J-31D01*
G01*
G75*
G03Y270J31*
G01*
X2674Y2667D02*
Y2497D01*
X2700Y2497*
G75*
G02X2771I35J-47*
G01*
X2796Y2497*
X2686Y2693D02*
X2785D01*
X2794Y2720*
X2677*
X2686Y2693*
X2686Y133D02*
G75*
G02X2679Y141J8D01*
G01*
Y154*
X2724*
Y329*
X2698*
G75*
G02X2627Y329I-35J47*
G01*
X2602Y329*
X2713Y1038D02*
X3113D01*
Y1138*
X2713*
Y1038*
X2719Y2672D02*
X2674D01*
Y2667*
X2719*
Y2685*
G75*
G03X2712Y2693I-8*
G01*
X2724Y81D02*
X2566D01*
Y71*
X3035*
Y84*
X2877*
Y81*
X2724Y159D02*
X2679D01*
Y154*
X2724Y266D02*
X2732Y238D01*
X2739Y266*
X2724*
X2735Y2556D02*
G75*
G03Y2619J31D01*
G01*
G75*
G03Y2556J-31*
G01*
X2769Y379D02*
X2766Y375D01*
X2760Y372*
X2750*
X2744Y375*
X2741Y379*
X2738Y385*
Y397*
X2741Y404*
X2744Y407*
X2750Y410*
X2760*
X2766Y407*
X2769Y404*
X2788Y372D02*
Y410D01*
X2819Y372*
Y410*
X2838Y382D02*
X2841Y388D01*
X2847Y391*
X2853*
X2860Y388*
X2863Y382*
X2860Y375*
X2853Y372*
X2847*
X2841Y375*
X2838Y382*
Y391*
X2841Y400*
X2847Y407*
X2853Y410*
X2740Y81D02*
Y84D01*
X2862*
Y81*
X2740Y159D02*
X2785D01*
Y154*
X2751Y2672D02*
Y2685D01*
G75*
G02X2759Y2693I8*
G01*
X2751Y133D02*
X2850D01*
X2859Y106*
X2742*
X2751Y133*
X2753Y2604D02*
X2723D01*
Y2574*
X2753*
Y2604*
X2777Y133D02*
G75*
G03X2785Y141J8D01*
G01*
Y154*
X2740*
Y334*
X2767Y334*
G75*
G03X2834Y334I34J42*
G01*
X2862*
Y329*
X2836Y329*
G75*
G02X2765I-35J47*
G01*
X2740Y329*
X2785Y224D02*
X2815D01*
Y254*
X2785*
Y224*
X2796Y2667D02*
Y2672D01*
X2751*
Y2667*
X2796*
Y2492*
X2769*
G75*
G03X2702Y2492I-34J-42*
G01*
X2674Y2492*
Y2497*
X2796Y2745D02*
X2674D01*
X2801Y270D02*
G75*
G03Y207J-31D01*
G01*
G75*
G03Y270J31*
G01*
X2811Y2560D02*
X2804Y2588D01*
X2797Y2560*
X2811*
X2812Y2497D02*
Y2492D01*
X2839Y2492*
G75*
G02X2907Y2492I34J-42*
G01*
X2934*
Y2667*
X2889*
Y2672*
X2934*
Y2667*
X2824Y2693D02*
X2922D01*
X2932Y2720*
X2814*
X2824Y2693*
X2869Y2279D02*
X2866Y2275D01*
X2860Y2272*
X2850*
X2844Y2275*
X2841Y2279*
X2838Y2285*
Y2297*
X2841Y2304*
X2844Y2307*
X2850Y2310*
X2860*
X2866Y2307*
X2869Y2304*
X2894Y2272D02*
X2906D01*
X2900D02*
Y2310D01*
X2894Y2304*
X2941Y2275D02*
X2947Y2272D01*
X2953*
X2960Y2275*
X2963Y2282*
X2960Y2288*
X2953Y2291*
X2947*
X2953D02*
X2960Y2294D01*
X2963Y2300*
X2960Y2307*
X2953Y2310*
X2947*
X2941Y2307*
X2857Y2672D02*
Y2685D01*
G75*
G03X2849Y2693I-8*
G01*
X2862Y159D02*
X2816D01*
Y154*
X2862Y329D02*
Y154D01*
X2816*
Y141*
G75*
G03X2824Y133I8*
G01*
X2863Y1110D02*
X2878Y1072D01*
X2894Y1110*
X2913Y1075D02*
X2919Y1072D01*
X2928*
X2935Y1075*
X2938Y1082*
Y1085*
X2935Y1091*
X2928Y1094*
X2913*
Y1110*
X2938*
X2873Y2556D02*
G75*
G03Y2619J31D01*
G01*
G75*
G03Y2556J-31*
G01*
X2877Y266D02*
X2862D01*
X2870Y238*
X2877Y266*
X2877Y329D02*
Y154D01*
X2923*
Y159*
X2877*
X2889Y2672D02*
Y2685D01*
G75*
G02X2897Y2693I8*
G01*
X2891Y2604D02*
X2861D01*
Y2574*
X2891*
Y2604*
X2915Y133D02*
X2889D01*
X2880Y106*
X2997*
X2988Y133*
X2915*
G75*
G03X2923Y141J8*
G01*
X2923Y154*
X2923Y224D02*
X2953D01*
Y254*
X2923*
Y224*
X2934Y2497D02*
X2908Y2497D01*
G75*
G03X2838Y2497I-35J-47*
G01*
X2812*
Y2667*
X2857*
Y2672*
X2812*
Y2667*
X2934Y2745D02*
X2812D01*
X2939Y271D02*
G75*
G03Y208J-31D01*
G01*
G75*
G03Y271J31*
G01*
X2949Y2560D02*
X2942Y2588D01*
X2934Y2560*
X2949*
X2950Y2497D02*
Y2492D01*
X2977*
G75*
G02X3044Y2492I34J-42*
G01*
X3072Y2492*
Y2497*
X2958Y263D02*
G75*
G03Y213I-20J-25D01*
G01*
X2974Y329D02*
G75*
G02X2903Y329I-35J47D01*
G01*
X2877*
Y334*
X2905*
G75*
G03X2972Y334I34J42*
G01*
X2999Y334*
Y329*
X2974*
X2974Y329*
X2995Y2672D02*
X2950D01*
Y2667*
X2999Y159D02*
X2954D01*
Y154*
X2999Y329D02*
Y154D01*
X2954*
Y141*
G75*
G03X2962Y133I8*
G01*
X3011Y2556D02*
G75*
G03Y2619J31D01*
G01*
G75*
G03Y2556J-31*
G01*
X3027Y2672D02*
Y2667D01*
X3072*
Y2497*
X3046Y2497*
G75*
G03X2975I-35J-47*
G01*
X2950Y2497*
Y2667*
X2995*
Y2685*
G75*
G03X2987Y2693I-8*
G01*
X2961*
X2952Y2720*
X3069*
X3060Y2693*
X3034*
G75*
G03X3027Y2685J-8*
G01*
Y2672*
X3072*
Y2667*
X3028Y2604D02*
X2998D01*
Y2574*
X3028*
Y2604*
X3034Y2693D02*
X2987D01*
X3035Y84D02*
Y356D01*
X2566*
Y84*
X2724*
Y81*
X3035*
X3038Y1597D02*
Y1635D01*
X3056*
X3063Y1632*
X3066Y1629*
X3069Y1622*
Y1610*
X3066Y1604*
X3063Y1600*
X3056Y1597*
X3038*
X3091Y1600D02*
X3097Y1597D01*
X3103*
X3110Y1600*
X3113Y1607*
X3110Y1613*
X3103Y1616*
X3097*
X3103D02*
X3110Y1619D01*
X3113Y1625*
X3110Y1632*
X3103Y1635*
X3097*
X3091Y1632*
X3088Y2088D02*
G75*
G03X3438I175D01*
G01*
G75*
G03X3088I-175*
G01*
X3107Y2741D02*
Y2745D01*
X3113Y1688D02*
Y1713D01*
X3013*
Y1688*
X3113*
G36*
Y1713*
X3013*
Y1688*
X3113*
G37*
Y2110D02*
Y2072D01*
X3144*
X3178D02*
Y2110D01*
X3163Y2085*
X3188*
X3138Y1838D02*
Y1338D01*
X3288*
Y1838*
X3138*
X3194Y1654D02*
X3191Y1650D01*
X3185Y1647*
X3175*
X3169Y1650*
X3166Y1654*
X3163Y1660*
Y1672*
X3166Y1679*
X3169Y1682*
X3175Y1685*
X3185*
X3191Y1682*
X3194Y1679*
X3222Y1647D02*
X3228Y1650D01*
X3235Y1657*
X3238Y1666*
Y1675*
X3235Y1682*
X3228Y1685*
X3222*
X3216Y1682*
X3213Y1675*
X3216Y1669*
X3222Y1666*
X3228*
X3235Y1669*
X3238Y1675*
X3166Y84D02*
Y81D01*
X3202Y159D02*
Y334D01*
X3229*
G75*
G03X3296Y334I34J42*
G01*
X3324Y334*
Y329*
X3244Y1204D02*
X3241Y1200D01*
X3235Y1197*
X3225*
X3219Y1200*
X3216Y1204*
X3213Y1210*
Y1222*
X3216Y1229*
X3219Y1232*
X3225Y1235*
X3235*
X3241Y1232*
X3244Y1229*
X3269Y1197D02*
X3281D01*
X3275D02*
Y1235D01*
X3269Y1229*
X3319Y1197D02*
X3331D01*
X3325D02*
Y1235D01*
X3319Y1229*
X3247Y154D02*
Y159D01*
X3202*
Y154*
X3247*
Y141*
G75*
G02X3239Y133I-8*
G01*
X3312*
X3322Y106*
X3204*
X3213Y133*
X3239*
X3248Y224D02*
X3278D01*
Y254*
X3248*
Y224*
X3263Y270D02*
G75*
G03Y207J-31D01*
G01*
G75*
G03Y270J31*
G01*
X3286Y133D02*
G75*
G02X3279Y141J8D01*
G01*
Y154*
X3324*
Y329*
X3298*
G75*
G02X3227Y329I-35J47*
G01*
X3202Y329*
X3324Y81D02*
X3166D01*
Y71*
X3635*
Y84*
X3477*
Y81*
X3324Y159D02*
X3279D01*
Y154*
X3324Y266D02*
X3332Y238D01*
X3339Y266*
X3324*
X3369Y379D02*
X3366Y375D01*
X3360Y372*
X3350*
X3344Y375*
X3341Y379*
X3338Y385*
Y397*
X3341Y404*
X3344Y407*
X3350Y410*
X3360*
X3366Y407*
X3369Y404*
X3388Y372D02*
Y410D01*
X3419Y372*
Y410*
X3438Y372D02*
X3463Y410D01*
X3438*
X3340Y81D02*
Y84D01*
X3462*
Y81*
X3340Y159D02*
X3385D01*
Y154*
X3351Y133D02*
X3450D01*
X3459Y106*
X3342*
X3351Y133*
X3363Y2338D02*
X4363D01*
Y2738*
X3363*
Y2338*
X3377Y133D02*
G75*
G03X3385Y141J8D01*
G01*
Y154*
X3340*
Y334*
X3367Y334*
G75*
G03X3434Y334I34J42*
G01*
X3462*
Y329*
X3436Y329*
G75*
G02X3365I-35J47*
G01*
X3340Y329*
X3385Y224D02*
X3415D01*
Y254*
X3385*
Y224*
X3388Y1838D02*
Y1338D01*
X3538*
Y1838*
X3388*
X3401Y270D02*
G75*
G03Y207J-31D01*
G01*
G75*
G03Y270J31*
G01*
X3444Y1654D02*
X3441Y1650D01*
X3435Y1647*
X3425*
X3419Y1650*
X3416Y1654*
X3413Y1660*
Y1672*
X3416Y1679*
X3419Y1682*
X3425Y1685*
X3435*
X3441Y1682*
X3444Y1679*
X3469Y1647D02*
X3481D01*
X3475D02*
Y1685D01*
X3469Y1679*
X3516Y1650D02*
X3522Y1647D01*
X3528*
X3535Y1650*
X3538Y1657*
Y1675*
X3535Y1682*
X3528Y1685*
X3522*
X3516Y1682*
X3513Y1675*
Y1657*
X3516Y1650*
X3535Y1682*
X3462Y159D02*
X3416D01*
Y154*
X3462Y329D02*
Y154D01*
X3416*
Y141*
G75*
G03X3424Y133I8*
G01*
X3477Y266D02*
X3462D01*
X3470Y238*
X3477Y266*
X3477Y329D02*
Y154D01*
X3523*
Y159*
X3477*
X3488Y2088D02*
G75*
G03X3838I175D01*
G01*
G75*
G03X3488I-175*
G01*
X3513Y1313D02*
X3013D01*
Y1163*
X3513*
Y1313*
Y2110D02*
Y2072D01*
X3544*
X3566Y2075D02*
X3572Y2072D01*
X3578*
X3585Y2075*
X3588Y2082*
X3585Y2088*
X3578Y2091*
X3572*
X3578D02*
X3585Y2094D01*
X3588Y2100*
X3585Y2107*
X3578Y2110*
X3572*
X3566Y2107*
X3515Y133D02*
X3489D01*
X3480Y106*
X3597*
X3588Y133*
X3515*
G75*
G03X3523Y141J8*
G01*
X3523Y154*
X3523Y224D02*
X3553D01*
Y254*
X3523*
Y224*
X3539Y271D02*
G75*
G03Y208J-31D01*
G01*
G75*
G03Y271J31*
G01*
X3558Y263D02*
G75*
G03Y213I-20J-25D01*
G01*
X3574Y329D02*
G75*
G02X3503Y329I-35J47D01*
G01*
X3477*
Y334*
X3505*
G75*
G03X3572Y334I34J42*
G01*
X3599Y334*
Y329*
X3574*
X3574Y329*
X3599Y159D02*
X3554D01*
Y154*
X3599Y329D02*
Y154D01*
X3554*
Y141*
G75*
G03X3562Y133I8*
G01*
X3635Y84D02*
Y356D01*
X3166*
Y84*
X3324*
Y81*
X3635*
X3768Y79D02*
Y83D01*
X3925*
Y79*
X3803Y158D02*
X3848D01*
Y152*
X3803*
Y332*
X3831*
G75*
G03X3898Y332I34J42*
G01*
X3925Y332*
Y152*
X3880*
Y158*
X3925*
X3803Y327D02*
X3829D01*
G75*
G03X3900Y327I35J47*
G01*
X3925Y327*
X3813Y2547D02*
Y2585D01*
X3844*
X3838Y2566D02*
X3813D01*
X3863Y2557D02*
X3866Y2550D01*
X3872Y2547*
X3885*
X3891Y2550*
X3894Y2557*
X3891Y2563*
X3885Y2566*
X3872*
X3866Y2569*
X3863Y2575*
X3866Y2582*
X3872Y2585*
X3885*
X3891Y2582*
X3894Y2575*
X3919Y2547D02*
X3931D01*
X3925D02*
Y2585D01*
X3919Y2579*
X3848Y152D02*
X3848Y139D01*
G75*
G02X3841Y131I-8*
G01*
X3894Y379D02*
X3891Y375D01*
X3885Y372*
X3875*
X3869Y375*
X3866Y379*
X3863Y385*
Y397*
X3866Y404*
X3869Y407*
X3875Y410*
X3885*
X3891Y407*
X3894Y404*
X3913Y372D02*
Y410D01*
X3944Y372*
Y410*
X3972Y391D02*
X3978D01*
X3985Y394*
X3988Y400*
X3985Y407*
X3978Y410*
X3972*
X3966Y407*
X3963Y400*
X3966Y394*
X3972Y391*
X3966Y388*
X3963Y382*
X3966Y375*
X3972Y372*
X3978*
X3985Y375*
X3988Y382*
X3985Y388*
X3978Y391*
X3864Y268D02*
G75*
G03Y205J-31D01*
G01*
G75*
G03Y268J31*
G01*
X3888Y131D02*
X3914D01*
X3923Y105*
X3806*
X3815Y131*
X3888*
G75*
G02X3880Y139J8*
G01*
Y152*
X3913Y2285D02*
X3928Y2247D01*
X3944Y2285*
X3969Y2247D02*
X3981D01*
X3975D02*
Y2285D01*
X3969Y2279*
X3940Y264D02*
X3926D01*
X3933Y236*
X3940Y264*
X3941Y79D02*
X4098D01*
X3941Y158D02*
Y152D01*
X3986*
Y139*
G75*
G02X3978Y131I-8*
G01*
X3941Y327D02*
Y158D01*
X3986*
Y152*
X4001Y268D02*
G75*
G03Y205J-31D01*
G01*
G75*
G03Y268J31*
G01*
X4013Y1838D02*
Y2238D01*
X3913*
Y1838*
X4013*
X4022Y261D02*
G75*
G03Y212I-20J-25D01*
G01*
X4026Y131D02*
G75*
G02X4018Y139J8D01*
G01*
Y158*
X4063*
Y152*
X4018*
X4061Y105D02*
X4051Y131D01*
X3953*
X3943Y105*
X4061*
X4063Y2285D02*
X4078Y2247D01*
X4094Y2285*
X4116Y2250D02*
X4122Y2247D01*
X4128*
X4135Y2250*
X4138Y2257*
X4135Y2263*
X4128Y2266*
X4122*
X4128D02*
X4135Y2269D01*
X4138Y2275*
X4135Y2282*
X4128Y2285*
X4122*
X4116Y2282*
X4063Y2238D02*
Y1838D01*
X4163*
Y2238*
X4063*
X4063Y158D02*
Y332D01*
X4036Y332*
G75*
G02X3968Y332I-34J42*
G01*
X3941*
Y327*
X3967*
G75*
G03X4037Y327I35J47*
G01*
X4063Y327*
X4213Y2285D02*
X4228Y2247D01*
X4244Y2285*
X4288Y2247D02*
X4263D01*
X4285Y2269*
X4288Y2275*
X4285Y2282*
X4278Y2285*
X4269*
X4263Y2282*
X4213Y2238D02*
Y1838D01*
X4313*
Y2238*
X4213*
X4218Y79D02*
Y83D01*
X4375*
Y79*
X4253Y158D02*
X4298D01*
Y152*
X4253*
Y332*
X4281*
G75*
G03X4348Y332I34J42*
G01*
X4375Y332*
Y152*
X4330*
Y158*
X4375*
X4253Y327D02*
X4279D01*
G75*
G03X4350Y327I35J47*
G01*
X4375Y327*
X4298Y152D02*
X4298Y139D01*
G75*
G02X4291Y131I-8*
G01*
X4344Y379D02*
X4341Y375D01*
X4335Y372*
X4325*
X4319Y375*
X4316Y379*
X4313Y385*
Y397*
X4316Y404*
X4319Y407*
X4325Y410*
X4335*
X4341Y407*
X4344Y404*
X4363Y372D02*
Y410D01*
X4394Y372*
Y410*
X4422Y372D02*
X4428Y375D01*
X4435Y382*
X4438Y391*
Y400*
X4435Y407*
X4428Y410*
X4422*
X4416Y407*
X4413Y400*
X4416Y394*
X4422Y391*
X4428*
X4435Y394*
X4438Y400*
X4314Y268D02*
G75*
G03Y205J-31D01*
G01*
G75*
G03Y268J31*
G01*
X4338Y131D02*
X4364D01*
X4373Y105*
X4256*
X4265Y131*
X4338*
G75*
G02X4330Y139J8*
G01*
Y152*
X4390Y264D02*
X4376D01*
X4383Y236*
X4390Y264*
X4391Y79D02*
X4548D01*
X4391Y158D02*
Y152D01*
X4436*
Y139*
G75*
G02X4428Y131I-8*
G01*
X4391Y327D02*
Y158D01*
X4436*
Y152*
X4413Y1813D02*
X5013D01*
Y2338*
X4413*
Y1813*
X4438Y2038D02*
X4588D01*
Y2113*
X4438*
Y2038*
X4451Y268D02*
G75*
G03Y205J-31D01*
G01*
G75*
G03Y268J31*
G01*
X4472Y261D02*
G75*
G03Y212I-20J-25D01*
G01*
X4476Y131D02*
G75*
G02X4468Y139J8D01*
G01*
Y158*
X4513*
Y152*
X4468*
X4511Y105D02*
X4501Y131D01*
X4403*
X4393Y105*
X4511*
X4513Y158D02*
Y332D01*
X4486Y332*
G75*
G02X4418Y332I-34J42*
G01*
X4391*
Y327*
X4417*
G75*
G03X4487Y327I35J47*
G01*
X4513Y327*
X4613Y2338D02*
Y1813D01*
X4638Y2038D02*
X4788D01*
Y2113*
X4638*
Y2038*
X4744Y2354D02*
X4741Y2350D01*
X4735Y2347*
X4725*
X4719Y2350*
X4716Y2354*
X4713Y2360*
Y2372*
X4716Y2379*
X4719Y2382*
X4725Y2385*
X4735*
X4741Y2382*
X4744Y2379*
X4763Y2347D02*
Y2385D01*
X4794Y2347*
Y2385*
X4819Y2347D02*
X4831D01*
X4825D02*
Y2385D01*
X4819Y2379*
X4738Y810D02*
Y782D01*
X4741Y775*
X4747Y772*
X4760*
X4766Y775*
X4769Y782*
Y810*
X4791Y775D02*
X4797Y772D01*
X4803*
X4810Y775*
X4813Y782*
X4810Y788*
X4803Y791*
X4797*
X4803D02*
X4810Y794D01*
X4813Y800*
X4810Y807*
X4803Y810*
X4797*
X4791Y807*
X4813Y2338D02*
Y1813D01*
X4838Y2038D02*
X4988D01*
Y2113*
X4838*
Y2038*
X5121Y2837D02*
Y3D01*
X3*
Y2837*
X5121*
D02*
D92*
X88Y1153D02*
X538D01*
Y1553*
X88*
Y1153*
X568Y83D02*
Y355D01*
X898*
Y83*
X741D02*
X898D01*
Y69*
X568*
Y79*
X741*
Y83*
X1018D02*
Y355D01*
X1348*
Y83*
X1191D02*
X1348D01*
Y69*
X1018*
Y79*
X1191*
Y83*
X1468D02*
Y355D01*
X1798*
Y83*
X1641D02*
X1798D01*
Y69*
X1468*
Y79*
X1641*
Y83*
X1918D02*
Y355D01*
X2248*
Y83*
X2091D02*
X2248D01*
Y69*
X1918*
Y79*
X2091*
Y83*
X2493Y1008D02*
Y1520D01*
X2335*
Y1008*
X2493*
X2738Y1963D02*
Y2263D01*
X2288*
Y1963*
X2738*
X3063Y1388D02*
Y1538D01*
Y1738D02*
Y1863D01*
X3113Y1538D02*
X3013D01*
Y1738*
X3113*
Y1538*
X3768Y83D02*
Y355D01*
X4098*
Y83*
X3941D02*
X4098D01*
Y69*
X3768*
Y79*
X3941*
Y83*
X4218D02*
Y355D01*
X4548*
Y83*
X4391D02*
X4548D01*
Y69*
X4218*
Y79*
X4391*
Y83*
X5013Y1738D02*
X3613D01*
Y738*
X5013*
Y1738*
D02*
D94*
X353Y1699D02*
G75*
G03X356Y1700I-115J344D01*
G01*
X357Y1701*
X359Y1701*
X353Y2113D02*
G75*
G03X356Y2114I-115J346D01*
G01*
X357Y2114*
X359Y2115*
X353Y1837D02*
G75*
G03X356Y1838I-115J345D01*
G01*
X357Y1838*
X359Y1839*
X353Y1975D02*
G75*
G03X356Y1976I-115J343D01*
G01*
X357Y1976*
X359Y1977*
X353Y2251D02*
G75*
G03X356Y2251I-115J343D01*
G01*
X357Y2252*
X359Y2252*
Y1768D02*
G75*
G03X356Y1769I-111J-315D01*
G01*
X355Y1770*
X353Y1770*
X359Y1906D02*
G75*
G03X356Y1907I-111J-315D01*
G01*
X355Y1908*
X353Y1908*
X359Y2044D02*
G75*
G03X356Y2045I-111J-315D01*
G01*
X355Y2045*
X353Y2046*
X359Y2182D02*
G75*
G03X356Y2183I-111J-316D01*
G01*
X355Y2183*
X353Y2184*
X359Y2320D02*
G75*
G03X356Y2321I-111J-316D01*
G01*
X355Y2321*
X353Y2321*
X631Y332D02*
G75*
G03X630Y330I315J-111D01*
G01*
X629Y328*
X629Y327*
X700Y327D02*
G75*
G03X699Y330I-343J-115D01*
G01*
X698Y331*
X698Y332*
X724Y2497D02*
G75*
G03X725Y2495I344J115D01*
G01*
X726Y2493*
X726Y2492*
X768Y332D02*
G75*
G03X767Y330I316J-111D01*
G01*
X767Y328*
X767Y327*
X793Y2492D02*
G75*
G03X794Y2495I-315J111D01*
G01*
X795Y2496*
X795Y2497*
X837Y327D02*
G75*
G03X837Y330I-344J-115D01*
G01*
X836Y331*
X836Y332*
X862Y2497D02*
G75*
G03X863Y2495I345J115D01*
G01*
X863Y2493*
X864Y2492*
X931D02*
G75*
G03X932Y2495I-315J111D01*
G01*
X932Y2496*
X933Y2497*
X1000Y2497D02*
G75*
G03X1001Y2495I343J115D01*
G01*
X1001Y2493*
X1002Y2492*
X1069D02*
G75*
G03X1070Y2495I-315J111D01*
G01*
X1070Y2496*
X1071Y2497*
X1081Y332D02*
G75*
G03X1080Y330I315J-111D01*
G01*
X1079Y328*
X1079Y327*
X1138Y2497D02*
G75*
G03X1138Y2495I346J115D01*
G01*
X1139Y2493*
X1139Y2492*
X1150Y327D02*
G75*
G03X1149Y330I-343J-115D01*
G01*
X1148Y331*
X1148Y332*
X1207Y2492D02*
G75*
G03X1208Y2495I-316J111D01*
G01*
X1208Y2496*
X1208Y2497*
X1218Y332D02*
G75*
G03X1217Y330I316J-111D01*
G01*
X1217Y328*
X1217Y327*
X1275Y2497D02*
G75*
G03X1276Y2495I343J115D01*
G01*
X1277Y2493*
X1277Y2492*
X1287Y327D02*
G75*
G03X1287Y330I-344J-115D01*
G01*
X1286Y331*
X1286Y332*
X1344Y2492D02*
G75*
G03X1345Y2495I-316J111D01*
G01*
X1346Y2496*
X1346Y2497*
X1531Y332D02*
G75*
G03X1530Y330I315J-111D01*
G01*
X1529Y328*
X1529Y327*
X1574Y2497D02*
G75*
G03X1575Y2495I344J115D01*
G01*
X1575Y2493*
X1576Y2492*
X1600Y327D02*
G75*
G03X1599Y330I-343J-115D01*
G01*
X1598Y331*
X1598Y332*
X1643Y2492D02*
G75*
G03X1644Y2495I-315J111D01*
G01*
X1645Y2496*
X1645Y2497*
X1668Y332D02*
G75*
G03X1667Y330I316J-111D01*
G01*
X1667Y328*
X1667Y327*
X1712Y2497D02*
G75*
G03X1713Y2495I345J115D01*
G01*
X1713Y2493*
X1714Y2492*
X1737Y327D02*
G75*
G03X1737Y330I-344J-115D01*
G01*
X1736Y331*
X1736Y332*
X1781Y2492D02*
G75*
G03X1782Y2495I-315J111D01*
G01*
X1782Y2496*
X1783Y2497*
X1850Y2497D02*
G75*
G03X1851Y2495I343J115D01*
G01*
X1851Y2493*
X1852Y2492*
X1919D02*
G75*
G03X1920Y2495I-315J111D01*
G01*
X1920Y2496*
X1921Y2497*
X1981Y332D02*
G75*
G03X1980Y330I315J-111D01*
G01*
X1979Y328*
X1979Y327*
X1988Y2497D02*
G75*
G03X1988Y2495I346J115D01*
G01*
X1989Y2493*
X1989Y2492*
X2050Y327D02*
G75*
G03X2049Y330I-343J-115D01*
G01*
X2048Y331*
X2048Y332*
X2057Y2492D02*
G75*
G03X2058Y2495I-316J111D01*
G01*
X2058Y2496*
X2058Y2497*
X2118Y332D02*
G75*
G03X2117Y330I316J-111D01*
G01*
X2117Y328*
X2117Y327*
X2125Y2497D02*
G75*
G03X2126Y2495I343J115D01*
G01*
X2127Y2493*
X2127Y2492*
X2187Y327D02*
G75*
G03X2187Y330I-344J-115D01*
G01*
X2186Y331*
X2186Y332*
X2194Y2492D02*
G75*
G03X2195Y2495I-316J111D01*
G01*
X2196Y2496*
X2196Y2497*
X2424D02*
G75*
G03X2425Y2495I344J115D01*
G01*
X2426Y2493*
X2426Y2492*
X2493D02*
G75*
G03X2494Y2495I-315J111D01*
G01*
X2495Y2496*
X2495Y2497*
X2562Y2497D02*
G75*
G03X2563Y2495I345J115D01*
G01*
X2563Y2493*
X2564Y2492*
X2629Y334D02*
G75*
G03X2628Y331I315J-111D01*
G01*
X2628Y330*
X2627Y329*
X2631Y2492D02*
G75*
G03X2632Y2495I-315J111D01*
G01*
X2632Y2496*
X2633Y2497*
X2698Y329D02*
G75*
G03X2697Y331I-344J-115D01*
G01*
X2697Y333*
X2696Y334*
X2700Y2497D02*
G75*
G03X2701Y2495I343J115D01*
G01*
X2701Y2493*
X2702Y2492*
X2713Y1728D02*
Y1708D01*
X2813*
Y1728*
X2713*
G36*
Y1708*
X2813*
Y1728*
X2713*
G37*
X2767Y334D02*
G75*
G03X2766Y331I316J-111D01*
G01*
X2766Y330*
X2765Y329*
X2769Y2492D02*
G75*
G03X2770Y2495I-315J111D01*
G01*
X2770Y2496*
X2771Y2497*
X2836Y329D02*
G75*
G03X2835Y331I-343J-115D01*
G01*
X2835Y333*
X2834Y334*
X2838Y2497D02*
G75*
G03X2838Y2495I346J115D01*
G01*
X2839Y2493*
X2839Y2492*
X2905Y334D02*
G75*
G03X2904Y331I315J-111D01*
G01*
X2903Y330*
X2903Y329*
X2907Y2492D02*
G75*
G03X2908Y2495I-316J111D01*
G01*
X2908Y2496*
X2908Y2497*
X2974Y329D02*
G75*
G03X2973Y331I-344J-115D01*
G01*
X2973Y333*
X2972Y334*
X2975Y2497D02*
G75*
G03X2976Y2495I343J115D01*
G01*
X2977Y2493*
X2977Y2492*
X3044D02*
G75*
G03X3045Y2495I-316J111D01*
G01*
X3046Y2496*
X3046Y2497*
X3229Y334D02*
G75*
G03X3228Y331I315J-111D01*
G01*
X3228Y330*
X3227Y329*
X3298D02*
G75*
G03X3297Y331I-344J-115D01*
G01*
X3297Y333*
X3296Y334*
X3367D02*
G75*
G03X3366Y331I316J-111D01*
G01*
X3366Y330*
X3365Y329*
X3436Y329D02*
G75*
G03X3435Y331I-343J-115D01*
G01*
X3435Y333*
X3434Y334*
X3505D02*
G75*
G03X3504Y331I315J-111D01*
G01*
X3503Y330*
X3503Y329*
X3574D02*
G75*
G03X3573Y331I-344J-115D01*
G01*
X3573Y333*
X3572Y334*
X3831Y332D02*
G75*
G03X3830Y330I315J-111D01*
G01*
X3829Y328*
X3829Y327*
X3900Y327D02*
G75*
G03X3899Y330I-343J-115D01*
G01*
X3898Y331*
X3898Y332*
X3968D02*
G75*
G03X3967Y330I316J-111D01*
G01*
X3967Y328*
X3967Y327*
X4037D02*
G75*
G03X4037Y330I-344J-115D01*
G01*
X4036Y331*
X4036Y332*
X4281D02*
G75*
G03X4280Y330I315J-111D01*
G01*
X4279Y328*
X4279Y327*
X4350Y327D02*
G75*
G03X4349Y330I-343J-115D01*
G01*
X4348Y331*
X4348Y332*
X4418D02*
G75*
G03X4417Y330I316J-111D01*
G01*
X4417Y328*
X4417Y327*
X4487D02*
G75*
G03X4487Y330I-344J-115D01*
G01*
X4486Y331*
X4486Y332*
X4632Y1261D02*
X4634D01*
X4637*
X4647Y1258*
X4649*
X4650Y1256*
X4659Y1252*
X4662Y1249*
X4667Y1241*
Y1240*
X4668Y1237*
X4670Y1226*
Y1166*
X4658*
Y1225*
X4656Y1235*
X4650Y1244*
X4643Y1249*
X4632Y1250*
X4622Y1249*
X4614Y1244*
X4611Y1243*
X4608Y1235*
X4607Y1232*
X4605Y1223*
Y1166*
X4593*
Y1225*
Y1231*
X4596Y1240*
X4598Y1244*
X4605Y1252*
Y1253*
X4608Y1255*
X4617Y1258*
X4619*
X4622Y1259*
X4632Y1261*
X4509Y1259D02*
Y1216D01*
X4560*
Y1259*
X4572*
Y1166*
X4560*
Y1205*
X4509*
Y1166*
X4497*
Y1259*
X4509*
X4401Y1234D02*
X4404Y1244D01*
X4406Y1247*
X4410Y1252*
Y1253*
X4413Y1255*
X4422Y1258*
X4424*
X4427Y1259*
X4440Y1261*
X4443*
X4449*
X4467Y1255*
X4469Y1253*
X4472Y1250*
X4476Y1244*
X4479Y1237*
X4467Y1235*
X4464Y1241*
X4460Y1246*
X4451Y1249*
X4439Y1250*
X4428Y1249*
X4425*
X4421Y1246*
X4416Y1241*
X4415Y1240*
X4413Y1234*
Y1231*
X4416Y1226*
X4418Y1225*
X4422Y1222*
X4424Y1220*
X4431Y1219*
X4434Y1217*
X4442Y1216*
X4445*
X4451Y1214*
X4452Y1213*
X4458Y1211*
X4460*
X4464Y1208*
X4466Y1207*
X4470Y1204*
X4472Y1202*
X4473Y1198*
Y1196*
X4475Y1190*
Y1189*
Y1186*
X4472Y1178*
X4464Y1171*
X4454Y1166*
X4439Y1165*
X4424Y1166*
X4413Y1169*
X4410Y1171*
X4407Y1177*
X4403Y1186*
X4415Y1189*
X4416Y1187*
X4418Y1183*
X4419Y1181*
X4422Y1178*
X4424Y1177*
X4430Y1175*
X4433*
X4439*
X4440*
X4443*
X4451*
X4454Y1177*
X4458Y1178*
X4461Y1183*
X4463Y1189*
X4461Y1196*
X4455Y1201*
X4446Y1204*
X4437Y1205*
X4428Y1207*
X4421Y1210*
X4413Y1213*
X4407Y1219*
X4403Y1225*
X4401Y1234*
X4388Y1259D02*
Y1250D01*
Y1249*
X4386Y1246*
X4380Y1237*
X4379Y1235*
X4377Y1234*
X4371Y1226*
X4361Y1217*
X4350Y1208*
X4347Y1207*
X4344Y1201*
X4343Y1198*
X4341Y1190*
Y1189*
X4343Y1184*
X4344Y1183*
X4346Y1178*
X4347Y1177*
X4352Y1175*
X4353*
X4358*
X4359*
X4364*
X4365Y1177*
X4370Y1178*
X4371Y1180*
X4374Y1183*
X4376Y1190*
X4388Y1189*
Y1186*
X4386Y1180*
X4385Y1177*
X4380Y1172*
X4371Y1166*
X4358Y1165*
X4346Y1166*
X4337Y1171*
X4332Y1178*
X4329Y1190*
X4331Y1199*
X4335Y1207*
X4337Y1210*
X4343Y1214*
X4344Y1216*
X4350Y1220*
X4352Y1223*
X4358Y1228*
X4359Y1229*
X4365Y1234*
X4371Y1241*
X4374Y1249*
X4328*
Y1259*
X4388*
X4251Y1229D02*
X4254Y1241D01*
X4256Y1244*
X4260Y1252*
X4262Y1255*
X4269Y1258*
X4271*
X4274Y1259*
X4284Y1261*
X4286*
X4287*
X4296Y1259*
X4298*
X4299Y1258*
X4305Y1255*
X4307Y1253*
X4311Y1247*
X4313Y1244*
X4314Y1238*
X4302Y1237*
X4301Y1241*
X4298Y1246*
X4292Y1249*
X4283Y1250*
X4275Y1249*
X4272Y1247*
X4269Y1244*
X4268Y1243*
X4265Y1238*
X4263Y1235*
Y1229*
Y1226*
X4265Y1220*
X4266Y1219*
X4269Y1214*
X4271Y1213*
X4275Y1211*
X4277*
X4283Y1210*
X4284*
X4289*
X4290Y1211*
X4293*
X4295Y1213*
X4296Y1214*
X4298Y1216*
X4299*
X4311*
X4308Y1166*
X4257*
Y1177*
X4298*
X4299Y1205*
X4292Y1201*
X4281Y1199*
X4269Y1201*
X4260Y1207*
X4257Y1210*
X4254Y1216*
X4253Y1220*
X4251Y1229*
X4223Y1177D02*
Y1211D01*
X4170*
Y1222*
X4223*
Y1259*
X4235*
Y1166*
X4169*
Y1177*
X4223*
X4155Y1259D02*
Y1250D01*
Y1249*
X4154Y1246*
X4148Y1237*
X4146Y1235*
X4145Y1234*
X4139Y1226*
X4128Y1217*
X4118Y1208*
X4115Y1207*
X4112Y1201*
X4110Y1198*
X4109Y1190*
Y1189*
X4110Y1184*
X4112Y1183*
X4113Y1178*
X4115Y1177*
X4119Y1175*
X4121*
X4125*
X4127*
X4131*
X4133Y1177*
X4137Y1178*
X4139Y1180*
X4142Y1183*
X4143Y1190*
X4155Y1189*
Y1186*
X4154Y1180*
X4152Y1177*
X4148Y1172*
X4139Y1166*
X4125Y1165*
X4113Y1166*
X4104Y1171*
X4100Y1178*
X4097Y1190*
X4098Y1199*
X4103Y1207*
X4104Y1210*
X4110Y1214*
X4112Y1216*
X4118Y1220*
X4119Y1223*
X4125Y1228*
X4127Y1229*
X4133Y1234*
X4139Y1241*
X4142Y1249*
X4095*
Y1259*
X4155*
X4031Y1240D02*
Y1259D01*
X4041*
Y1240*
X4085*
Y1231*
X4043Y1166*
X4031*
Y1229*
X4017*
Y1240*
X4041Y1180D02*
X4043D01*
X4044Y1183*
X4046Y1186*
Y1187*
X4070Y1223*
X4071*
X4073Y1226*
Y1228*
Y1229*
X4074*
X4041*
Y1180*
X4123Y1165D02*
X4128D01*
X4356D02*
X4360D01*
X4436D02*
X4441D01*
X4116Y1166D02*
X4136D01*
X4348D02*
X4368D01*
X4427D02*
X4451D01*
X4112Y1167D02*
X4140D01*
X4169D02*
X4235D01*
X4257D02*
X4308D01*
X4344D02*
X4372D01*
X4422D02*
X4455D01*
X4497D02*
X4509D01*
X4560D02*
X4572D01*
X4593D02*
X4605D01*
X4658D02*
X4670D01*
X4110Y1168D02*
X4141D01*
X4169D02*
X4235D01*
X4257D02*
X4308D01*
X4343D02*
X4374D01*
X4418D02*
X4457D01*
X4497D02*
X4509D01*
X4560D02*
X4572D01*
X4593D02*
X4605D01*
X4658D02*
X4670D01*
X4108Y1169D02*
X4142D01*
X4169D02*
X4235D01*
X4257D02*
X4308D01*
X4341D02*
X4375D01*
X4415D02*
X4460D01*
X4497D02*
X4509D01*
X4560D02*
X4572D01*
X4593D02*
X4605D01*
X4658D02*
X4670D01*
X4106Y1170D02*
X4144D01*
X4169D02*
X4235D01*
X4257D02*
X4308D01*
X4339D02*
X4376D01*
X4412D02*
X4462D01*
X4497D02*
X4509D01*
X4560D02*
X4572D01*
X4593D02*
X4605D01*
X4658D02*
X4670D01*
X4104Y1171D02*
X4145D01*
X4169D02*
X4235D01*
X4257D02*
X4309D01*
X4337D02*
X4378D01*
X4410D02*
X4464D01*
X4497D02*
X4509D01*
X4560D02*
X4572D01*
X4593D02*
X4605D01*
X4658D02*
X4670D01*
X4104Y1172D02*
X4147D01*
X4169D02*
X4235D01*
X4257D02*
X4309D01*
X4336D02*
X4379D01*
X4410D02*
X4465D01*
X4497D02*
X4509D01*
X4560D02*
X4572D01*
X4593D02*
X4605D01*
X4658D02*
X4670D01*
X4103Y1173D02*
X4148D01*
X4169D02*
X4235D01*
X4257D02*
X4309D01*
X4336D02*
X4380D01*
X4409D02*
X4466D01*
X4497D02*
X4509D01*
X4560D02*
X4572D01*
X4593D02*
X4605D01*
X4658D02*
X4670D01*
X4103Y1174D02*
X4149D01*
X4169D02*
X4235D01*
X4257D02*
X4309D01*
X4335D02*
X4381D01*
X4409D02*
X4467D01*
X4497D02*
X4509D01*
X4560D02*
X4572D01*
X4593D02*
X4605D01*
X4658D02*
X4670D01*
X4102Y1175D02*
X4150D01*
X4169D02*
X4235D01*
X4257D02*
X4309D01*
X4335D02*
X4382D01*
X4408D02*
X4468D01*
X4497D02*
X4509D01*
X4560D02*
X4572D01*
X4593D02*
X4605D01*
X4658D02*
X4670D01*
X4102Y1175D02*
X4119D01*
X4131D02*
X4151D01*
X4169D02*
X4235D01*
X4257D02*
X4309D01*
X4334D02*
X4352D01*
X4364D02*
X4383D01*
X4408D02*
X4430D01*
X4451D02*
X4469D01*
X4497D02*
X4509D01*
X4560D02*
X4572D01*
X4593D02*
X4605D01*
X4658D02*
X4670D01*
X4101Y1176D02*
X4116D01*
X4132D02*
X4152D01*
X4169D02*
X4235D01*
X4257D02*
X4309D01*
X4333D02*
X4349D01*
X4365D02*
X4384D01*
X4407D02*
X4426D01*
X4453D02*
X4470D01*
X4497D02*
X4509D01*
X4560D02*
X4572D01*
X4593D02*
X4605D01*
X4658D02*
X4670D01*
X4100Y1177D02*
X4114D01*
X4134D02*
X4152D01*
X4223D02*
X4235D01*
X4298D02*
X4309D01*
X4333D02*
X4347D01*
X4367D02*
X4385D01*
X4407D02*
X4423D01*
X4455D02*
X4471D01*
X4497D02*
X4509D01*
X4560D02*
X4572D01*
X4593D02*
X4605D01*
X4658D02*
X4670D01*
X4100Y1178D02*
X4113D01*
X4137D02*
X4153D01*
X4223D02*
X4235D01*
X4298D02*
X4309D01*
X4332D02*
X4346D01*
X4369D02*
X4385D01*
X4407D02*
X4422D01*
X4458D02*
X4472D01*
X4497D02*
X4509D01*
X4560D02*
X4572D01*
X4593D02*
X4605D01*
X4658D02*
X4670D01*
X4100Y1179D02*
X4113D01*
X4138D02*
X4153D01*
X4223D02*
X4235D01*
X4298D02*
X4309D01*
X4332D02*
X4345D01*
X4371D02*
X4386D01*
X4406D02*
X4421D01*
X4459D02*
X4472D01*
X4497D02*
X4509D01*
X4560D02*
X4572D01*
X4593D02*
X4605D01*
X4658D02*
X4670D01*
X4041Y1180D02*
X4043D01*
X4099D02*
X4113D01*
X4139D02*
X4154D01*
X4223D02*
X4235D01*
X4298D02*
X4309D01*
X4332D02*
X4345D01*
X4371D02*
X4386D01*
X4406D02*
X4420D01*
X4459D02*
X4472D01*
X4497D02*
X4509D01*
X4560D02*
X4572D01*
X4593D02*
X4605D01*
X4658D02*
X4670D01*
X4041Y1181D02*
X4043D01*
X4099D02*
X4112D01*
X4140D02*
X4154D01*
X4223D02*
X4235D01*
X4298D02*
X4309D01*
X4332D02*
X4345D01*
X4372D02*
X4387D01*
X4405D02*
X4420D01*
X4460D02*
X4473D01*
X4497D02*
X4509D01*
X4560D02*
X4572D01*
X4593D02*
X4605D01*
X4658D02*
X4670D01*
X4041Y1182D02*
X4044D01*
X4099D02*
X4112D01*
X4141D02*
X4154D01*
X4223D02*
X4235D01*
X4298D02*
X4309D01*
X4331D02*
X4345D01*
X4373D02*
X4387D01*
X4405D02*
X4419D01*
X4461D02*
X4473D01*
X4497D02*
X4509D01*
X4560D02*
X4572D01*
X4593D02*
X4605D01*
X4658D02*
X4670D01*
X4041Y1183D02*
X4044D01*
X4099D02*
X4112D01*
X4142D02*
X4154D01*
X4223D02*
X4235D01*
X4298D02*
X4309D01*
X4331D02*
X4344D01*
X4374D02*
X4387D01*
X4404D02*
X4418D01*
X4461D02*
X4474D01*
X4497D02*
X4509D01*
X4560D02*
X4572D01*
X4593D02*
X4605D01*
X4658D02*
X4670D01*
X4041Y1184D02*
X4045D01*
X4098D02*
X4111D01*
X4142D02*
X4155D01*
X4223D02*
X4235D01*
X4298D02*
X4309D01*
X4331D02*
X4343D01*
X4374D02*
X4387D01*
X4404D02*
X4417D01*
X4461D02*
X4474D01*
X4497D02*
X4509D01*
X4560D02*
X4572D01*
X4593D02*
X4605D01*
X4658D02*
X4670D01*
X4041Y1185D02*
X4045D01*
X4098D02*
X4110D01*
X4142D02*
X4155D01*
X4223D02*
X4235D01*
X4298D02*
X4309D01*
X4331D02*
X4343D01*
X4375D02*
X4387D01*
X4403D02*
X4417D01*
X4462D02*
X4474D01*
X4497D02*
X4509D01*
X4560D02*
X4572D01*
X4593D02*
X4605D01*
X4658D02*
X4670D01*
X4041Y1186D02*
X4046D01*
X4098D02*
X4110D01*
X4142D02*
X4155D01*
X4223D02*
X4235D01*
X4298D02*
X4309D01*
X4330D02*
X4342D01*
X4375D02*
X4388D01*
X4403D02*
X4417D01*
X4462D02*
X4475D01*
X4497D02*
X4509D01*
X4560D02*
X4572D01*
X4593D02*
X4605D01*
X4658D02*
X4670D01*
X4041Y1187D02*
X4046D01*
X4098D02*
X4109D01*
X4142D02*
X4155D01*
X4223D02*
X4235D01*
X4298D02*
X4309D01*
X4330D02*
X4342D01*
X4375D02*
X4388D01*
X4406D02*
X4416D01*
X4462D02*
X4475D01*
X4497D02*
X4509D01*
X4560D02*
X4572D01*
X4593D02*
X4605D01*
X4658D02*
X4670D01*
X4041Y1188D02*
X4046D01*
X4097D02*
X4109D01*
X4143D02*
X4155D01*
X4223D02*
X4235D01*
X4298D02*
X4310D01*
X4330D02*
X4342D01*
X4375D02*
X4388D01*
X4410D02*
X4416D01*
X4462D02*
X4475D01*
X4497D02*
X4509D01*
X4560D02*
X4572D01*
X4593D02*
X4605D01*
X4658D02*
X4670D01*
X4041Y1189D02*
X4047D01*
X4097D02*
X4109D01*
X4143D02*
X4155D01*
X4223D02*
X4235D01*
X4298D02*
X4310D01*
X4330D02*
X4341D01*
X4375D02*
X4388D01*
X4413D02*
X4415D01*
X4463D02*
X4475D01*
X4497D02*
X4509D01*
X4560D02*
X4572D01*
X4593D02*
X4605D01*
X4658D02*
X4670D01*
X4041Y1190D02*
X4047D01*
X4097D02*
X4109D01*
X4143D02*
X4150D01*
X4223D02*
X4235D01*
X4298D02*
X4310D01*
X4329D02*
X4341D01*
X4376D02*
X4383D01*
X4463D02*
X4475D01*
X4497D02*
X4509D01*
X4560D02*
X4572D01*
X4593D02*
X4605D01*
X4658D02*
X4670D01*
X4041Y1190D02*
X4048D01*
X4097D02*
X4109D01*
X4223D02*
X4235D01*
X4298D02*
X4310D01*
X4329D02*
X4341D01*
X4462D02*
X4475D01*
X4497D02*
X4509D01*
X4560D02*
X4572D01*
X4593D02*
X4605D01*
X4658D02*
X4670D01*
X4041Y1191D02*
X4048D01*
X4097D02*
X4109D01*
X4223D02*
X4235D01*
X4299D02*
X4310D01*
X4329D02*
X4341D01*
X4462D02*
X4474D01*
X4497D02*
X4509D01*
X4560D02*
X4572D01*
X4593D02*
X4605D01*
X4658D02*
X4670D01*
X4041Y1192D02*
X4049D01*
X4097D02*
X4109D01*
X4223D02*
X4235D01*
X4299D02*
X4310D01*
X4330D02*
X4342D01*
X4462D02*
X4474D01*
X4497D02*
X4509D01*
X4560D02*
X4572D01*
X4593D02*
X4605D01*
X4658D02*
X4670D01*
X4041Y1193D02*
X4050D01*
X4097D02*
X4109D01*
X4223D02*
X4235D01*
X4299D02*
X4310D01*
X4330D02*
X4342D01*
X4462D02*
X4474D01*
X4497D02*
X4509D01*
X4560D02*
X4572D01*
X4593D02*
X4605D01*
X4658D02*
X4670D01*
X4041Y1194D02*
X4050D01*
X4097D02*
X4109D01*
X4223D02*
X4235D01*
X4299D02*
X4310D01*
X4330D02*
X4342D01*
X4462D02*
X4474D01*
X4497D02*
X4509D01*
X4560D02*
X4572D01*
X4593D02*
X4605D01*
X4658D02*
X4670D01*
X4041Y1195D02*
X4051D01*
X4098D02*
X4110D01*
X4223D02*
X4235D01*
X4299D02*
X4310D01*
X4330D02*
X4342D01*
X4461D02*
X4474D01*
X4497D02*
X4509D01*
X4560D02*
X4572D01*
X4593D02*
X4605D01*
X4658D02*
X4670D01*
X4041Y1196D02*
X4052D01*
X4098D02*
X4110D01*
X4223D02*
X4235D01*
X4299D02*
X4310D01*
X4330D02*
X4342D01*
X4461D02*
X4473D01*
X4497D02*
X4509D01*
X4560D02*
X4572D01*
X4593D02*
X4605D01*
X4658D02*
X4670D01*
X4041Y1197D02*
X4052D01*
X4098D02*
X4110D01*
X4223D02*
X4235D01*
X4299D02*
X4310D01*
X4330D02*
X4343D01*
X4460D02*
X4473D01*
X4497D02*
X4509D01*
X4560D02*
X4572D01*
X4593D02*
X4605D01*
X4658D02*
X4670D01*
X4041Y1198D02*
X4053D01*
X4098D02*
X4110D01*
X4223D02*
X4235D01*
X4299D02*
X4310D01*
X4330D02*
X4343D01*
X4459D02*
X4473D01*
X4497D02*
X4509D01*
X4560D02*
X4572D01*
X4593D02*
X4605D01*
X4658D02*
X4670D01*
X4041Y1199D02*
X4053D01*
X4098D02*
X4111D01*
X4223D02*
X4235D01*
X4299D02*
X4310D01*
X4331D02*
X4343D01*
X4458D02*
X4473D01*
X4497D02*
X4509D01*
X4560D02*
X4572D01*
X4593D02*
X4605D01*
X4658D02*
X4670D01*
X4041Y1200D02*
X4054D01*
X4098D02*
X4111D01*
X4223D02*
X4235D01*
X4278D02*
X4284D01*
X4299D02*
X4310D01*
X4331D02*
X4344D01*
X4457D02*
X4473D01*
X4497D02*
X4509D01*
X4560D02*
X4572D01*
X4593D02*
X4605D01*
X4658D02*
X4670D01*
X4041Y1201D02*
X4055D01*
X4099D02*
X4112D01*
X4223D02*
X4235D01*
X4270D02*
X4291D01*
X4299D02*
X4310D01*
X4332D02*
X4344D01*
X4455D02*
X4472D01*
X4497D02*
X4509D01*
X4560D02*
X4572D01*
X4593D02*
X4605D01*
X4658D02*
X4670D01*
X4041Y1202D02*
X4055D01*
X4100D02*
X4112D01*
X4223D02*
X4235D01*
X4268D02*
X4293D01*
X4299D02*
X4310D01*
X4332D02*
X4345D01*
X4453D02*
X4472D01*
X4497D02*
X4509D01*
X4560D02*
X4572D01*
X4593D02*
X4605D01*
X4658D02*
X4670D01*
X4041Y1203D02*
X4056D01*
X4100D02*
X4113D01*
X4223D02*
X4235D01*
X4267D02*
X4295D01*
X4299D02*
X4310D01*
X4333D02*
X4345D01*
X4450D02*
X4472D01*
X4497D02*
X4509D01*
X4560D02*
X4572D01*
X4593D02*
X4605D01*
X4658D02*
X4670D01*
X4041Y1204D02*
X4057D01*
X4101D02*
X4113D01*
X4223D02*
X4235D01*
X4265D02*
X4296D01*
X4299D02*
X4310D01*
X4333D02*
X4346D01*
X4447D02*
X4471D01*
X4497D02*
X4509D01*
X4560D02*
X4572D01*
X4593D02*
X4605D01*
X4658D02*
X4670D01*
X4041Y1205D02*
X4057D01*
X4101D02*
X4114D01*
X4223D02*
X4235D01*
X4264D02*
X4298D01*
X4299D02*
X4311D01*
X4334D02*
X4346D01*
X4443D02*
X4469D01*
X4497D02*
X4509D01*
X4560D02*
X4572D01*
X4593D02*
X4605D01*
X4658D02*
X4670D01*
X4041Y1205D02*
X4058D01*
X4102D02*
X4114D01*
X4223D02*
X4235D01*
X4262D02*
X4311D01*
X4334D02*
X4347D01*
X4437D02*
X4468D01*
X4497D02*
X4572D01*
X4593D02*
X4605D01*
X4658D02*
X4670D01*
X4041Y1206D02*
X4058D01*
X4102D02*
X4114D01*
X4223D02*
X4235D01*
X4261D02*
X4311D01*
X4335D02*
X4347D01*
X4431D02*
X4467D01*
X4497D02*
X4572D01*
X4593D02*
X4605D01*
X4658D02*
X4670D01*
X4041Y1207D02*
X4059D01*
X4103D02*
X4116D01*
X4223D02*
X4235D01*
X4260D02*
X4311D01*
X4335D02*
X4348D01*
X4427D02*
X4465D01*
X4497D02*
X4572D01*
X4593D02*
X4605D01*
X4658D02*
X4670D01*
X4041Y1208D02*
X4060D01*
X4103D02*
X4117D01*
X4223D02*
X4235D01*
X4259D02*
X4311D01*
X4336D02*
X4350D01*
X4425D02*
X4464D01*
X4497D02*
X4572D01*
X4593D02*
X4605D01*
X4658D02*
X4670D01*
X4041Y1209D02*
X4060D01*
X4104D02*
X4119D01*
X4223D02*
X4235D01*
X4258D02*
X4311D01*
X4336D02*
X4351D01*
X4423D02*
X4463D01*
X4497D02*
X4572D01*
X4593D02*
X4605D01*
X4658D02*
X4670D01*
X4041Y1210D02*
X4061D01*
X4105D02*
X4120D01*
X4223D02*
X4235D01*
X4257D02*
X4282D01*
X4289D02*
X4311D01*
X4337D02*
X4352D01*
X4420D02*
X4462D01*
X4497D02*
X4572D01*
X4593D02*
X4605D01*
X4658D02*
X4670D01*
X4041Y1211D02*
X4062D01*
X4106D02*
X4121D01*
X4223D02*
X4235D01*
X4257D02*
X4278D01*
X4290D02*
X4311D01*
X4338D02*
X4353D01*
X4418D02*
X4460D01*
X4497D02*
X4572D01*
X4593D02*
X4605D01*
X4658D02*
X4670D01*
X4041Y1212D02*
X4062D01*
X4107D02*
X4122D01*
X4170D02*
X4235D01*
X4256D02*
X4273D01*
X4294D02*
X4311D01*
X4340D02*
X4354D01*
X4415D02*
X4456D01*
X4497D02*
X4572D01*
X4593D02*
X4605D01*
X4658D02*
X4670D01*
X4041Y1213D02*
X4063D01*
X4108D02*
X4123D01*
X4170D02*
X4235D01*
X4256D02*
X4271D01*
X4295D02*
X4311D01*
X4341D02*
X4356D01*
X4413D02*
X4452D01*
X4497D02*
X4572D01*
X4593D02*
X4605D01*
X4658D02*
X4670D01*
X4041Y1214D02*
X4063D01*
X4110D02*
X4124D01*
X4170D02*
X4235D01*
X4255D02*
X4270D01*
X4296D02*
X4311D01*
X4342D02*
X4357D01*
X4412D02*
X4451D01*
X4497D02*
X4572D01*
X4593D02*
X4605D01*
X4658D02*
X4670D01*
X4041Y1215D02*
X4064D01*
X4111D02*
X4125D01*
X4170D02*
X4235D01*
X4255D02*
X4269D01*
X4297D02*
X4311D01*
X4343D02*
X4358D01*
X4411D02*
X4449D01*
X4497D02*
X4572D01*
X4593D02*
X4605D01*
X4658D02*
X4670D01*
X4041Y1216D02*
X4065D01*
X4112D02*
X4126D01*
X4170D02*
X4235D01*
X4254D02*
X4268D01*
X4298D02*
X4311D01*
X4344D02*
X4359D01*
X4410D02*
X4445D01*
X4497D02*
X4572D01*
X4593D02*
X4605D01*
X4658D02*
X4670D01*
X4041Y1217D02*
X4065D01*
X4113D02*
X4127D01*
X4170D02*
X4235D01*
X4254D02*
X4268D01*
X4345D02*
X4360D01*
X4409D02*
X4438D01*
X4497D02*
X4509D01*
X4560D02*
X4572D01*
X4593D02*
X4605D01*
X4658D02*
X4670D01*
X4041Y1218D02*
X4066D01*
X4114D02*
X4128D01*
X4170D02*
X4235D01*
X4254D02*
X4267D01*
X4347D02*
X4361D01*
X4409D02*
X4434D01*
X4497D02*
X4509D01*
X4560D02*
X4572D01*
X4593D02*
X4605D01*
X4658D02*
X4670D01*
X4041Y1219D02*
X4067D01*
X4115D02*
X4130D01*
X4170D02*
X4235D01*
X4253D02*
X4266D01*
X4348D02*
X4362D01*
X4408D02*
X4432D01*
X4497D02*
X4509D01*
X4560D02*
X4572D01*
X4593D02*
X4605D01*
X4658D02*
X4670D01*
X4041Y1220D02*
X4067D01*
X4117D02*
X4131D01*
X4170D02*
X4235D01*
X4253D02*
X4266D01*
X4349D02*
X4363D01*
X4407D02*
X4428D01*
X4497D02*
X4509D01*
X4560D02*
X4572D01*
X4593D02*
X4605D01*
X4658D02*
X4670D01*
X4041Y1220D02*
X4068D01*
X4118D02*
X4132D01*
X4170D02*
X4235D01*
X4253D02*
X4265D01*
X4350D02*
X4364D01*
X4406D02*
X4424D01*
X4497D02*
X4509D01*
X4560D02*
X4572D01*
X4593D02*
X4605D01*
X4658D02*
X4670D01*
X4041Y1221D02*
X4068D01*
X4118D02*
X4133D01*
X4170D02*
X4235D01*
X4253D02*
X4264D01*
X4351D02*
X4365D01*
X4405D02*
X4423D01*
X4497D02*
X4509D01*
X4560D02*
X4572D01*
X4593D02*
X4605D01*
X4658D02*
X4670D01*
X4041Y1222D02*
X4069D01*
X4119D02*
X4134D01*
X4223D02*
X4235D01*
X4252D02*
X4264D01*
X4351D02*
X4366D01*
X4405D02*
X4422D01*
X4497D02*
X4509D01*
X4560D02*
X4572D01*
X4593D02*
X4605D01*
X4658D02*
X4670D01*
X4041Y1223D02*
X4070D01*
X4119D02*
X4135D01*
X4223D02*
X4235D01*
X4252D02*
X4264D01*
X4352D02*
X4368D01*
X4404D02*
X4420D01*
X4497D02*
X4509D01*
X4560D02*
X4572D01*
X4593D02*
X4605D01*
X4658D02*
X4670D01*
X4041Y1224D02*
X4072D01*
X4120D02*
X4136D01*
X4223D02*
X4235D01*
X4252D02*
X4264D01*
X4353D02*
X4369D01*
X4403D02*
X4419D01*
X4497D02*
X4509D01*
X4560D02*
X4572D01*
X4593D02*
X4605D01*
X4658D02*
X4670D01*
X4041Y1225D02*
X4072D01*
X4122D02*
X4137D01*
X4223D02*
X4235D01*
X4252D02*
X4264D01*
X4354D02*
X4370D01*
X4403D02*
X4418D01*
X4497D02*
X4509D01*
X4560D02*
X4572D01*
X4593D02*
X4606D01*
X4658D02*
X4670D01*
X4041Y1226D02*
X4073D01*
X4123D02*
X4138D01*
X4223D02*
X4235D01*
X4252D02*
X4263D01*
X4355D02*
X4371D01*
X4403D02*
X4417D01*
X4497D02*
X4509D01*
X4560D02*
X4572D01*
X4593D02*
X4606D01*
X4658D02*
X4670D01*
X4041Y1227D02*
X4073D01*
X4124D02*
X4139D01*
X4223D02*
X4235D01*
X4252D02*
X4263D01*
X4357D02*
X4372D01*
X4402D02*
X4416D01*
X4497D02*
X4509D01*
X4560D02*
X4572D01*
X4593D02*
X4606D01*
X4657D02*
X4670D01*
X4041Y1228D02*
X4073D01*
X4125D02*
X4140D01*
X4223D02*
X4235D01*
X4251D02*
X4263D01*
X4358D02*
X4372D01*
X4402D02*
X4415D01*
X4497D02*
X4509D01*
X4560D02*
X4572D01*
X4593D02*
X4606D01*
X4657D02*
X4670D01*
X4041Y1229D02*
X4073D01*
X4126D02*
X4141D01*
X4223D02*
X4235D01*
X4251D02*
X4263D01*
X4359D02*
X4373D01*
X4402D02*
X4415D01*
X4497D02*
X4509D01*
X4560D02*
X4572D01*
X4593D02*
X4606D01*
X4657D02*
X4669D01*
X4127Y1230D02*
X4141D01*
X4223D02*
X4235D01*
X4251D02*
X4263D01*
X4360D02*
X4374D01*
X4402D02*
X4414D01*
X4497D02*
X4509D01*
X4560D02*
X4572D01*
X4593D02*
X4606D01*
X4657D02*
X4669D01*
X4129Y1231D02*
X4142D01*
X4223D02*
X4235D01*
X4252D02*
X4263D01*
X4361D02*
X4375D01*
X4402D02*
X4413D01*
X4497D02*
X4509D01*
X4560D02*
X4572D01*
X4593D02*
X4606D01*
X4657D02*
X4669D01*
X4130Y1232D02*
X4143D01*
X4223D02*
X4235D01*
X4252D02*
X4263D01*
X4362D02*
X4375D01*
X4402D02*
X4413D01*
X4497D02*
X4509D01*
X4560D02*
X4572D01*
X4593D02*
X4607D01*
X4657D02*
X4669D01*
X4131Y1233D02*
X4144D01*
X4223D02*
X4235D01*
X4252D02*
X4263D01*
X4364D02*
X4376D01*
X4401D02*
X4413D01*
X4497D02*
X4509D01*
X4560D02*
X4572D01*
X4594D02*
X4607D01*
X4657D02*
X4669D01*
X4132Y1234D02*
X4144D01*
X4223D02*
X4235D01*
X4252D02*
X4263D01*
X4365D02*
X4377D01*
X4401D02*
X4413D01*
X4497D02*
X4509D01*
X4560D02*
X4572D01*
X4594D02*
X4607D01*
X4657D02*
X4669D01*
X4133Y1235D02*
X4145D01*
X4223D02*
X4235D01*
X4253D02*
X4263D01*
X4366D02*
X4378D01*
X4401D02*
X4413D01*
X4497D02*
X4509D01*
X4560D02*
X4572D01*
X4594D02*
X4608D01*
X4656D02*
X4669D01*
X4134Y1235D02*
X4146D01*
X4223D02*
X4235D01*
X4253D02*
X4263D01*
X4366D02*
X4379D01*
X4402D02*
X4414D01*
X4467D02*
X4467D01*
X4497D02*
X4509D01*
X4560D02*
X4572D01*
X4595D02*
X4608D01*
X4656D02*
X4668D01*
X4135Y1236D02*
X4147D01*
X4223D02*
X4235D01*
X4253D02*
X4264D01*
X4367D02*
X4380D01*
X4402D02*
X4414D01*
X4467D02*
X4475D01*
X4497D02*
X4509D01*
X4560D02*
X4572D01*
X4595D02*
X4609D01*
X4656D02*
X4668D01*
X4135Y1237D02*
X4148D01*
X4223D02*
X4235D01*
X4253D02*
X4264D01*
X4302D02*
X4305D01*
X4368D02*
X4381D01*
X4402D02*
X4414D01*
X4466D02*
X4479D01*
X4497D02*
X4509D01*
X4560D02*
X4572D01*
X4595D02*
X4609D01*
X4655D02*
X4668D01*
X4136Y1238D02*
X4149D01*
X4223D02*
X4235D01*
X4253D02*
X4265D01*
X4302D02*
X4313D01*
X4369D02*
X4381D01*
X4402D02*
X4414D01*
X4466D02*
X4479D01*
X4497D02*
X4509D01*
X4560D02*
X4572D01*
X4596D02*
X4609D01*
X4654D02*
X4668D01*
X4137Y1239D02*
X4149D01*
X4223D02*
X4235D01*
X4254D02*
X4265D01*
X4301D02*
X4314D01*
X4369D02*
X4382D01*
X4403D02*
X4415D01*
X4465D02*
X4478D01*
X4497D02*
X4509D01*
X4560D02*
X4572D01*
X4596D02*
X4610D01*
X4654D02*
X4667D01*
X4138Y1240D02*
X4150D01*
X4223D02*
X4235D01*
X4254D02*
X4266D01*
X4301D02*
X4314D01*
X4370D02*
X4382D01*
X4403D02*
X4415D01*
X4465D02*
X4478D01*
X4497D02*
X4509D01*
X4560D02*
X4572D01*
X4596D02*
X4610D01*
X4653D02*
X4667D01*
X4138Y1241D02*
X4151D01*
X4223D02*
X4235D01*
X4254D02*
X4267D01*
X4301D02*
X4314D01*
X4371D02*
X4383D01*
X4403D02*
X4416D01*
X4464D02*
X4478D01*
X4497D02*
X4509D01*
X4560D02*
X4572D01*
X4597D02*
X4610D01*
X4652D02*
X4667D01*
X4139Y1242D02*
X4151D01*
X4223D02*
X4235D01*
X4255D02*
X4267D01*
X4300D02*
X4313D01*
X4371D02*
X4384D01*
X4404D02*
X4417D01*
X4464D02*
X4477D01*
X4497D02*
X4509D01*
X4560D02*
X4572D01*
X4597D02*
X4611D01*
X4652D02*
X4666D01*
X4139Y1243D02*
X4152D01*
X4223D02*
X4235D01*
X4255D02*
X4268D01*
X4300D02*
X4313D01*
X4372D02*
X4384D01*
X4404D02*
X4418D01*
X4463D02*
X4477D01*
X4497D02*
X4509D01*
X4560D02*
X4572D01*
X4597D02*
X4611D01*
X4651D02*
X4666D01*
X4140Y1244D02*
X4152D01*
X4223D02*
X4235D01*
X4255D02*
X4269D01*
X4299D02*
X4313D01*
X4372D02*
X4385D01*
X4404D02*
X4419D01*
X4462D02*
X4476D01*
X4497D02*
X4509D01*
X4560D02*
X4572D01*
X4598D02*
X4613D01*
X4651D02*
X4665D01*
X4140Y1245D02*
X4153D01*
X4223D02*
X4235D01*
X4256D02*
X4270D01*
X4298D02*
X4313D01*
X4373D02*
X4386D01*
X4404D02*
X4420D01*
X4461D02*
X4476D01*
X4497D02*
X4509D01*
X4560D02*
X4572D01*
X4598D02*
X4615D01*
X4650D02*
X4665D01*
X4140Y1246D02*
X4154D01*
X4223D02*
X4235D01*
X4257D02*
X4271D01*
X4298D02*
X4312D01*
X4373D02*
X4386D01*
X4405D02*
X4421D01*
X4460D02*
X4475D01*
X4497D02*
X4509D01*
X4560D02*
X4572D01*
X4599D02*
X4616D01*
X4648D02*
X4664D01*
X4141Y1247D02*
X4154D01*
X4223D02*
X4235D01*
X4257D02*
X4272D01*
X4296D02*
X4312D01*
X4373D02*
X4387D01*
X4405D02*
X4422D01*
X4457D02*
X4475D01*
X4497D02*
X4509D01*
X4560D02*
X4572D01*
X4600D02*
X4618D01*
X4646D02*
X4664D01*
X4141Y1248D02*
X4155D01*
X4223D02*
X4235D01*
X4258D02*
X4273D01*
X4294D02*
X4311D01*
X4374D02*
X4387D01*
X4406D02*
X4423D01*
X4455D02*
X4474D01*
X4497D02*
X4509D01*
X4560D02*
X4572D01*
X4601D02*
X4620D01*
X4645D02*
X4663D01*
X4142Y1249D02*
X4155D01*
X4223D02*
X4235D01*
X4258D02*
X4275D01*
X4292D02*
X4310D01*
X4374D02*
X4388D01*
X4407D02*
X4425D01*
X4452D02*
X4473D01*
X4497D02*
X4509D01*
X4560D02*
X4572D01*
X4602D02*
X4621D01*
X4643D02*
X4662D01*
X4095Y1250D02*
X4155D01*
X4223D02*
X4235D01*
X4259D02*
X4278D01*
X4288D02*
X4310D01*
X4328D02*
X4388D01*
X4408D02*
X4432D01*
X4446D02*
X4472D01*
X4497D02*
X4509D01*
X4560D02*
X4572D01*
X4603D02*
X4626D01*
X4639D02*
X4662D01*
X4095Y1250D02*
X4155D01*
X4223D02*
X4235D01*
X4259D02*
X4309D01*
X4328D02*
X4388D01*
X4409D02*
X4472D01*
X4497D02*
X4509D01*
X4560D02*
X4572D01*
X4604D02*
X4661D01*
X4095Y1251D02*
X4155D01*
X4223D02*
X4235D01*
X4260D02*
X4308D01*
X4328D02*
X4388D01*
X4410D02*
X4471D01*
X4497D02*
X4509D01*
X4560D02*
X4572D01*
X4605D02*
X4660D01*
X4095Y1252D02*
X4155D01*
X4223D02*
X4235D01*
X4260D02*
X4308D01*
X4328D02*
X4388D01*
X4410D02*
X4470D01*
X4497D02*
X4509D01*
X4560D02*
X4572D01*
X4605D02*
X4658D01*
X4095Y1253D02*
X4155D01*
X4223D02*
X4235D01*
X4261D02*
X4307D01*
X4328D02*
X4388D01*
X4410D02*
X4469D01*
X4497D02*
X4509D01*
X4560D02*
X4572D01*
X4605D02*
X4657D01*
X4095Y1254D02*
X4155D01*
X4223D02*
X4235D01*
X4261D02*
X4306D01*
X4328D02*
X4388D01*
X4412D02*
X4468D01*
X4497D02*
X4509D01*
X4560D02*
X4572D01*
X4607D02*
X4655D01*
X4095Y1255D02*
X4155D01*
X4223D02*
X4235D01*
X4262D02*
X4305D01*
X4328D02*
X4388D01*
X4414D02*
X4467D01*
X4497D02*
X4509D01*
X4560D02*
X4572D01*
X4609D02*
X4653D01*
X4095Y1256D02*
X4155D01*
X4223D02*
X4235D01*
X4265D02*
X4303D01*
X4328D02*
X4388D01*
X4417D02*
X4464D01*
X4497D02*
X4509D01*
X4560D02*
X4572D01*
X4612D02*
X4651D01*
X4095Y1257D02*
X4155D01*
X4223D02*
X4235D01*
X4267D02*
X4301D01*
X4328D02*
X4388D01*
X4419D02*
X4461D01*
X4497D02*
X4509D01*
X4560D02*
X4572D01*
X4614D02*
X4650D01*
X4095Y1258D02*
X4155D01*
X4223D02*
X4235D01*
X4271D02*
X4299D01*
X4328D02*
X4388D01*
X4424D02*
X4458D01*
X4497D02*
X4509D01*
X4560D02*
X4572D01*
X4619D02*
X4647D01*
X4095Y1259D02*
X4155D01*
X4223D02*
X4235D01*
X4273D02*
X4298D01*
X4328D02*
X4388D01*
X4426D02*
X4455D01*
X4497D02*
X4509D01*
X4560D02*
X4572D01*
X4621D02*
X4644D01*
X4276Y1260D02*
X4294D01*
X4430D02*
X4453D01*
X4624D02*
X4641D01*
X4283Y1261D02*
X4288D01*
X4439D02*
X4450D01*
X4631D02*
X4637D01*
D02*
D98*
X2403Y1888D02*
X2423D01*
X2413Y1878D02*
Y1898D01*
Y1913D02*
G75*
G03Y1663J-125D01*
G01*
G75*
G03Y1913J125*
G01*
X2763Y1538D02*
G75*
G03Y1938J200D01*
G01*
G75*
G03Y1538J-200*
G01*
Y1708D02*
Y1673D01*
Y1768D02*
X2713D01*
Y1748*
X2813*
Y1768*
X2763*
Y1798*
X2793Y1888D02*
X2823D01*
X2808Y1903D02*
Y1873D01*
X2903Y2238D02*
X2923D01*
X2913Y2228D02*
Y2248D01*
Y2263D02*
G75*
G03Y2013J-125D01*
G01*
G75*
G03Y2263J125*
G01*
X0Y0D02*
M02*
